<?xml version="1.0" encoding="UTF-8" standalone="no"?>
<!DOCTYPE svg PUBLIC "-//W3C//DTD SVG 1.1//EN" "http://www.w3.org/Graphics/SVG/1.1/DTD/svg11.dtd">
<svg width="100%" height="100%" viewBox="0 0 223 68" version="1.1" xmlns="http://www.w3.org/2000/svg" xmlns:xlink="http://www.w3.org/1999/xlink" xml:space="preserve" xmlns:serif="http://www.serif.com/" style="fill-rule:evenodd;clip-rule:evenodd;stroke-linejoin:round;stroke-miterlimit:2;">
    <g>
        <path d="M31.222,46.378c-5.623,0 -10.182,-4.558 -10.182,-10.181c-0,-5.623 4.559,-10.182 10.182,-10.182c5.623,-0 10.181,4.559 10.181,10.182c0,5.623 -4.558,10.181 -10.181,10.181Zm30.107,-12.647c-0.05,-0.613 -0.622,-1.055 -1.228,-0.947c-8.638,1.526 -11.345,-5.406 -11.345,-5.406c-2.025,-5.175 -5.85,-4.05 -5.85,-4.05c-11.698,-0.494 -14.709,-10.639 -15.483,-16.036c-0.084,-0.586 -0.638,-0.984 -1.222,-0.886c-14.293,2.39 -25.187,14.818 -25.187,29.791c-0,16.623 13.305,30.056 29.928,30.206c16.812,0.152 30.487,-13.43 30.487,-30.206c0,-0.83 -0.034,-1.652 -0.1,-2.466Z" style="fill:#ffb74d;fill-rule:nonzero;"/>
        <path d="M31.228,65.39c-0.092,0 -0.184,-0.001 -0.276,-0.001c-8.924,-0.081 -16.916,-4.216 -22.226,-10.637c5.344,5.07 12.553,8.198 20.526,8.271c0.093,0.001 0.186,0.001 0.279,0.001c16.17,-0 29.373,-12.705 30.17,-28.678c0.213,-0.005 0.431,-0.017 0.653,-0.033c0.04,0.629 0.061,1.261 0.061,1.884c-0,7.848 -3.07,15.212 -8.645,20.737c-5.508,5.459 -12.803,8.456 -20.542,8.456Z" style="fill:#d48744;fill-rule:nonzero;"/>
        <path d="M59.391,34.35c-1.094,-0 -2.068,-0.147 -2.932,-0.395c0.399,0.04 0.816,0.062 1.249,0.062c0.634,-0 1.305,-0.046 2.012,-0.146c-0.005,0.158 -0.012,0.317 -0.019,0.475c-0.105,0.002 -0.208,0.004 -0.31,0.004Z" style="fill:#ffe2b8;fill-rule:nonzero;"/>
        <path d="M59.701,34.346c0.007,-0.158 0.014,-0.317 0.019,-0.475c0.184,-0.026 0.369,-0.056 0.557,-0.089l0.041,0.031c0.013,0.167 0.025,0.333 0.036,0.5c-0.222,0.016 -0.44,0.028 -0.653,0.033Z" style="fill:#eecfb4;fill-rule:nonzero;"/>
        <path d="M4.612,48.169c-1.659,-3.66 -2.584,-7.714 -2.584,-11.972c0.001,-14.323 10.237,-26.432 24.341,-28.791l0.05,0.03c0.027,0.188 0.057,0.386 0.091,0.593c-6.546,1.413 -12.301,4.95 -16.514,9.85c0.289,1.278 -0.388,3.186 -1.839,4.842c-0.81,0.925 -1.73,1.619 -2.612,2.034c-1.82,3.884 -2.84,8.219 -2.841,12.794c0,3.74 0.674,7.318 1.908,10.62Z" style="fill:#ffe2b8;fill-rule:nonzero;"/>
        <path d="M41.971,0.901c3.235,0.112 10.484,1.299 15.04,9.209c0.434,0.754 0.291,1.706 -0.338,2.308c-1.022,0.978 -2.805,2.158 -5.116,1.614c-0.704,-0.165 -1.302,-0.651 -1.592,-1.314c-0.286,-0.651 -0.864,-1.462 -1.986,-1.525c-0.434,-0.025 -0.865,0.087 -1.252,0.286c-0.955,0.49 -3.717,1.644 -5.734,-0.189c0,-0 -0.754,-0.905 -2.261,-0.862c-0.585,0.015 -1.038,-0.511 -0.957,-1.09c0.234,-1.674 0.749,-4.652 1.671,-6.818c0.429,-1.007 1.43,-1.656 2.525,-1.619Z" style="fill:#ffb74d;fill-rule:nonzero;"/>
        <path d="M39.36,9.55c-0.181,-0.023 -0.374,-0.036 -0.576,-0.036c-0.034,-0 -0.067,0 -0.101,0c-0.009,-0.009 -0.02,-0.028 -0.016,-0.051c0.217,-1.554 0.71,-4.458 1.589,-6.546c0.203,0.252 0.532,0.468 0.948,0.629c-0.164,0.198 -0.302,0.421 -0.406,0.665c-0.69,1.621 -1.151,3.696 -1.438,5.339Zm10.457,-5.513c-1.251,-0.534 -2.457,-0.877 -3.541,-1.095c0.121,-0.103 0.223,-0.212 0.302,-0.325c1.032,0.33 2.131,0.787 3.239,1.42Z" style="fill:#ffe2b8;fill-rule:nonzero;"/>
        <path d="M43.121,3.87c-0.727,-0 -1.392,-0.119 -1.917,-0.324c-0.416,-0.161 -0.745,-0.377 -0.948,-0.629c0.006,-0.015 0.012,-0.03 0.018,-0.044c0.274,-0.645 0.915,-1.073 1.599,-1.073c0.022,-0 0.045,-0 0.067,0.001c1.069,0.037 2.738,0.209 4.638,0.816c-0.079,0.113 -0.181,0.222 -0.302,0.325c-0.578,0.492 -1.6,0.852 -2.781,0.917c-0.126,0.007 -0.251,0.011 -0.374,0.011Z" style="fill:#ffe2b8;fill-rule:nonzero;"/>
        <path d="M55.619,20.965c-0.071,-0.176 4.001,-1.342 6.212,-2.378c0.494,-0.231 1.062,0.122 1.076,0.667c0.041,1.383 -0.079,3.708 -1.086,5.702c-0.288,0.573 -0.988,0.805 -1.56,0.516c-1.346,-0.681 -3.703,-2.158 -4.642,-4.507Z" style="fill:#ffb74d;fill-rule:nonzero;"/>
        <path d="M57.146,21.861c-0.107,-0.147 -0.209,-0.298 -0.303,-0.454c0.31,-0.11 0.677,-0.237 1.023,-0.356c1.312,-0.451 2.93,-1.007 4.146,-1.556c0.003,0.183 0.002,0.387 -0.004,0.608c-1.879,0.742 -4.211,1.461 -4.862,1.758Z" style="fill:#ffe2b8;fill-rule:nonzero;"/>
        <path d="M26.369,7.406c-14.104,2.359 -24.34,14.468 -24.341,28.791c0,15.952 12.975,29.048 28.924,29.192c7.841,0.072 15.245,-2.932 20.818,-8.455c5.575,-5.525 8.645,-12.889 8.645,-20.737c-0,-0.788 -0.033,-1.59 -0.097,-2.384l-0.041,-0.031c-0.914,0.161 -1.771,0.235 -2.569,0.235c-7.337,0 -9.857,-6.169 -9.896,-6.27c-1.614,-4.124 -4.327,-3.525 -4.631,-3.443c-0.1,0.027 -0.214,0.043 -0.318,0.037c-12.73,-0.537 -15.741,-12.002 -16.444,-16.905l-0.05,-0.03Zm4.856,60.013c-0.097,-0 -0.194,-0.001 -0.292,-0.002c-8.308,-0.075 -16.089,-3.351 -21.909,-9.226c-5.82,-5.874 -9.024,-13.685 -9.024,-21.994c0,-15.319 10.949,-28.268 26.034,-30.792c0.558,-0.093 1.114,0.039 1.568,0.372c0.452,0.33 0.745,0.817 0.824,1.37c0.781,5.443 3.687,14.625 14.372,15.16c1.702,-0.401 5.097,0.09 6.901,4.698c0.103,0.256 2.551,6.137 10.225,4.78c0.57,-0.101 1.16,0.044 1.619,0.399c0.459,0.354 0.75,0.888 0.797,1.465c0.069,0.848 0.103,1.705 0.103,2.548c0,8.393 -3.283,16.269 -9.245,22.177c-5.892,5.839 -13.686,9.045 -21.973,9.045Z" style="fill:#07042d;fill-rule:nonzero;"/>
        <path d="M31.222,26.318c-5.447,0 -9.879,4.432 -9.879,9.879c0,5.447 4.432,9.879 9.879,9.879c5.446,-0 9.878,-4.432 9.878,-9.879c0,-5.447 -4.432,-9.879 -9.878,-9.879Zm-0,20.364c-5.782,-0 -10.486,-4.704 -10.486,-10.485c0,-5.782 4.704,-10.485 10.486,-10.485c5.781,0 10.485,4.703 10.485,10.485c-0,5.781 -4.704,10.485 -10.485,10.485Z" style="fill:#07042d;fill-rule:nonzero;"/>
        <path d="M31.222,46.378c-5.623,0 -10.182,-4.558 -10.182,-10.181c-0,-5.623 4.559,-10.182 10.182,-10.182c5.623,-0 10.181,4.559 10.181,10.182c0,5.623 -4.558,10.181 -10.181,10.181Zm24.676,-13.517c-5.343,-0.876 -7.142,-5.483 -7.142,-5.483c-2.025,-5.175 -5.85,-4.05 -5.85,-4.05c-7.553,-0.319 -11.483,-4.662 -13.53,-9.152c-0.373,-0.069 -0.743,-0.158 -1.109,-0.269l-1.624,-0.493c-5.628,-1.708 -11.528,1.698 -12.863,7.426l-0.385,1.653c-0.457,1.961 -1.485,3.742 -2.954,5.118l-1.239,1.16c-4.293,4.02 -4.293,10.832 -0,14.852l1.239,1.16c1.469,1.377 2.497,3.158 2.954,5.118l0.385,1.653c1.335,5.728 7.235,9.134 12.863,7.426l1.624,-0.493c1.926,-0.584 3.983,-0.584 5.909,-0l1.624,0.493c5.628,1.708 11.528,-1.698 12.862,-7.426l0.386,-1.653c0.457,-1.96 1.485,-3.741 2.954,-5.118l1.239,-1.16c3.042,-2.848 3.926,-7.097 2.657,-10.762Z" style="fill:#fa5c98;fill-rule:nonzero;"/>
        <path d="M21.044,24.785c-0.29,0 -0.534,-0.225 -0.554,-0.518l-0.339,-4.931c-0.022,-0.307 0.21,-0.573 0.517,-0.593l0.123,-0.009c0.013,-0.001 0.026,-0.001 0.039,-0.001c0.29,-0 0.534,0.224 0.554,0.518l0.339,4.93c0.021,0.307 -0.21,0.573 -0.517,0.594l-0.123,0.008c-0.013,0.001 -0.026,0.002 -0.039,0.002Z" style="fill:#d04779;fill-rule:nonzero;"/>
        <path d="M15.519,34.594c-0.024,0 -0.047,-0.002 -0.071,-0.004l-4.313,-0.526c-0.316,-0.038 -0.541,-0.325 -0.502,-0.642l0.01,-0.082c0.036,-0.293 0.284,-0.507 0.571,-0.507c0.024,-0 0.047,0.001 0.071,0.004l4.313,0.526c0.316,0.037 0.541,0.325 0.502,0.641l-0.01,0.083c-0.035,0.292 -0.284,0.507 -0.571,0.507Z" style="fill:#d04779;fill-rule:nonzero;"/>
        <path d="M18.628,43.252l-4.639,-0c-0.328,-0 -0.594,-0.266 -0.594,-0.594l0,-0.05c0,-0.327 0.266,-0.593 0.594,-0.593l4.639,0c0.327,0 0.593,0.266 0.593,0.593l0,0.05c0,0.328 -0.266,0.594 -0.593,0.594Z" style="fill:#d04779;fill-rule:nonzero;"/>
        <path d="M21.583,54.852c-0.158,-0 -0.316,-0.061 -0.437,-0.181c-0.241,-0.242 -0.241,-0.634 0,-0.876l3.963,-3.962c0.121,-0.121 0.279,-0.181 0.438,-0.181c0.158,-0 0.316,0.06 0.437,0.181c0.241,0.241 0.241,0.632 -0,0.874l-3.963,3.964c-0.121,0.12 -0.279,0.181 -0.438,0.181Z" style="fill:#d04779;fill-rule:nonzero;"/>
        <path d="M33.818,55.977c-0.179,-0 -0.355,-0.084 -0.465,-0.242l-2.581,-3.703c-0.178,-0.257 -0.115,-0.61 0.141,-0.789l0.086,-0.059c0.098,-0.069 0.211,-0.102 0.323,-0.102c0.179,0 0.355,0.085 0.465,0.243l2.581,3.703c0.179,0.256 0.115,0.609 -0.141,0.788l-0.086,0.06c-0.098,0.068 -0.211,0.101 -0.323,0.101Z" style="fill:#d04779;fill-rule:nonzero;"/>
        <path d="M40.692,55.393l-0.044,-0c-0.329,-0 -0.596,-0.268 -0.596,-0.597l0,-5.068c0,-0.33 0.267,-0.596 0.596,-0.596l0.044,-0c0.33,-0 0.597,0.266 0.597,0.596l-0,5.068c-0,0.329 -0.267,0.597 -0.597,0.597Z" style="fill:#d04779;fill-rule:nonzero;"/>
        <path d="M43.874,46.408c-0.323,0 -0.589,-0.258 -0.596,-0.583l-0.001,-0.045c-0.007,-0.329 0.255,-0.601 0.584,-0.608l4.758,-0.1c-0.214,0.402 -0.401,0.819 -0.559,1.249l-4.173,0.087l-0.013,0Z" style="fill:#d04779;fill-rule:nonzero;"/>
        <path d="M50.366,41.079c-0.121,-0 -0.242,-0.037 -0.347,-0.112l-4.118,-2.956c-0.267,-0.192 -0.328,-0.565 -0.136,-0.832l0.026,-0.036c0.116,-0.162 0.299,-0.249 0.484,-0.249c0.121,0 0.242,0.037 0.347,0.112l4.118,2.956c0.268,0.192 0.329,0.565 0.136,0.832l-0.025,0.036c-0.116,0.163 -0.3,0.249 -0.485,0.249Z" style="fill:#d04779;fill-rule:nonzero;"/>
        <path d="M43.758,33.966c-0.041,-0 -0.083,-0.004 -0.125,-0.014l-0.118,-0.027c-0.3,-0.069 -0.488,-0.367 -0.42,-0.668l0.968,-4.241c0.059,-0.258 0.289,-0.434 0.543,-0.434c0.041,0 0.083,0.004 0.125,0.014l0.118,0.027c0.3,0.069 0.488,0.367 0.42,0.668l-0.968,4.241c-0.059,0.258 -0.289,0.434 -0.543,0.434Z" style="fill:#d04779;fill-rule:nonzero;"/>
        <path d="M26.73,25.051c-0.235,-0 -0.449,-0.16 -0.508,-0.398l-0.045,-0.184c-0.069,-0.28 0.102,-0.565 0.383,-0.634l4.176,-1.028c0.042,-0.011 0.084,-0.016 0.126,-0.016c0.235,-0 0.449,0.16 0.508,0.399l0.045,0.183c0.069,0.281 -0.102,0.565 -0.383,0.634l-4.176,1.029c-0.042,0.01 -0.084,0.015 -0.126,0.015Z" style="fill:#d04779;fill-rule:nonzero;"/>
        <path d="M38.76,59.422c-0.977,-0.001 -1.973,-0.142 -2.96,-0.442l-1.624,-0.493c-0.963,-0.292 -1.959,-0.439 -2.954,-0.439c-0.996,0 -1.992,0.147 -2.955,0.439l-1.624,0.493c-0.011,0.003 -0.022,0.007 -0.033,0.01c-0.011,0.003 -0.021,0.006 -0.031,0.009c-0.003,0.001 -0.005,0.002 -0.007,0.003c-0.964,0.284 -1.935,0.419 -2.889,0.419c-3.762,0 -7.262,-2.106 -9.012,-5.462c0.634,1.214 1.497,2.264 2.519,3.11c-0.615,-0.744 -1.131,-1.584 -1.519,-2.505c1.824,1.579 4.185,2.491 6.661,2.491c0.977,0 1.972,-0.142 2.959,-0.441l1.624,-0.493c0.963,-0.293 1.959,-0.439 2.954,-0.439c0.996,0 1.992,0.146 2.955,0.439l1.624,0.493c0.987,0.299 1.982,0.441 2.96,0.441c4.597,0 8.802,-3.145 9.903,-7.868l0.385,-1.653c0.096,-0.413 0.218,-0.818 0.364,-1.213l0.895,-0.019c0.329,-0.007 0.589,-0.28 0.583,-0.609l-0.001,-0.043c-0.007,-0.325 -0.272,-0.585 -0.596,-0.585l-0.013,0l-0.309,0.007c0.523,-0.985 1.208,-1.884 2.031,-2.655l1.239,-1.16c2.207,-2.067 3.277,-4.871 3.213,-7.654c0.348,0.144 0.717,0.272 1.108,0.381c-0.083,-0.373 -0.181,-0.742 -0.305,-1.106c0.37,1.076 0.555,2.201 0.555,3.327c-0.002,2.706 -1.074,5.41 -3.219,7.418l-1.239,1.16c-1.469,1.377 -2.497,3.158 -2.954,5.118l-0.386,1.653c-1.1,4.723 -5.304,7.868 -9.902,7.868Zm17.119,-26.564c-0.002,-0.001 -0.004,-0.001 -0.005,-0.001c0.001,-0 0.003,-0 0.005,0.001Zm-0.024,-0.005l-0.002,0l0.002,0Zm-0.022,-0.004l-0.003,0l0.003,0Zm-0.023,-0.004l-0.001,0l0.001,0Z" style="fill:#cf577e;fill-rule:nonzero;"/>
        <path d="M48.06,46.321c0.158,-0.43 0.345,-0.847 0.559,-1.249l0.309,-0.007l0.013,0c0.324,0 0.589,0.26 0.596,0.585l0.001,0.043c0.006,0.329 -0.254,0.602 -0.583,0.609l-0.895,0.019Z" style="fill:#d04779;fill-rule:nonzero;"/>
        <path d="M31.898,46.716c-1.768,0 -3.431,-0.45 -4.879,-1.243c1.281,0.582 2.704,0.905 4.203,0.905c5.623,0 10.181,-4.558 10.181,-10.181c0,-2.306 -0.766,-4.434 -2.059,-6.141c-0.281,-0.481 -0.601,-0.937 -0.955,-1.365c2.254,1.868 3.69,4.688 3.69,7.844c0,5.623 -4.558,10.181 -10.181,10.181Z" style="fill:#fdbed6;fill-rule:nonzero;"/>
        <path d="M9.18,43.602c-0.001,-0.001 -0.002,-0.002 -0.003,-0.002c0.001,0 0.002,0.001 0.003,0.002Zm-0.013,-0.012c-0.001,-0 -0.002,-0.001 -0.003,-0.002c0.001,0.001 0.002,0.002 0.003,0.002Zm-0.012,-0.011c-0.002,-0.002 -0.002,-0.003 -0.004,-0.003c0.002,0 0.003,0.001 0.004,0.003Zm-0.012,-0.011c-0.001,-0.001 -0.003,-0.003 -0.005,-0.005c0.002,0.002 0.004,0.004 0.005,0.005Zm-0.011,-0.011c-0.002,-0.002 -0.005,-0.004 -0.007,-0.006c0.002,0.002 0.005,0.004 0.007,0.006Zm-0.012,-0.012c-0.003,-0.002 -0.005,-0.004 -0.008,-0.006c0.003,0.002 0.005,0.004 0.008,0.006Zm-0.012,-0.01c-0.003,-0.004 -0.006,-0.006 -0.009,-0.01c0.003,0.004 0.006,0.006 0.009,0.01Zm-0.012,-0.012c-0.003,-0.003 -0.007,-0.007 -0.01,-0.011c0.003,0.004 0.007,0.008 0.01,0.011Zm-0.011,-0.011c-2.069,-1.998 -3.103,-4.657 -3.103,-7.315c-0,-2.708 1.073,-5.417 3.22,-7.426l1.239,-1.16c1.469,-1.376 2.497,-3.157 2.954,-5.118l0.385,-1.653c1.101,-4.723 5.306,-7.868 9.903,-7.868c0.977,-0 1.973,0.142 2.96,0.442l1.624,0.493c0.341,0.103 0.687,0.189 1.034,0.255c0.076,0.119 0.154,0.236 0.234,0.353c0.133,0.28 0.275,0.56 0.425,0.837c-0.114,-0.031 -0.228,-0.059 -0.341,-0.093l-1.623,-0.493c-0.988,-0.299 -1.983,-0.442 -2.961,-0.442c-4.597,0 -8.802,3.145 -9.902,7.869l-0.386,1.653c-0.456,1.96 -1.485,3.741 -2.954,5.117l-1.239,1.16c-3.222,3.017 -4.025,7.607 -2.41,11.409l-0.294,-0.275c-0.415,-0.389 -0.789,-0.804 -1.124,-1.24c0.517,1.278 1.302,2.474 2.359,3.495Zm20.302,-29.312c-0.001,-0.002 -0.002,-0.006 -0.004,-0.008c0.001,0.001 0.001,0.002 0.002,0.002c-0,0 -0,0.001 -0,0.001c0.001,0.002 0.002,0.004 0.002,0.005Z" style="fill:#fdbed6;fill-rule:nonzero;"/>
        <path d="M23.668,13.814c-1.611,-0 -3.201,0.423 -4.644,1.257c-2.259,1.304 -3.829,3.421 -4.421,5.961l-0.385,1.653c-0.496,2.13 -1.603,4.047 -3.2,5.543l-1.238,1.16c-1.904,1.782 -2.953,4.201 -2.953,6.809c-0,2.608 1.049,5.027 2.953,6.809l1.238,1.16c1.597,1.496 2.704,3.413 3.2,5.542l0.385,1.654c0.592,2.54 2.163,4.658 4.421,5.962c2.259,1.303 4.877,1.605 7.374,0.847l1.624,-0.493c2.093,-0.635 4.306,-0.636 6.4,0l1.624,0.493c2.495,0.758 5.114,0.457 7.372,-0.847c2.259,-1.304 3.83,-3.422 4.422,-5.962l0.385,-1.653c0.497,-2.131 1.603,-4.047 3.2,-5.543l1.239,-1.16c2.567,-2.403 3.554,-6.05 2.583,-9.408c-5.355,-1.139 -7.2,-5.712 -7.279,-5.912c-1.721,-4.401 -4.697,-3.585 -4.823,-3.548c-0.09,0.027 -0.184,0.037 -0.275,0.034c-6.437,-0.272 -11.297,-3.469 -14.079,-9.253c-0.26,-0.059 -0.518,-0.127 -0.77,-0.204l-1.623,-0.492c-0.902,-0.274 -1.819,-0.409 -2.73,-0.409Zm-0.004,46.458c-1.903,-0 -3.781,-0.5 -5.485,-1.485c-2.668,-1.54 -4.523,-4.041 -5.222,-7.042l-0.385,-1.652c-0.42,-1.804 -1.357,-3.427 -2.709,-4.693l-1.239,-1.16c-2.249,-2.106 -3.487,-4.962 -3.487,-8.043c-0,-3.081 1.238,-5.937 3.487,-8.043l1.239,-1.16c1.352,-1.266 2.289,-2.888 2.709,-4.693l0.385,-1.652c0.699,-3.001 2.554,-5.501 5.222,-7.042c2.668,-1.541 5.761,-1.896 8.71,-1.002l1.624,0.493c0.33,0.1 0.672,0.183 1.017,0.247c0.271,0.051 0.501,0.23 0.615,0.481c2.488,5.459 6.758,8.37 12.69,8.652c0.849,-0.166 4.676,-0.599 6.707,4.59c0.068,0.17 1.714,4.176 6.494,4.959c0.306,0.05 0.56,0.264 0.661,0.557c1.423,4.112 0.293,8.687 -2.878,11.656l-1.239,1.16c-1.352,1.266 -2.289,2.889 -2.709,4.693l-0.385,1.652c-0.699,3.001 -2.554,5.502 -5.222,7.043c-2.669,1.54 -5.762,1.896 -8.709,1l-1.624,-0.493c-1.773,-0.538 -3.647,-0.537 -5.418,0l-1.624,0.493c-1.065,0.323 -2.149,0.484 -3.225,0.484Z" style="fill:#07042d;fill-rule:nonzero;"/>
        <path d="M19.814,23.591l-0.34,-4.931c-0.021,-0.307 0.211,-0.573 0.517,-0.593l0.124,-0.009c0.306,-0.021 0.572,0.21 0.593,0.517l0.339,4.931c0.021,0.306 -0.21,0.572 -0.517,0.593l-0.123,0.008c-0.307,0.022 -0.572,-0.21 -0.593,-0.516Z" style="fill:#ffd54f;fill-rule:nonzero;"/>
        <path d="M10.609,32.161l4.313,0.525c0.316,0.039 0.541,0.326 0.502,0.642l-0.01,0.083c-0.038,0.316 -0.326,0.541 -0.642,0.503l-4.313,-0.526c-0.316,-0.039 -0.541,-0.326 -0.502,-0.642l0.01,-0.083c0.038,-0.315 0.326,-0.541 0.642,-0.502Z" style="fill:#81d4fa;fill-rule:nonzero;"/>
        <path d="M13.312,41.339l4.64,-0c0.327,-0 0.593,0.266 0.593,0.594l-0,0.049c-0,0.328 -0.266,0.593 -0.593,0.593l-4.64,0c-0.327,0 -0.593,-0.265 -0.593,-0.593l-0,-0.049c-0,-0.328 0.266,-0.594 0.593,-0.594Z" style="fill:#ffd54f;fill-rule:nonzero;"/>
        <path d="M20.47,53.12l3.963,-3.964c0.242,-0.241 0.633,-0.241 0.875,0c0.241,0.241 0.241,0.633 -0,0.875l-3.964,3.963c-0.241,0.241 -0.633,0.241 -0.874,0c-0.241,-0.242 -0.241,-0.633 -0,-0.874Z" style="fill:#aed581;fill-rule:nonzero;"/>
        <path d="M32.677,55.059l-2.581,-3.704c-0.178,-0.256 -0.115,-0.609 0.141,-0.788l0.086,-0.059c0.256,-0.179 0.609,-0.116 0.788,0.141l2.581,3.702c0.178,0.257 0.115,0.61 -0.141,0.789l-0.086,0.06c-0.256,0.178 -0.609,0.115 -0.788,-0.141Z" style="fill:#fef7fb;fill-rule:nonzero;"/>
        <path d="M39.376,54.12l0,-5.068c0,-0.33 0.267,-0.596 0.596,-0.596l0.044,-0c0.33,-0 0.597,0.266 0.597,0.596l-0,5.068c-0,0.329 -0.267,0.597 -0.597,0.597l-0.044,-0c-0.329,-0 -0.596,-0.268 -0.596,-0.597Z" style="fill:#81d4fa;fill-rule:nonzero;"/>
        <path d="M43.185,44.495l5.067,-0.106c0.329,-0.006 0.602,0.254 0.609,0.584l0.001,0.044c0.007,0.329 -0.255,0.602 -0.584,0.609l-5.067,0.106c-0.329,0.007 -0.602,-0.254 -0.609,-0.583l-0.001,-0.045c-0.007,-0.329 0.255,-0.601 0.584,-0.609Z" style="fill:#ffd54f;fill-rule:nonzero;"/>
        <path d="M45.947,36.331l4.117,2.955c0.268,0.192 0.329,0.565 0.137,0.832l-0.027,0.036c-0.191,0.268 -0.564,0.329 -0.831,0.137l-4.118,-2.956c-0.267,-0.192 -0.328,-0.565 -0.136,-0.832l0.025,-0.036c0.192,-0.268 0.565,-0.329 0.833,-0.136Z" style="fill:#81d4fa;fill-rule:nonzero;"/>
        <path d="M44.593,28.615l-0.968,4.241c-0.069,0.3 -0.367,0.489 -0.668,0.419l-0.118,-0.026c-0.3,-0.069 -0.488,-0.368 -0.42,-0.668l0.968,-4.241c0.068,-0.301 0.367,-0.488 0.668,-0.42l0.118,0.027c0.3,0.069 0.488,0.368 0.42,0.668Z" style="fill:#aed581;fill-rule:nonzero;"/>
        <path d="M33.16,5.696l1.273,3.837c0.093,0.283 -0.06,0.589 -0.343,0.683l-0.149,0.05c-0.283,0.093 -0.588,-0.06 -0.682,-0.344l-1.273,-3.836c-0.094,-0.284 0.06,-0.589 0.343,-0.683l0.148,-0.049c0.284,-0.094 0.589,0.059 0.683,0.342Z" style="fill:#07042d;fill-rule:nonzero;"/>
        <path d="M50.84,19.237l-3.193,1.059c-0.261,0.086 -0.544,-0.055 -0.631,-0.317l-0.074,-0.225c-0.088,-0.263 0.055,-0.545 0.316,-0.632l3.193,-1.059c0.262,-0.086 0.545,0.055 0.631,0.317l0.075,0.225c0.087,0.263 -0.055,0.545 -0.317,0.632Z" style="fill:#07042d;fill-rule:nonzero;"/>
        <path d="M54.382,27.766l-1.966,-2.27c-0.172,-0.199 -0.15,-0.5 0.049,-0.672l0.214,-0.185c0.199,-0.173 0.5,-0.152 0.672,0.047l1.966,2.271c0.172,0.199 0.15,0.5 -0.049,0.672l-0.214,0.186c-0.199,0.172 -0.5,0.15 -0.672,-0.049Z" style="fill:#07042d;fill-rule:nonzero;"/>
        <path d="M25.884,23.159l4.176,-1.029c0.281,-0.069 0.565,0.102 0.634,0.384l0.045,0.182c0.069,0.282 -0.102,0.566 -0.384,0.635l-4.175,1.029c-0.281,0.069 -0.565,-0.103 -0.634,-0.384l-0.045,-0.183c-0.07,-0.281 0.102,-0.565 0.383,-0.634Z" style="fill:#fef7fb;fill-rule:nonzero;"/>
        <path d="M31.222,26.015c-5.624,-0 -10.182,4.559 -10.182,10.182c-0,5.623 4.558,10.181 10.182,10.181c5.623,0 10.181,-4.558 10.181,-10.181c0,-5.623 -4.558,-10.182 -10.181,-10.182Zm-0,1.69c4.682,0 8.491,3.81 8.491,8.492c-0,4.682 -3.809,8.491 -8.491,8.491c-4.682,-0 -8.492,-3.809 -8.492,-8.491c0,-4.682 3.81,-8.492 8.492,-8.492Z" style="fill:#07042d;fill-rule:nonzero;"/>
        <path d="M52.711,13.268c-0.303,0 -0.62,-0.034 -0.947,-0.112c-0.436,-0.102 -0.801,-0.401 -0.975,-0.799c-0.063,-0.145 -0.132,-0.283 -0.207,-0.413c5.325,-0.477 0.859,-6.19 -0.433,-7.712c2.163,1.304 4.335,3.295 6.081,6.327c0.227,0.393 0.153,0.89 -0.179,1.208c-0.758,0.725 -1.905,1.501 -3.34,1.501Z" style="fill:#d48744;fill-rule:nonzero;"/>
        <path d="M43.685,11.393c-0.705,-0 -1.431,-0.19 -2.054,-0.741c-0.01,-0.011 -0.021,-0.022 -0.034,-0.034c0.555,0.2 1.017,0.266 1.386,0.266c0.73,0 1.096,-0.261 1.096,-0.261c0.869,-0.435 1.8,-0.559 2.581,-0.559c1.041,-0 1.813,0.221 1.813,0.221c-0.025,0.017 -0.051,0.034 -0.075,0.051c-0.12,-0.021 -0.243,-0.035 -0.368,-0.042c-0.056,-0.003 -0.112,-0.005 -0.169,-0.005c-0.516,0 -1.047,0.134 -1.545,0.389c-0.536,0.276 -1.559,0.715 -2.631,0.715Z" style="fill:#d48744;fill-rule:nonzero;"/>
        <path d="M52.703,15.067c-0.45,0 -0.901,-0.052 -1.351,-0.159c-0.985,-0.231 -1.811,-0.915 -2.211,-1.829c-0.414,-0.942 -1.016,-0.977 -1.213,-0.988c-0.249,-0.012 -0.522,0.051 -0.789,0.188c-0.959,0.493 -4.279,1.924 -6.751,-0.323c-0.031,-0.028 -0.06,-0.058 -0.087,-0.09c-0.01,-0.011 -0.517,-0.566 -1.544,-0.539c-0.546,0.009 -1.054,-0.208 -1.416,-0.611c-0.366,-0.411 -0.533,-0.958 -0.457,-1.503c0.231,-1.651 0.763,-4.763 1.734,-7.045c0.572,-1.346 1.937,-2.219 3.384,-2.166c3.137,0.108 10.956,1.267 15.789,9.659c0.64,1.114 0.437,2.515 -0.496,3.406c-1.373,1.314 -2.966,2 -4.592,2Zm-4.842,-4.778c0.057,0 0.113,0.002 0.169,0.005c0.112,0.006 0.221,0.018 0.329,0.036c0.993,0.159 1.8,0.779 2.313,1.78l0.01,0.019c0.037,0.074 0.073,0.15 0.107,0.228c0.174,0.398 0.539,0.697 0.975,0.799l0.044,0.01c0.174,0.04 0.345,0.067 0.513,0.083l0.044,0.004l0.035,0.003l0.034,0.003l0.018,0.001l0.029,0.002l0.03,0.001c0.067,0.004 0.134,0.005 0.2,0.005c1.252,0 2.284,-0.59 3.03,-1.222l0.02,-0.017l0.024,-0.021l0.042,-0.036l0.04,-0.036l0.043,-0.038l0.02,-0.018l0.022,-0.021l0.019,-0.017l0.04,-0.038l0.04,-0.037c0.332,-0.318 0.406,-0.815 0.179,-1.208l-0.048,-0.083l-0.01,-0.017l-0.041,-0.07l-0.008,-0.013c-1.692,-2.869 -3.768,-4.786 -5.843,-6.064l-0.072,-0.044l-0.059,-0.036l0,0c-3.263,-1.968 -6.503,-2.372 -8.209,-2.431c-0.709,-0.029 -1.383,0.407 -1.666,1.072c-0.89,2.091 -1.389,5.026 -1.607,6.59c-0.004,0.023 0.007,0.042 0.016,0.051c0.034,0 0.067,-0 0.101,-0c1.668,-0 2.604,0.877 2.847,1.138l0.031,0.027l0.028,0.025l0.029,0.024l0.03,0.024l0.029,0.023l0.031,0.023c0.24,0.181 0.493,0.314 0.753,0.408l0.032,0.012l0.033,0.011l0.035,0.011l0.03,0.01l0.036,0.01l0.015,0.005l0.026,0.007l0.012,0.004l0.038,0.01l0.04,0.01l0.039,0.009l0.047,0.011l0.039,0.008c0.014,0.003 0.027,0.006 0.041,0.008l0.043,0.008c0.248,0.044 0.497,0.058 0.744,0.05l0.01,0l0.032,-0.001l0.044,-0.002l0.045,-0.003c0.014,-0.001 0.027,-0.002 0.041,-0.003l0.042,-0.003l0.045,-0.004l0.029,-0.002l0.044,-0.005l0.045,-0.005c0.013,-0.002 0.027,-0.003 0.04,-0.005l0.042,-0.006l0.044,-0.006l0.043,-0.006l0.029,-0.005l0.043,-0.007c0.013,-0.002 0.026,-0.004 0.04,-0.007l0.041,-0.007l0.042,-0.008l0.041,-0.008l0.037,-0.008l0.035,-0.007c0.013,-0.003 0.026,-0.006 0.039,-0.009l0.039,-0.009l0.04,-0.009l0.038,-0.01c0.512,-0.125 0.966,-0.311 1.299,-0.47l0.019,-0.009l0.032,-0.015l0.021,-0.011l0.029,-0.014l0.048,-0.024l0.046,-0.024c0.498,-0.255 1.029,-0.389 1.545,-0.389Z" style="fill:#07042d;fill-rule:nonzero;"/>
        <path d="M60.782,24.697c-0.035,0 -0.074,-0.007 -0.115,-0.028c-0.955,-0.483 -2.494,-1.415 -3.514,-2.799c-0.001,-0.008 -0.002,-0.012 -0.002,-0.012c0,0 1.375,0.977 2.737,0.977c0.741,0 1.479,-0.288 1.99,-1.182c-0.134,0.941 -0.391,1.966 -0.86,2.898c-0.043,0.085 -0.115,0.12 -0.154,0.132c-0.022,0.007 -0.05,0.014 -0.082,0.014Z" style="fill:#d48744;fill-rule:nonzero;"/>
        <path d="M60.781,26.498c-0.319,-0 -0.634,-0.075 -0.926,-0.222c-1.443,-0.731 -4.02,-2.347 -5.071,-4.976c-0.092,-0.229 -0.085,-0.498 0.018,-0.722c0.204,-0.447 0.419,-0.521 2.479,-1.229c1.275,-0.438 3.02,-1.039 4.169,-1.577c0.505,-0.237 1.093,-0.203 1.568,0.09c0.478,0.294 0.774,0.805 0.789,1.366c0.047,1.638 -0.121,4.03 -1.183,6.134c-0.247,0.492 -0.673,0.859 -1.198,1.031c-0.212,0.07 -0.43,0.105 -0.645,0.105Zm1.097,-4.845c0.118,-0.829 0.142,-1.589 0.134,-2.158c-1.216,0.549 -2.834,1.105 -4.146,1.556c-0.346,0.119 -0.713,0.246 -1.023,0.356c0.096,0.16 0.2,0.314 0.31,0.463l0,-0c0.924,1.254 2.274,2.137 3.23,2.651l0.054,0.028l0.051,0.027l0.05,0.027l0.036,0.018l0.047,0.024l0.046,0.024c0.069,0.035 0.132,0.031 0.178,0.02l0.019,-0.006c0.039,-0.012 0.111,-0.047 0.154,-0.132l0.014,-0.028c0.41,-0.822 0.655,-1.715 0.798,-2.558l0.007,-0.046l0.008,-0.044c0.012,-0.075 0.023,-0.148 0.033,-0.222l0,0Z" style="fill:#07042d;fill-rule:nonzero;"/>
    </g>
    <path d="M77.5,67.064l-3.1,-0l-0,-17.756l3.1,-0l0,7.001l0.443,-0c0.328,-0.694 0.804,-1.231 1.427,-1.611c0.623,-0.381 1.419,-0.571 2.387,-0.571c0.721,0 1.406,0.144 2.054,0.431c0.648,0.288 1.214,0.706 1.698,1.256c0.484,0.55 0.869,1.222 1.156,2.017c0.287,0.794 0.431,1.699 0.431,2.714l0,0.456c0,1.032 -0.139,1.945 -0.418,2.74c-0.279,0.795 -0.656,1.467 -1.132,2.016c-0.476,0.55 -1.038,0.964 -1.686,1.243c-0.647,0.279 -1.349,0.419 -2.103,0.419c-0.558,-0 -1.042,-0.059 -1.452,-0.178c-0.41,-0.118 -0.767,-0.279 -1.07,-0.482c-0.304,-0.203 -0.558,-0.435 -0.763,-0.697c-0.205,-0.262 -0.381,-0.537 -0.529,-0.825l-0.443,0l0,1.827Zm3.248,-2.689c0.968,0 1.751,-0.309 2.35,-0.926c0.598,-0.617 0.898,-1.458 0.898,-2.524l-0,-0.304c-0,-1.066 -0.3,-1.907 -0.898,-2.524c-0.599,-0.617 -1.382,-0.926 -2.35,-0.926c-0.968,0 -1.751,0.317 -2.35,0.951c-0.599,0.634 -0.898,1.467 -0.898,2.499l0,0.304c0,1.032 0.299,1.865 0.898,2.499c0.599,0.634 1.382,0.951 2.35,0.951Z" style="fill:#c40851;fill-rule:nonzero;"/>
    <path d="M90.196,64.02l4.134,-0l-0,-6.494l-3.838,0l-0,-3.044l6.938,0l0,9.538l3.543,-0l0,3.044l-10.777,-0l0,-3.044Zm7.997,-13.267c-0,0.339 -0.062,0.656 -0.185,0.952c-0.123,0.296 -0.291,0.549 -0.504,0.761c-0.213,0.211 -0.463,0.38 -0.751,0.507c-0.287,0.127 -0.586,0.19 -0.898,0.19c-0.328,0 -0.631,-0.063 -0.91,-0.19c-0.279,-0.127 -0.525,-0.296 -0.738,-0.507c-0.213,-0.212 -0.382,-0.465 -0.505,-0.761c-0.123,-0.296 -0.184,-0.613 -0.184,-0.952c-0,-0.338 0.061,-0.655 0.184,-0.951c0.123,-0.296 0.292,-0.549 0.505,-0.761c0.213,-0.211 0.459,-0.38 0.738,-0.507c0.279,-0.127 0.582,-0.19 0.91,-0.19c0.312,-0 0.611,0.063 0.898,0.19c0.288,0.127 0.538,0.296 0.751,0.507c0.213,0.212 0.381,0.465 0.504,0.761c0.123,0.296 0.185,0.613 0.185,0.951Z" style="fill:#c40851;fill-rule:nonzero;"/>
    <path d="M104.689,54.482l3.617,0l-0,-5.174l3.1,-0l-0,5.174l4.404,0l0,3.044l-4.404,0l-0,5.733c-0,0.507 0.221,0.761 0.664,0.761l3.297,-0l0,3.044l-5.167,-0c-0.558,-0 -1.013,-0.186 -1.365,-0.558c-0.353,-0.372 -0.529,-0.846 -0.529,-1.421l-0,-7.559l-3.617,0l-0,-3.044Z" style="fill:#c40851;fill-rule:nonzero;"/>
    <path d="M122.822,61.813c0.017,0.372 0.103,0.715 0.259,1.027c0.156,0.313 0.369,0.584 0.64,0.812c0.27,0.228 0.582,0.406 0.935,0.533c0.352,0.127 0.725,0.19 1.119,0.19c0.771,0 1.362,-0.14 1.772,-0.419c0.41,-0.279 0.705,-0.613 0.885,-1.001l2.658,1.521c-0.148,0.322 -0.353,0.656 -0.615,1.002c-0.263,0.347 -0.603,0.664 -1.021,0.952c-0.419,0.287 -0.927,0.524 -1.526,0.71c-0.599,0.186 -1.3,0.279 -2.104,0.279c-0.918,-0 -1.755,-0.152 -2.509,-0.457c-0.755,-0.304 -1.407,-0.744 -1.957,-1.319c-0.549,-0.575 -0.976,-1.276 -1.279,-2.105c-0.303,-0.829 -0.455,-1.767 -0.455,-2.816l-0,-0.152c-0,-0.964 0.16,-1.843 0.48,-2.638c0.319,-0.795 0.758,-1.471 1.316,-2.029c0.558,-0.558 1.21,-0.994 1.956,-1.307c0.746,-0.312 1.546,-0.469 2.399,-0.469c1.05,0 1.952,0.19 2.707,0.571c0.754,0.38 1.378,0.862 1.87,1.446c0.492,0.583 0.853,1.226 1.082,1.928c0.23,0.701 0.345,1.382 0.345,2.042l-0,1.699l-8.957,0Zm2.928,-4.794c-0.787,-0 -1.427,0.207 -1.919,0.621c-0.492,0.415 -0.812,0.892 -0.959,1.434l5.757,-0c-0.098,-0.592 -0.406,-1.083 -0.922,-1.472c-0.517,-0.389 -1.169,-0.583 -1.957,-0.583Z" style="fill:#c40851;fill-rule:nonzero;"/>
    <rect x="136.921" y="58.642" width="7.677" height="2.892" style="fill:#c40851;fill-rule:nonzero;"/>
    <path d="M154.095,58.034c0,0.405 0.205,0.697 0.616,0.875c0.41,0.177 1.156,0.325 2.239,0.444c1.246,0.135 2.263,0.52 3.051,1.154c0.787,0.634 1.181,1.517 1.181,2.65l-0,0.153c-0,1.251 -0.443,2.249 -1.329,2.993c-0.886,0.744 -2.132,1.116 -3.74,1.116c-0.951,-0 -1.763,-0.127 -2.436,-0.381c-0.672,-0.253 -1.23,-0.57 -1.673,-0.951c-0.443,-0.38 -0.783,-0.803 -1.021,-1.268c-0.238,-0.465 -0.398,-0.917 -0.48,-1.357l2.854,-0.964c0.132,0.541 0.406,1.015 0.825,1.42c0.418,0.406 1.062,0.609 1.931,0.609c0.771,0 1.3,-0.122 1.587,-0.368c0.287,-0.245 0.431,-0.511 0.431,-0.799c-0,-0.169 -0.037,-0.325 -0.111,-0.469c-0.074,-0.144 -0.209,-0.279 -0.406,-0.406c-0.197,-0.127 -0.463,-0.232 -0.8,-0.317c-0.336,-0.084 -0.758,-0.152 -1.267,-0.203c-1.378,-0.118 -2.473,-0.486 -3.285,-1.103c-0.812,-0.617 -1.218,-1.526 -1.218,-2.727l0,-0.152c0,-0.626 0.132,-1.176 0.394,-1.649c0.263,-0.474 0.607,-0.875 1.034,-1.205c0.426,-0.33 0.918,-0.579 1.476,-0.748c0.558,-0.169 1.132,-0.254 1.722,-0.254c0.771,0 1.44,0.097 2.005,0.292c0.566,0.194 1.046,0.448 1.44,0.761c0.394,0.313 0.713,0.659 0.959,1.04c0.247,0.38 0.435,0.748 0.566,1.103l-2.805,1.167c-0.147,-0.456 -0.401,-0.816 -0.762,-1.078c-0.361,-0.262 -0.829,-0.393 -1.403,-0.393c-0.525,-0 -0.918,0.097 -1.181,0.292c-0.262,0.194 -0.394,0.435 -0.394,0.723Z" style="fill:#c40851;fill-rule:nonzero;"/>
    <path d="M165.488,64.02l4.133,-0l0,-6.494l-3.838,0l-0,-3.044l6.938,0l0,9.538l3.544,-0l-0,3.044l-10.777,-0l-0,-3.044Zm7.996,-13.267c0,0.339 -0.061,0.656 -0.184,0.952c-0.123,0.296 -0.292,0.549 -0.505,0.761c-0.213,0.211 -0.463,0.38 -0.75,0.507c-0.287,0.127 -0.587,0.19 -0.898,0.19c-0.328,0 -0.632,-0.063 -0.911,-0.19c-0.279,-0.127 -0.525,-0.296 -0.738,-0.507c-0.213,-0.212 -0.381,-0.465 -0.504,-0.761c-0.123,-0.296 -0.185,-0.613 -0.185,-0.952c0,-0.338 0.062,-0.655 0.185,-0.951c0.123,-0.296 0.291,-0.549 0.504,-0.761c0.213,-0.211 0.459,-0.38 0.738,-0.507c0.279,-0.127 0.583,-0.19 0.911,-0.19c0.311,-0 0.611,0.063 0.898,0.19c0.287,0.127 0.537,0.296 0.75,0.507c0.213,0.212 0.382,0.465 0.505,0.761c0.123,0.296 0.184,0.613 0.184,0.951Z" style="fill:#c40851;fill-rule:nonzero;"/>
    <path d="M191.274,64.02l-0,3.044l-10.63,-0l0,-5.327l7.677,-3.856l0,-0.456l-7.529,-0l-0,-2.943l10.186,0l0,5.175l-7.676,3.906l-0,0.457l7.972,-0Z" style="fill:#c40851;fill-rule:nonzero;"/>
    <path d="M198.114,61.813c0.016,0.372 0.102,0.715 0.258,1.027c0.156,0.313 0.369,0.584 0.64,0.812c0.271,0.228 0.582,0.406 0.935,0.533c0.353,0.127 0.726,0.19 1.119,0.19c0.771,0 1.362,-0.14 1.772,-0.419c0.41,-0.279 0.705,-0.613 0.886,-1.001l2.657,1.521c-0.148,0.322 -0.353,0.656 -0.615,1.002c-0.263,0.347 -0.603,0.664 -1.021,0.952c-0.418,0.287 -0.927,0.524 -1.526,0.71c-0.598,0.186 -1.3,0.279 -2.103,0.279c-0.919,-0 -1.756,-0.152 -2.51,-0.457c-0.755,-0.304 -1.407,-0.744 -1.956,-1.319c-0.55,-0.575 -0.976,-1.276 -1.28,-2.105c-0.303,-0.829 -0.455,-1.767 -0.455,-2.816l0,-0.152c0,-0.964 0.16,-1.843 0.48,-2.638c0.32,-0.795 0.759,-1.471 1.316,-2.029c0.558,-0.558 1.21,-0.994 1.956,-1.307c0.747,-0.312 1.546,-0.469 2.399,-0.469c1.05,0 1.952,0.19 2.707,0.571c0.754,0.38 1.378,0.862 1.87,1.446c0.492,0.583 0.853,1.226 1.083,1.928c0.229,0.701 0.344,1.382 0.344,2.042l0,1.699l-8.956,0Zm2.928,-4.794c-0.788,-0 -1.427,0.207 -1.919,0.621c-0.493,0.415 -0.812,0.892 -0.96,1.434l5.758,-0c-0.099,-0.592 -0.406,-1.083 -0.923,-1.472c-0.517,-0.389 -1.169,-0.583 -1.956,-0.583Z" style="fill:#c40851;fill-rule:nonzero;"/>
    <path d="M219.2,65.237l-0.443,0c-0.131,0.288 -0.291,0.563 -0.479,0.825c-0.189,0.262 -0.435,0.494 -0.739,0.697c-0.303,0.203 -0.664,0.364 -1.082,0.482c-0.418,0.119 -0.923,0.178 -1.513,0.178c-0.755,-0 -1.456,-0.14 -2.104,-0.419c-0.648,-0.279 -1.214,-0.693 -1.698,-1.243c-0.484,-0.549 -0.861,-1.221 -1.132,-2.016c-0.27,-0.795 -0.406,-1.708 -0.406,-2.74l0,-0.456c0,-1.015 0.144,-1.92 0.431,-2.714c0.287,-0.795 0.681,-1.467 1.181,-2.017c0.5,-0.55 1.083,-0.968 1.747,-1.256c0.664,-0.287 1.365,-0.431 2.104,-0.431c0.984,0 1.763,0.19 2.337,0.571c0.574,0.38 1.025,0.917 1.353,1.611l0.443,-0l0,-7.001l3.101,-0l-0,17.756l-3.101,-0l0,-1.827Zm-3.248,-0.862c0.968,0 1.751,-0.317 2.35,-0.951c0.599,-0.634 0.898,-1.467 0.898,-2.499l0,-0.304c0,-1.032 -0.299,-1.865 -0.898,-2.499c-0.599,-0.634 -1.382,-0.951 -2.35,-0.951c-0.967,0 -1.751,0.309 -2.349,0.926c-0.599,0.617 -0.898,1.458 -0.898,2.524l-0,0.304c-0,1.066 0.299,1.907 0.898,2.524c0.598,0.617 1.382,0.926 2.349,0.926Z" style="fill:#c40851;fill-rule:nonzero;"/>
    <path d="M75.684,41.245c-0.35,0 -0.652,-0.126 -0.905,-0.379c-0.253,-0.253 -0.379,-0.555 -0.379,-0.905c-0,-0.156 0.019,-0.292 0.058,-0.409l13.021,-37.253c0.117,-0.428 0.389,-0.856 0.818,-1.284c0.428,-0.428 1.031,-0.643 1.81,-0.643l12.67,0c0.779,0 1.382,0.215 1.81,0.643c0.428,0.428 0.701,0.856 0.818,1.284l13.021,37.253c0.038,0.117 0.058,0.253 0.058,0.409c-0,0.35 -0.127,0.652 -0.38,0.905c-0.253,0.253 -0.554,0.379 -0.905,0.379l-10.802,0c-0.739,0 -1.275,-0.165 -1.605,-0.496c-0.331,-0.331 -0.555,-0.652 -0.672,-0.964l-1.401,-3.853l-12.554,-0l-1.401,3.853c-0.117,0.312 -0.331,0.633 -0.643,0.964c-0.311,0.331 -0.856,0.496 -1.635,0.496l-10.802,0Zm17.459,-16.699l6.598,-0l-3.328,-10.861l-3.27,10.861Z" style="fill:#07042d;fill-rule:nonzero;"/>
    <path d="M132.205,41.245c-0.428,0 -0.798,-0.156 -1.109,-0.467c-0.311,-0.311 -0.467,-0.681 -0.467,-1.109l-0,-23.59l-6.54,5.022c-0.389,0.272 -0.778,0.36 -1.167,0.263c-0.39,-0.098 -0.74,-0.341 -1.051,-0.73l-5.139,-6.657c-0.194,-0.389 -0.253,-0.807 -0.175,-1.255c0.078,-0.448 0.311,-0.788 0.701,-1.022l14.072,-10.919c0.194,-0.155 0.389,-0.263 0.584,-0.321c0.194,-0.058 0.428,-0.088 0.7,-0.088l11.036,0c0.428,0 0.798,0.156 1.109,0.468c0.312,0.311 0.467,0.681 0.467,1.109l0,37.72c0,0.428 -0.155,0.798 -0.467,1.109c-0.311,0.311 -0.681,0.467 -1.109,0.467l-11.445,0Z" style="fill:#07042d;fill-rule:nonzero;"/>
    <path d="M164.728,41.245c-0.428,0 -0.798,-0.156 -1.109,-0.467c-0.311,-0.311 -0.467,-0.681 -0.467,-1.109l-0,-23.59l-6.54,5.022c-0.389,0.272 -0.778,0.36 -1.168,0.263c-0.389,-0.098 -0.739,-0.341 -1.051,-0.73l-5.138,-6.657c-0.194,-0.389 -0.253,-0.807 -0.175,-1.255c0.078,-0.448 0.311,-0.788 0.701,-1.022l14.072,-10.919c0.194,-0.155 0.389,-0.263 0.583,-0.321c0.195,-0.058 0.429,-0.088 0.701,-0.088l11.036,0c0.428,0 0.798,0.156 1.109,0.468c0.312,0.311 0.467,0.681 0.467,1.109l0,37.72c0,0.428 -0.155,0.798 -0.467,1.109c-0.311,0.311 -0.681,0.467 -1.109,0.467l-11.445,0Z" style="fill:#07042d;fill-rule:nonzero;"/>
    <path d="M196.025,41.245c-0.428,0 -0.798,-0.156 -1.109,-0.467c-0.312,-0.311 -0.467,-0.681 -0.467,-1.109l-0,-11.503l-13.138,-25.983c-0.039,-0.078 -0.068,-0.166 -0.088,-0.263c-0.019,-0.098 -0.029,-0.185 -0.029,-0.263c0,-0.35 0.127,-0.652 0.38,-0.905c0.253,-0.253 0.555,-0.38 0.905,-0.38l10.977,0c0.779,0 1.363,0.195 1.752,0.584c0.389,0.39 0.623,0.682 0.7,0.876l5.839,11.737l5.839,-11.737c0.078,-0.194 0.312,-0.486 0.701,-0.876c0.389,-0.389 0.973,-0.584 1.752,-0.584l10.977,0c0.35,0 0.652,0.127 0.905,0.38c0.253,0.253 0.38,0.555 0.38,0.905c-0,0.078 -0.01,0.165 -0.03,0.263c-0.019,0.097 -0.048,0.185 -0.087,0.263l-13.138,25.983l0,11.503c0,0.428 -0.156,0.798 -0.467,1.109c-0.311,0.311 -0.681,0.467 -1.109,0.467l-11.445,0Z" style="fill:#07042d;fill-rule:nonzero;"/>
</svg>
