<?xml version="1.0" encoding="UTF-8" standalone="no"?>
<!DOCTYPE svg PUBLIC "-//W3C//DTD SVG 1.1//EN" "http://www.w3.org/Graphics/SVG/1.1/DTD/svg11.dtd">
<svg width="100%" height="100%" viewBox="0 0 263 70" version="1.1" xmlns="http://www.w3.org/2000/svg" xmlns:xlink="http://www.w3.org/1999/xlink" xml:space="preserve" xmlns:serif="http://www.serif.com/" style="fill-rule:evenodd;clip-rule:evenodd;stroke-linejoin:round;stroke-miterlimit:2;">
    <path d="M0.005,35.616c0,-6.435 1.26,-12.25 3.78,-17.444c2.52,-5.195 6.241,-9.323 11.165,-12.386c4.923,-3.062 10.835,-4.594 17.735,-4.594c3.334,0 6.202,0.31 8.606,0.931c2.403,0.62 5.272,1.473 8.606,2.558l-0.465,17.91l-7.56,0l-2.558,-11.862c-0.465,-2.171 -3.412,-3.257 -8.839,-3.257c-5.427,0 -9.711,2.191 -12.851,6.571c-3.14,4.381 -4.71,10.603 -4.71,18.666c0,9.149 1.764,16.107 5.292,20.875c3.528,4.768 8.121,7.152 13.781,7.152c3.256,0 6.338,-0.504 9.246,-1.511c2.907,-1.008 5.408,-2.21 7.501,-3.606l2.21,4.652c-2.094,2.171 -5.176,4.129 -9.246,5.873c-4.07,1.745 -8.199,2.617 -12.386,2.617c-6.357,0 -11.726,-1.434 -16.107,-4.303c-4.38,-2.869 -7.675,-6.803 -9.885,-11.804c-2.21,-5.001 -3.315,-10.68 -3.315,-17.038Z" style="fill-rule:nonzero;"/>
    <path d="M138.748,11.892l-8.373,-2.094l0,-6.28l16.63,-2.093l0.349,0l2.442,2.093l0,4.885l-0.116,2.791c2.791,-2.481 6.474,-4.73 11.048,-6.745c4.574,-2.016 8.955,-3.024 13.142,-3.024c4.884,0 8.664,0.93 11.339,2.791c2.674,1.861 4.555,4.71 5.64,8.548c1.086,3.838 1.628,9.013 1.628,15.526l-0,32.563l8.141,0.814l-0,5.815l-27.562,0l-0,-5.699l7.21,-0.93l-0,-32.68c-0,-4.574 -0.31,-8.16 -0.93,-10.757c-0.621,-2.598 -1.784,-4.536 -3.489,-5.815c-1.706,-1.279 -4.187,-1.919 -7.443,-1.919c-2.791,0 -5.776,0.698 -8.955,2.093c-3.179,1.396 -6.009,3.024 -8.49,4.885l-0,44.076l7.908,1.047l-0,5.699l-27.446,0l-0,-5.699l7.327,-1.047l-0,-48.844Z" style="fill-rule:nonzero;"/>
    <path d="M237.601,68.761c-9.382,0 -16.534,-3.063 -21.457,-9.188c-4.924,-6.125 -7.385,-14.304 -7.385,-24.538c0,-6.745 1.279,-12.677 3.838,-17.794c2.558,-5.117 6.144,-9.071 10.757,-11.862c4.613,-2.791 9.866,-4.187 15.758,-4.187c7.211,0 12.812,1.997 16.805,5.99c3.993,3.992 6.106,9.71 6.339,17.153c0,4.73 -0.272,8.335 -0.815,10.816l-40.006,0c0.155,7.676 1.939,13.859 5.35,18.549c3.411,4.691 8.257,7.036 14.537,7.036c3.101,0 6.338,-0.562 9.711,-1.686c3.372,-1.124 5.989,-2.461 7.85,-4.012l2.21,5.117c-2.249,2.326 -5.583,4.342 -10.002,6.047c-4.419,1.706 -8.916,2.559 -13.49,2.559Zm11.862,-39.774c0.232,-1.628 0.349,-3.295 0.349,-5c-0.078,-5.04 -1.144,-9.013 -3.198,-11.921c-2.055,-2.907 -5.292,-4.361 -9.711,-4.361c-4.497,0 -8.083,1.628 -10.758,4.884c-2.675,3.257 -4.206,8.723 -4.593,16.398l27.911,0Z" style="fill-rule:nonzero;"/>
    <path d="M92.487,69.4c-4.013,0 -7.858,-0.644 -11.404,-1.822c2.403,-5.44 8.683,-9.994 11.404,-11.778c2.724,1.784 9.002,6.34 11.403,11.778c-3.545,1.178 -7.388,1.822 -11.403,1.822Zm-32.107,-27.099c10.007,1.572 19.527,5.218 27.845,10.663c-3.484,2.453 -9.094,7.057 -11.663,12.749c-9.394,-4.692 -15.825,-13.397 -16.182,-23.412Zm48.032,23.412c-2.57,-5.692 -8.178,-10.295 -11.664,-12.749c8.319,-5.445 17.84,-9.091 27.845,-10.663c-0.357,10.015 -6.786,18.72 -16.181,23.412Zm-15.925,-30.8c2.312,1.486 7.24,4.972 10.135,9.358c-3.531,1.685 -6.923,3.639 -10.135,5.851c-3.212,-2.212 -6.603,-4.166 -10.133,-5.851c2.894,-4.387 7.822,-7.872 10.133,-9.358Zm28.957,3.219c-4.921,0.928 -9.72,2.326 -14.32,4.166c-1.396,-2.226 -3.195,-4.23 -5.021,-5.939c4.316,-6.643 13.677,-9.473 17.821,-10.432c0.782,2.53 1.945,7.295 1.52,12.205Zm-56.393,-12.205c4.146,0.959 13.505,3.79 17.82,10.432c-1.825,1.709 -3.624,3.713 -5.02,5.939c-4.6,-1.84 -9.399,-3.238 -14.322,-4.166c-0.425,-4.91 0.74,-9.675 1.522,-12.205Zm17.561,3.048c2.899,-4.747 7.572,-8.505 9.878,-10.182c2.304,1.674 6.969,5.419 9.873,10.182c-1.483,1.232 -2.846,2.643 -3.996,4.255c-2.479,-1.867 -4.43,-2.972 -4.613,-3.075c-0.781,-0.438 -1.754,-0.438 -2.534,-0c-0.184,0.103 -2.133,1.208 -4.612,3.075c-1.149,-1.612 -2.513,-3.021 -3.996,-4.255Zm-6.729,-19.45c2.573,1.011 7.756,3.332 11.807,6.943c-2.682,2.135 -6.391,5.529 -9.069,9.726c-3.338,-1.96 -6.821,-3.238 -9.575,-4.045c1.423,-5.442 5.03,-10.389 6.837,-12.624Zm33.219,0.001c1.808,2.23 5.409,7.165 6.833,12.621c-2.757,0.806 -6.241,2.086 -9.583,4.045c-2.676,-4.193 -6.381,-7.586 -9.063,-9.721c4.042,-3.602 9.239,-5.93 11.813,-6.945Zm-16.614,-9.525c2.039,1.344 6.056,4.239 8.976,7.901c-2.684,1.449 -5.665,3.376 -8.229,5.804c-0.485,-0.146 -1.007,-0.146 -1.491,-0.002c-2.566,-2.427 -5.547,-4.355 -8.231,-5.804c2.917,-3.651 6.938,-6.552 8.975,-7.899Z" style="fill-rule:nonzero;"/>
</svg>
