<?xml version="1.0" encoding="UTF-8" standalone="no"?>
<!DOCTYPE svg PUBLIC "-//W3C//DTD SVG 1.1//EN" "http://www.w3.org/Graphics/SVG/1.1/DTD/svg11.dtd">
<svg width="100%" height="100%" viewBox="0 0 895 227" version="1.1" xmlns="http://www.w3.org/2000/svg" xmlns:xlink="http://www.w3.org/1999/xlink" xml:space="preserve" xmlns:serif="http://www.serif.com/" style="fill-rule:evenodd;clip-rule:evenodd;stroke-linejoin:round;stroke-miterlimit:2;">
    <path d="M885.572,217.442c11.529,-11.534 11.529,-30.229 0,-41.759l-167.033,-167.033c-1.442,-1.441 -2.996,-2.704 -4.634,-3.783c-1.637,-1.084 -3.358,-1.984 -5.133,-2.704c-0.888,-0.359 -1.792,-0.676 -2.704,-0.946c-2.742,-0.809 -5.575,-1.217 -8.409,-1.217c-3.779,0 -7.554,0.721 -11.112,2.163c-3.554,1.441 -6.884,3.604 -9.767,6.487l-146.154,146.154l-146.154,-146.154c-1.8,-1.804 -3.779,-3.321 -5.875,-4.562c-2.096,-1.238 -4.313,-2.196 -6.596,-2.871c-1.825,-0.538 -3.696,-0.9 -5.575,-1.079c-0.942,-0.092 -1.887,-0.138 -2.833,-0.138c-1.888,0 -3.779,0.183 -5.638,0.542c-1.862,0.358 -3.696,0.9 -5.471,1.621c-1.779,0.72 -3.5,1.62 -5.137,2.704c-1.638,1.079 -3.192,2.342 -4.633,3.783l-146.155,146.154l-146.154,-146.154c-11.529,-11.529 -30.225,-11.529 -41.758,0c-11.529,11.529 -11.529,30.225 0,41.758l167.033,167.034c2.163,2.162 4.579,3.916 7.15,5.271c1.713,0.899 3.496,1.62 5.325,2.162c2.738,0.808 5.571,1.213 8.404,1.213c1.892,0 3.779,-0.18 5.642,-0.538c1.171,-0.229 2.325,-0.55 3.467,-0.921c1.291,-0.421 2.558,-0.933 3.795,-1.533c1.438,-0.7 2.834,-1.517 4.171,-2.454c1.338,-0.942 2.609,-2.004 3.804,-3.2l0.005,0l146.15,-146.154l146.154,146.154c2.162,2.162 4.579,3.916 7.15,5.271c1.491,0.783 3.042,1.404 4.621,1.916c1.145,0.371 2.295,0.692 3.47,0.921c1.859,0.358 3.75,0.538 5.638,0.538c2.833,0 5.667,-0.405 8.408,-1.213c1.825,-0.542 3.609,-1.263 5.325,-2.162c2.571,-1.355 4.984,-3.109 7.146,-5.271l146.154,-146.154l146.154,146.154c11.534,11.529 30.23,11.529 41.759,0Z" style="fill:#c40851;fill-rule:nonzero;"/>
</svg>
