<?xml version="1.0" encoding="UTF-8" standalone="no"?>
<!DOCTYPE svg PUBLIC "-//W3C//DTD SVG 1.1//EN" "http://www.w3.org/Graphics/SVG/1.1/DTD/svg11.dtd">
<svg width="100%" height="100%" viewBox="0 0 237 68" version="1.1" xmlns="http://www.w3.org/2000/svg" xmlns:xlink="http://www.w3.org/1999/xlink" xml:space="preserve" xmlns:serif="http://www.serif.com/" style="fill-rule:evenodd;clip-rule:evenodd;stroke-linejoin:round;stroke-miterlimit:2;">
    <g>
        <path d="M36.966,64.691l-21.564,0l0,3.08l21.564,0l0,-3.08Zm-21.564,-3.081l-6.161,0l0,3.08l6.161,0l0,-3.08Zm27.725,0l-6.161,0l0,3.08l6.161,0l0,-3.08Zm3.08,-3.08l-3.08,0l0,3.08l3.08,0l0,-3.08Zm-36.966,0l-3.08,0l0,3.08l3.08,0l0,-3.08Zm40.046,-6.161l-3.08,0l0,6.161l3.08,0l0,-6.161Zm-43.127,0l-3.08,0l0,6.161l3.08,0l0,-6.161Zm46.208,-9.241l-3.08,0l0,9.241l3.08,0l0,-9.241Zm-49.288,0l-3.08,0l0,9.241l3.08,0l0,-9.241Zm46.207,-3.081l-3.08,0l0,3.081l3.08,0l0,-3.081Zm-43.127,0l-3.08,0l0,3.081l3.08,0l0,-3.081Zm40.047,-3.081l-3.08,0l0,3.08l3.08,0l0,-3.08Zm-36.966,0l-3.08,0l0,3.08l3.08,0l0,-3.08Zm33.886,-3.08l-3.08,0l0,3.08l3.08,0l0,-3.08Zm-30.806,0l-3.08,0l0,3.08l3.08,0l0,-3.08Zm6.162,-3.081l-6.161,0l0,3.08l6.161,0l0,-3.08Zm21.564,-0l-6.161,-0l0,3.08l6.161,0l0,-3.08Zm-6.161,-3.08l-3.081,-0l0,3.08l3.081,-0l0,-3.08Zm-18.484,-9.242l3.081,-0l0,12.322l3.08,-0l0,-12.322l9.242,-0l0,9.241l3.081,-0l0,-9.241l3.08,-0l0,-3.081l-21.564,-0l0,3.081Zm24.644,-6.161l-3.08,-0l0,3.08l3.08,-0l0,-3.08Zm-24.644,-0l-3.08,-0l0,3.08l3.08,-0l0,-3.08Zm6.161,-9.242l-3.08,-0l0,6.161l-3.081,-0l0,3.08l21.564,-0l0,-3.08l-3.08,-0l0,-6.161l-3.081,-0l0,6.161l-9.242,-0l0,-6.161l9.241,-0l0,-3.08l-9.241,-0l0,3.08Z"/>
        <path d="M12.322,58.53l-0,-3.081l-3.081,0l-0,-6.16l-3.08,0l-0,-6.161l-3.081,0l-0,9.241l3.081,0l-0,6.161l3.08,0l-0,3.08l33.886,0l0,-3.08l3.08,0l0,-6.161l3.081,0l0,-9.241l-12.322,0l0,9.241l-3.08,0l0,3.08l-3.081,0l0,3.081l-18.483,0Z" style="fill:#ce1f56;fill-rule:nonzero;"/>
        <rect x="15.402" y="61.61" width="21.564" height="3.08" style="fill:#ba1c4e;"/>
        <path d="M12.322,40.047l30.805,-0l-0,-3.081l-3.08,-0l-0,-3.08l-12.322,-0l-0,-3.081l-3.081,-0l-0,-12.322l-3.081,-0l-0,12.322l-3.08,-0l-0,3.081l-3.081,-0l-0,3.08l15.403,-0l-18.483,-0l-0,3.081Z" style="fill:#5faa77;fill-rule:nonzero;"/>
        <rect x="24.644" y="18.483" width="3.081" height="12.322" style="fill:#e6e2ad;"/>
        <rect x="21.563" y="30.805" width="3.08" height="3.08" style="fill:#e6e2ad;"/>
        <rect x="21.563" y="6.161" width="9.241" height="3.08" style="fill:#c9704f;"/>
        <rect x="27.725" y="3.08" width="3.08" height="3.08" style="fill:#c9704f;"/>
        <rect x="21.563" y="3.08" width="6.162" height="3.08" style="fill:#eda661;"/>
        <path d="M12.322,55.449l-0,3.081l18.483,0l0,-3.081l3.081,0l0,-3.08l3.08,0l0,-9.241l-3.08,0l0,3.08l-3.081,0l0,-3.08l-24.644,0l0,6.161l3.08,0l0,6.16l3.081,0Zm30.805,-3.08l-3.08,0l-0,3.08l3.08,0l-0,-3.08Zm3.08,-6.161l-3.08,0l-0,3.081l3.08,0l-0,-3.081Zm-0,-3.08l-0,-3.081l-9.241,0l-0,3.081l9.241,0Z" style="fill:#e55381;fill-rule:nonzero;"/>
        <path d="M27.725,55.449l-3.081,0l0,3.08l3.081,0l0,-3.08Zm-6.162,-9.241l-3.08,0l0,3.08l3.08,0l0,-3.08Zm-12.322,0l-3.08,0l0,3.08l3.08,0l0,-3.08Zm-3.08,-3.08l24.644,0l-0,3.08l3.081,0l0,-3.08l3.08,0l0,-3.081l-30.805,0l0,3.081Z" style="fill:#e58faa;"/>
        <path d="M18.483,52.369l-3.081,0l0,3.08l3.081,0l0,-3.08Zm-6.161,-12.322l0,12.322l3.08,0l0,-12.322l-3.08,0Zm6.161,-3.081l-3.081,0l0,3.081l3.081,0l0,-3.081Z" style="fill:#ffffeb;fill-rule:nonzero;"/>
        <path d="M30.805,36.966l3.081,0l0,3.081l6.161,0l0,-3.081l-3.081,0l0,-3.08l-3.08,0l0,-3.081l-3.081,0l0,-12.322l-3.08,0l0,15.403l3.08,0l0,3.08Zm-18.483,0l-3.081,0l0,3.081l3.081,0l0,-3.081Zm3.08,-3.08l-3.08,0l0,3.08l3.08,0l0,-3.08Zm21.564,-18.484l0,-3.08l-21.564,0l0,3.08l21.564,0Z" style="fill:#195b4e;fill-rule:nonzero;"/>
    </g>
    <g>
        <g>
            <path d="M81.755,19.472c1.858,0.758 2.787,2.102 2.787,4.058c0,1.638 -0.611,2.91 -1.833,3.839c-1.223,0.904 -2.91,1.369 -5.037,1.369l-7.481,-0l-0,-17.897l6.87,-0c1.931,-0 3.496,0.44 4.743,1.296c1.247,0.856 1.858,2.127 1.858,3.765c0,1.589 -0.636,2.787 -1.907,3.57Zm-7.481,-5.037l-0,3.521l2.445,-0c0.806,-0 1.442,-0.171 1.907,-0.514c0.464,-0.342 0.709,-0.807 0.709,-1.369c-0,-0.538 -0.22,-0.953 -0.685,-1.222c-0.464,-0.269 -1.1,-0.416 -1.931,-0.416l-2.445,0Zm3.154,10.684c0.88,0 1.564,-0.146 2.053,-0.464c0.489,-0.318 0.734,-0.782 0.734,-1.369c-0,-0.587 -0.245,-1.052 -0.758,-1.369c-0.489,-0.343 -1.174,-0.514 -2.054,-0.514l-3.129,0l-0,3.716l3.154,0Z" style="fill:#fff;fill-rule:nonzero;"/>
        </g>
        <g>
            <rect x="87.134" y="10.841" width="4.181" height="17.897" style="fill:#fff;"/>
        </g>
        <g>
            <path d="M93.246,10.841l14.915,-0l-0,3.692l-5.379,-0l-0,14.205l-4.157,-0l0,-14.205l-5.379,-0l0,-3.692Z" style="fill:#fff;fill-rule:nonzero;"/>
        </g>
        <g>
            <path d="M121.265,21.525l-6.992,0l-0,3.594l8.093,0l-0,3.619l-12.274,-0l0,-17.897l11.98,-0l0,3.594l-7.799,0l-0,3.521l6.992,-0l0,3.569Z" style="fill:#fff;fill-rule:nonzero;"/>
        </g>
        <g>
            <rect x="124.712" y="19.692" width="9.315" height="3.325" style="fill:#fff;"/>
        </g>
        <g>
            <path d="M149.602,23.481c0,1.321 -0.342,2.396 -1.027,3.228c-0.709,0.831 -1.564,1.418 -2.616,1.809c-1.051,0.342 -2.102,0.538 -3.203,0.538c-1.638,-0 -3.153,-0.391 -4.523,-1.149c-1.369,-0.758 -2.273,-1.834 -2.738,-3.277l3.374,-1.931c0.367,0.831 0.88,1.467 1.589,1.931c0.685,0.465 1.492,0.685 2.445,0.685c0.709,0 1.272,-0.147 1.712,-0.416c0.415,-0.269 0.635,-0.66 0.635,-1.173c0,-0.416 -0.146,-0.783 -0.44,-1.052c-0.293,-0.268 -0.66,-0.513 -1.1,-0.684c-0.44,-0.171 -1.051,-0.391 -1.858,-0.611c-1.174,-0.343 -2.127,-0.685 -2.861,-1.027c-0.758,-0.343 -1.393,-0.856 -1.931,-1.565c-0.538,-0.685 -0.807,-1.589 -0.807,-2.714c-0,-1.247 0.318,-2.274 0.978,-3.105c0.636,-0.831 1.467,-1.442 2.518,-1.858c1.027,-0.416 2.127,-0.611 3.325,-0.611c1.565,-0 2.934,0.366 4.108,1.075c1.173,0.709 1.931,1.736 2.274,3.057l-3.423,1.931c-0.269,-0.733 -0.66,-1.296 -1.198,-1.711c-0.563,-0.416 -1.223,-0.612 -2.005,-0.612c-0.66,0 -1.198,0.147 -1.614,0.465c-0.415,0.318 -0.636,0.709 -0.636,1.198c0,0.367 0.147,0.685 0.441,0.954c0.269,0.268 0.635,0.464 1.051,0.635c0.416,0.171 1.027,0.367 1.809,0.611c1.198,0.367 2.176,0.709 2.934,1.052c0.758,0.367 1.394,0.88 1.956,1.589c0.562,0.709 0.831,1.614 0.831,2.738Z" style="fill:#fff;fill-rule:nonzero;"/>
        </g>
        <g>
            <rect x="151.828" y="10.841" width="4.181" height="17.897" style="fill:#fff;"/>
        </g>
        <g>
            <path d="M171.656,10.841l-0,2.372l-7.751,11.809l8.093,-0l0,3.716l-13.912,-0l0,-2.372l7.8,-11.833l-7.042,-0l0,-3.692l12.812,-0Z" style="fill:#fff;fill-rule:nonzero;"/>
        </g>
        <g>
            <path d="M185.323,21.525l-6.993,0l0,3.594l8.093,0l0,3.619l-12.273,-0l-0,-17.897l11.98,-0l-0,3.594l-7.8,0l0,3.521l6.993,-0l0,3.569Z" style="fill:#fff;fill-rule:nonzero;"/>
        </g>
        <g>
            <path d="M195.616,10.841c1.736,-0 3.326,0.342 4.744,1.051c1.418,0.709 2.542,1.712 3.349,3.056c0.832,1.345 1.247,2.959 1.247,4.817c0,1.858 -0.415,3.472 -1.247,4.817c-0.807,1.344 -1.931,2.371 -3.349,3.08c-1.394,0.709 -2.983,1.076 -4.744,1.076l-6.454,-0l-0,-17.897l6.454,-0Zm-0.464,14.376c1.785,0 3.129,-0.464 4.034,-1.418c0.905,-0.953 1.369,-2.298 1.369,-4.034c0,-1.736 -0.464,-3.056 -1.393,-4.01c-0.905,-0.929 -2.25,-1.393 -4.01,-1.393l-1.809,-0l-0,10.855l1.809,0Z" style="fill:#fff;fill-rule:nonzero;"/>
        </g>
        <g>
            <path d="M77.305,39.818l7.188,17.897l-2.42,-0l-1.98,-5.134l-7.409,-0l-1.882,5.134l-2.201,-0l6.871,-17.897l1.833,0Zm2.03,10.807l-3.032,-7.897l-2.885,7.897l5.917,-0Z" style="fill:#fff;fill-rule:nonzero;"/>
        </g>
        <g>
            <path d="M93.173,55.979c1.956,0 3.399,-0.905 4.303,-2.714l1.761,1.027c-0.514,1.149 -1.296,2.054 -2.348,2.714c-1.051,0.66 -2.273,0.978 -3.667,0.978c-1.516,-0 -2.885,-0.391 -4.132,-1.174c-1.247,-0.782 -2.225,-1.882 -2.934,-3.276c-0.709,-1.393 -1.076,-3.007 -1.076,-4.792c0,-1.785 0.367,-3.398 1.076,-4.792c0.709,-1.394 1.687,-2.494 2.934,-3.276c1.247,-0.758 2.616,-1.149 4.132,-1.149c1.394,-0 2.616,0.317 3.667,0.978c1.052,0.66 1.834,1.564 2.348,2.713l-1.761,1.027c-0.904,-1.809 -2.347,-2.714 -4.303,-2.714c-1.149,0 -2.151,0.294 -3.032,0.905c-0.88,0.611 -1.564,1.443 -2.029,2.543c-0.489,1.1 -0.733,2.347 -0.733,3.765c-0,1.418 0.244,2.665 0.733,3.765c0.465,1.1 1.149,1.956 2.029,2.567c0.881,0.612 1.883,0.905 3.032,0.905Z" style="fill:#fff;fill-rule:nonzero;"/>
        </g>
        <g>
            <path d="M108.747,55.979c1.956,0 3.399,-0.905 4.303,-2.714l1.761,1.027c-0.514,1.149 -1.296,2.054 -2.347,2.714c-1.052,0.66 -2.274,0.978 -3.668,0.978c-1.516,-0 -2.885,-0.391 -4.132,-1.174c-1.247,-0.782 -2.225,-1.882 -2.934,-3.276c-0.709,-1.393 -1.075,-3.007 -1.075,-4.792c-0,-1.785 0.366,-3.398 1.075,-4.792c0.709,-1.394 1.687,-2.494 2.934,-3.276c1.247,-0.758 2.616,-1.149 4.132,-1.149c1.394,-0 2.616,0.317 3.668,0.978c1.051,0.66 1.833,1.564 2.347,2.713l-1.761,1.027c-0.904,-1.809 -2.347,-2.714 -4.303,-2.714c-1.149,0 -2.151,0.294 -3.031,0.905c-0.881,0.611 -1.565,1.443 -2.03,2.543c-0.489,1.1 -0.733,2.347 -0.733,3.765c-0,1.418 0.244,2.665 0.733,3.765c0.465,1.1 1.149,1.956 2.03,2.567c0.88,0.612 1.882,0.905 3.031,0.905Z" style="fill:#fff;fill-rule:nonzero;"/>
        </g>
        <g>
            <path d="M127.524,49.427l-7.872,-0l-0,6.356l9.07,0l0,1.932l-11.246,-0l-0,-17.921l10.977,-0l0,1.931l-8.801,0l-0,5.77l7.872,0l0,1.932Z" style="fill:#fff;fill-rule:nonzero;"/>
        </g>
        <g>
            <path d="M143.295,52.752c-0,1.027 -0.245,1.931 -0.709,2.738c-0.465,0.782 -1.174,1.394 -2.079,1.834c-0.904,0.44 -2.004,0.66 -3.251,0.66c-1.736,-0 -3.228,-0.416 -4.475,-1.223c-1.246,-0.806 -2.053,-1.907 -2.445,-3.251l1.761,-1.027c0.44,1.124 1.1,1.98 1.956,2.591c0.856,0.612 1.931,0.905 3.227,0.905c1.174,0 2.078,-0.269 2.738,-0.782c0.661,-0.514 0.978,-1.247 0.978,-2.176c0,-0.758 -0.195,-1.345 -0.611,-1.81c-0.415,-0.464 -0.904,-0.831 -1.491,-1.1c-0.611,-0.269 -1.418,-0.538 -2.47,-0.856c-1.149,-0.342 -2.078,-0.66 -2.787,-0.977c-0.709,-0.318 -1.32,-0.783 -1.809,-1.394c-0.489,-0.611 -0.734,-1.443 -0.734,-2.445c0,-1.027 0.269,-1.907 0.783,-2.641c0.513,-0.757 1.247,-1.32 2.176,-1.711c0.904,-0.367 1.931,-0.562 3.08,-0.562c1.59,-0 2.885,0.342 3.888,1.051c0.978,0.709 1.638,1.589 1.98,2.665l-1.76,1.027c-0.367,-0.856 -0.88,-1.54 -1.54,-2.029c-0.661,-0.489 -1.541,-0.734 -2.641,-0.734c-1.1,0 -2.005,0.245 -2.665,0.758c-0.66,0.489 -1.002,1.149 -1.002,1.98c-0,0.612 0.195,1.125 0.562,1.516c0.367,0.391 0.807,0.709 1.369,0.929c0.562,0.22 1.32,0.489 2.274,0.758c1.222,0.367 2.2,0.709 2.958,1.052c0.758,0.342 1.394,0.855 1.932,1.54c0.538,0.684 0.807,1.589 0.807,2.714Z" style="fill:#fff;fill-rule:nonzero;"/>
        </g>
        <g>
            <path d="M157.842,52.752c-0,1.027 -0.245,1.931 -0.709,2.738c-0.465,0.782 -1.174,1.394 -2.078,1.834c-0.905,0.44 -2.005,0.66 -3.252,0.66c-1.736,-0 -3.227,-0.416 -4.474,-1.223c-1.247,-0.806 -2.054,-1.907 -2.445,-3.251l1.76,-1.027c0.44,1.124 1.1,1.98 1.956,2.591c0.856,0.612 1.931,0.905 3.227,0.905c1.174,0 2.078,-0.269 2.739,-0.782c0.66,-0.514 0.978,-1.247 0.978,-2.176c-0,-0.758 -0.196,-1.345 -0.612,-1.81c-0.415,-0.464 -0.904,-0.831 -1.491,-1.1c-0.611,-0.269 -1.418,-0.538 -2.469,-0.856c-1.15,-0.342 -2.079,-0.66 -2.788,-0.977c-0.709,-0.318 -1.32,-0.783 -1.809,-1.394c-0.489,-0.611 -0.733,-1.443 -0.733,-2.445c-0,-1.027 0.269,-1.907 0.782,-2.641c0.513,-0.757 1.247,-1.32 2.176,-1.711c0.905,-0.367 1.931,-0.562 3.081,-0.562c1.589,-0 2.885,0.342 3.887,1.051c0.978,0.709 1.638,1.589 1.98,2.665l-1.76,1.027c-0.367,-0.856 -0.88,-1.54 -1.54,-2.029c-0.66,-0.489 -1.541,-0.734 -2.641,-0.734c-1.1,0 -2.005,0.245 -2.665,0.758c-0.66,0.489 -1.002,1.149 -1.002,1.98c-0,0.612 0.195,1.125 0.562,1.516c0.367,0.391 0.807,0.709 1.369,0.929c0.563,0.22 1.321,0.489 2.274,0.758c1.223,0.367 2.201,0.709 2.959,1.052c0.757,0.342 1.393,0.855 1.931,1.54c0.538,0.684 0.807,1.589 0.807,2.714Z" style="fill:#fff;fill-rule:nonzero;"/>
        </g>
        <g>
            <rect x="160.605" y="39.818" width="2.176" height="17.897" style="fill:#fff;"/>
        </g>
        <g>
            <path d="M176.57,48.326c2.225,0.636 3.35,2.079 3.35,4.328c-0,1.589 -0.538,2.836 -1.638,3.741c-1.1,0.88 -2.714,1.32 -4.841,1.32l-6.406,-0l0,-17.897l5.648,0c1.247,0 2.347,0.196 3.276,0.587c0.929,0.391 1.638,0.953 2.152,1.687c0.513,0.733 0.758,1.589 0.758,2.567c-0,1.711 -0.758,2.934 -2.299,3.667Zm-7.359,-6.576l0,5.867l3.105,0c1.345,0 2.396,-0.269 3.13,-0.782c0.758,-0.513 1.124,-1.247 1.124,-2.176c0,-0.905 -0.366,-1.614 -1.124,-2.127c-0.758,-0.514 -1.785,-0.782 -3.13,-0.782l-3.105,-0Zm3.839,14.058c1.54,-0 2.665,-0.269 3.422,-0.831c0.758,-0.563 1.15,-1.321 1.15,-2.323c-0,-1.002 -0.392,-1.809 -1.15,-2.372c-0.757,-0.562 -1.882,-0.855 -3.422,-0.855l-3.839,-0l0,6.381l3.839,-0Z" style="fill:#fff;fill-rule:nonzero;"/>
        </g>
        <g>
            <rect x="182.951" y="39.818" width="2.176" height="17.897" style="fill:#fff;"/>
        </g>
        <g>
            <path d="M189.381,39.818l2.176,0l0,15.941l8.827,0l-0,1.956l-11.003,-0l0,-17.897Z" style="fill:#fff;fill-rule:nonzero;"/>
        </g>
        <g>
            <rect x="203.22" y="39.818" width="2.176" height="17.897" style="fill:#fff;"/>
        </g>
        <g>
            <path d="M207.816,39.818l13.3,0l0,1.932l-5.574,-0l0,15.965l-2.176,-0l0,-15.965l-5.55,-0l0,-1.932Z" style="fill:#fff;fill-rule:nonzero;"/>
        </g>
        <g>
            <path d="M229.209,47.935l4.719,-8.141l2.372,-0l-6.137,10.342l0,7.579l-2.176,-0l0,-7.653l-6.406,-10.268l2.592,-0l5.036,8.141Z" style="fill:#fff;fill-rule:nonzero;"/>
        </g>
    </g>
</svg>
