<?xml version="1.0" encoding="UTF-8" standalone="no"?>
<!DOCTYPE svg PUBLIC "-//W3C//DTD SVG 1.1//EN" "http://www.w3.org/Graphics/SVG/1.1/DTD/svg11.dtd">
<svg width="100%" height="100%" viewBox="0 0 213 68" version="1.1" xmlns="http://www.w3.org/2000/svg" xmlns:xlink="http://www.w3.org/1999/xlink" xml:space="preserve" xmlns:serif="http://www.serif.com/" style="fill-rule:evenodd;clip-rule:evenodd;stroke-linejoin:round;stroke-miterlimit:2;">
    <g id="Logo">
        <path d="M67.975,66.691l-3.101,0l0,-17.756l3.101,0l0,7.001l0.442,0c0.329,-0.693 0.804,-1.23 1.428,-1.611c0.623,-0.38 1.418,-0.57 2.386,-0.57c0.722,0 1.407,0.143 2.055,0.431c0.648,0.287 1.214,0.706 1.697,1.256c0.484,0.549 0.87,1.221 1.157,2.016c0.287,0.795 0.431,1.7 0.431,2.714l0,0.457c0,1.031 -0.14,1.945 -0.419,2.739c-0.279,0.795 -0.656,1.467 -1.132,2.017c-0.475,0.55 -1.037,0.964 -1.685,1.243c-0.648,0.279 -1.349,0.418 -2.104,0.418c-0.557,0 -1.041,-0.059 -1.451,-0.177c-0.411,-0.118 -0.767,-0.279 -1.071,-0.482c-0.303,-0.203 -0.558,-0.436 -0.763,-0.698c-0.205,-0.262 -0.381,-0.537 -0.529,-0.824l-0.442,0l0,1.826Zm3.247,-2.688c0.968,0 1.751,-0.309 2.35,-0.926c0.599,-0.618 0.898,-1.459 0.898,-2.524l0,-0.305c0,-1.065 -0.299,-1.906 -0.898,-2.524c-0.599,-0.617 -1.382,-0.925 -2.35,-0.925c-0.967,0 -1.751,0.317 -2.349,0.951c-0.599,0.634 -0.898,1.467 -0.898,2.498l0,0.305c0,1.031 0.299,1.864 0.898,2.498c0.598,0.634 1.382,0.952 2.349,0.952Z" style="fill:#e9002e;fill-rule:nonzero;"/>
        <path d="M80.671,63.647l4.133,0l0,-6.493l-3.838,0l0,-3.044l6.939,0l0,9.537l3.543,0l0,3.044l-10.777,0l0,-3.044Zm7.996,-13.266c0,0.338 -0.061,0.655 -0.184,0.951c-0.123,0.296 -0.291,0.55 -0.505,0.761c-0.213,0.212 -0.463,0.381 -0.75,0.508c-0.287,0.126 -0.586,0.19 -0.898,0.19c-0.328,-0 -0.632,-0.064 -0.91,-0.19c-0.279,-0.127 -0.525,-0.296 -0.739,-0.508c-0.213,-0.211 -0.381,-0.465 -0.504,-0.761c-0.123,-0.296 -0.185,-0.613 -0.185,-0.951c0,-0.338 0.062,-0.655 0.185,-0.951c0.123,-0.296 0.291,-0.55 0.504,-0.761c0.214,-0.212 0.46,-0.381 0.739,-0.508c0.278,-0.126 0.582,-0.19 0.91,-0.19c0.312,-0 0.611,0.064 0.898,0.19c0.287,0.127 0.537,0.296 0.75,0.508c0.214,0.211 0.382,0.465 0.505,0.761c0.123,0.296 0.184,0.613 0.184,0.951Z" style="fill:#e9002e;fill-rule:nonzero;"/>
        <path d="M95.163,54.11l3.617,0l0,-5.175l3.1,0l0,5.175l4.405,0l0,3.044l-4.405,0l0,5.732c0,0.508 0.222,0.761 0.665,0.761l3.297,0l0,3.044l-5.167,0c-0.558,0 -1.013,-0.186 -1.366,-0.558c-0.353,-0.372 -0.529,-0.845 -0.529,-1.42l0,-7.559l-3.617,0l0,-3.044Z" style="fill:#e9002e;fill-rule:nonzero;"/>
        <path d="M113.297,61.441c0.016,0.372 0.102,0.714 0.258,1.027c0.156,0.313 0.369,0.583 0.64,0.812c0.271,0.228 0.582,0.405 0.935,0.532c0.353,0.127 0.726,0.191 1.12,0.191c0.771,0 1.361,-0.14 1.771,-0.419c0.41,-0.279 0.705,-0.613 0.886,-1.002l2.657,1.522c-0.147,0.321 -0.352,0.655 -0.615,1.002c-0.262,0.347 -0.603,0.664 -1.021,0.951c-0.418,0.288 -0.927,0.524 -1.525,0.71c-0.599,0.186 -1.3,0.279 -2.104,0.279c-0.919,0 -1.755,-0.152 -2.51,-0.456c-0.754,-0.305 -1.407,-0.744 -1.956,-1.319c-0.55,-0.575 -0.976,-1.277 -1.279,-2.106c-0.304,-0.828 -0.456,-1.767 -0.456,-2.815l0,-0.152c0,-0.964 0.16,-1.844 0.48,-2.638c0.32,-0.795 0.759,-1.472 1.316,-2.03c0.558,-0.558 1.21,-0.993 1.957,-1.306c0.746,-0.313 1.546,-0.469 2.399,-0.469c1.049,0 1.952,0.19 2.706,0.57c0.755,0.381 1.378,0.863 1.87,1.446c0.492,0.584 0.853,1.226 1.083,1.928c0.229,0.702 0.344,1.383 0.344,2.042l0,1.7l-8.956,0Zm2.928,-4.795c-0.787,0 -1.427,0.208 -1.919,0.622c-0.492,0.414 -0.812,0.892 -0.96,1.433l5.758,0c-0.099,-0.592 -0.406,-1.082 -0.923,-1.471c-0.517,-0.389 -1.169,-0.584 -1.956,-0.584Z" style="fill:#e9002e;fill-rule:nonzero;"/>
        <rect x="127.396" y="58.27" width="7.677" height="2.892" style="fill:#e9002e;"/>
        <path d="M144.57,57.661c0,0.406 0.205,0.698 0.615,0.875c0.41,0.178 1.156,0.326 2.239,0.444c1.247,0.135 2.264,0.52 3.051,1.154c0.787,0.634 1.181,1.518 1.181,2.651l0,0.152c0,1.252 -0.443,2.249 -1.328,2.993c-0.886,0.744 -2.133,1.116 -3.74,1.116c-0.952,-0 -1.764,-0.126 -2.436,-0.38c-0.673,-0.254 -1.231,-0.571 -1.673,-0.951c-0.443,-0.381 -0.784,-0.804 -1.022,-1.269c-0.237,-0.465 -0.397,-0.917 -0.479,-1.357l2.854,-0.964c0.131,0.542 0.406,1.015 0.824,1.421c0.418,0.406 1.062,0.609 1.932,0.609c0.771,-0 1.3,-0.123 1.587,-0.368c0.287,-0.245 0.43,-0.512 0.43,-0.799c0,-0.169 -0.037,-0.326 -0.111,-0.469c-0.073,-0.144 -0.209,-0.279 -0.406,-0.406c-0.196,-0.127 -0.463,-0.233 -0.799,-0.317c-0.336,-0.085 -0.759,-0.153 -1.267,-0.203c-1.378,-0.119 -2.473,-0.486 -3.285,-1.104c-0.812,-0.617 -1.218,-1.526 -1.218,-2.727l0,-0.152c0,-0.625 0.131,-1.175 0.394,-1.648c0.262,-0.474 0.607,-0.876 1.033,-1.205c0.426,-0.33 0.919,-0.58 1.476,-0.749c0.558,-0.169 1.132,-0.253 1.723,-0.253c0.771,-0 1.439,0.097 2.005,0.291c0.566,0.195 1.046,0.449 1.439,0.761c0.394,0.313 0.714,0.66 0.96,1.04c0.246,0.381 0.435,0.749 0.566,1.104l-2.805,1.167c-0.148,-0.457 -0.402,-0.816 -0.763,-1.078c-0.361,-0.263 -0.828,-0.394 -1.402,-0.394c-0.525,-0 -0.919,0.098 -1.181,0.292c-0.263,0.195 -0.394,0.436 -0.394,0.723Z" style="fill:#e9002e;fill-rule:nonzero;"/>
        <path d="M155.962,63.647l4.134,0l0,-6.493l-3.839,0l0,-3.044l6.939,0l0,9.537l3.543,0l0,3.044l-10.777,0l0,-3.044Zm7.997,-13.266c0,0.338 -0.062,0.655 -0.185,0.951c-0.123,0.296 -0.291,0.55 -0.504,0.761c-0.214,0.212 -0.464,0.381 -0.751,0.508c-0.287,0.126 -0.586,0.19 -0.898,0.19c-0.328,-0 -0.631,-0.064 -0.91,-0.19c-0.279,-0.127 -0.525,-0.296 -0.738,-0.508c-0.214,-0.211 -0.382,-0.465 -0.505,-0.761c-0.123,-0.296 -0.184,-0.613 -0.184,-0.951c0,-0.338 0.061,-0.655 0.184,-0.951c0.123,-0.296 0.291,-0.55 0.505,-0.761c0.213,-0.212 0.459,-0.381 0.738,-0.508c0.279,-0.126 0.582,-0.19 0.91,-0.19c0.312,-0 0.611,0.064 0.898,0.19c0.287,0.127 0.537,0.296 0.751,0.508c0.213,0.211 0.381,0.465 0.504,0.761c0.123,0.296 0.185,0.613 0.185,0.951Z" style="fill:#e9002e;fill-rule:nonzero;"/>
        <path d="M181.748,63.647l0,3.044l-10.629,0l0,-5.327l7.676,-3.855l0,-0.457l-7.529,0l0,-2.942l10.187,0l0,5.174l-7.677,3.907l0,0.456l7.972,0Z" style="fill:#e9002e;fill-rule:nonzero;"/>
        <path d="M188.588,61.441c0.017,0.372 0.103,0.714 0.259,1.027c0.155,0.313 0.369,0.583 0.639,0.812c0.271,0.228 0.583,0.405 0.935,0.532c0.353,0.127 0.726,0.191 1.12,0.191c0.771,0 1.361,-0.14 1.771,-0.419c0.411,-0.279 0.706,-0.613 0.886,-1.002l2.658,1.522c-0.148,0.321 -0.353,0.655 -0.616,1.002c-0.262,0.347 -0.602,0.664 -1.021,0.951c-0.418,0.288 -0.926,0.524 -1.525,0.71c-0.599,0.186 -1.3,0.279 -2.104,0.279c-0.918,0 -1.755,-0.152 -2.51,-0.456c-0.754,-0.305 -1.406,-0.744 -1.956,-1.319c-0.549,-0.575 -0.976,-1.277 -1.279,-2.106c-0.304,-0.828 -0.455,-1.767 -0.455,-2.815l0,-0.152c0,-0.964 0.16,-1.844 0.479,-2.638c0.32,-0.795 0.759,-1.472 1.317,-2.03c0.558,-0.558 1.21,-0.993 1.956,-1.306c0.746,-0.313 1.546,-0.469 2.399,-0.469c1.05,0 1.952,0.19 2.706,0.57c0.755,0.381 1.378,0.863 1.87,1.446c0.493,0.584 0.853,1.226 1.083,1.928c0.23,0.702 0.345,1.383 0.345,2.042l0,1.7l-8.957,0Zm2.928,-4.795c-0.787,0 -1.427,0.208 -1.919,0.622c-0.492,0.414 -0.812,0.892 -0.96,1.433l5.758,0c-0.098,-0.592 -0.406,-1.082 -0.923,-1.471c-0.516,-0.389 -1.168,-0.584 -1.956,-0.584Z" style="fill:#e9002e;fill-rule:nonzero;"/>
        <path d="M209.675,64.865l-0.443,0c-0.131,0.287 -0.291,0.562 -0.48,0.824c-0.189,0.262 -0.435,0.495 -0.738,0.698c-0.304,0.203 -0.664,0.364 -1.083,0.482c-0.418,0.118 -0.922,0.177 -1.513,0.177c-0.754,0 -1.456,-0.139 -2.104,-0.418c-0.648,-0.279 -1.213,-0.693 -1.697,-1.243c-0.484,-0.55 -0.862,-1.222 -1.132,-2.017c-0.271,-0.794 -0.406,-1.708 -0.406,-2.739l0,-0.457c0,-1.014 0.143,-1.919 0.43,-2.714c0.287,-0.795 0.681,-1.467 1.181,-2.016c0.501,-0.55 1.083,-0.969 1.747,-1.256c0.665,-0.288 1.366,-0.431 2.104,-0.431c0.984,0 1.763,0.19 2.338,0.57c0.574,0.381 1.025,0.918 1.353,1.611l0.443,0l0,-7.001l3.1,0l0,17.756l-3.1,0l0,-1.826Zm-3.248,-0.862c0.968,-0 1.751,-0.318 2.35,-0.952c0.598,-0.634 0.898,-1.467 0.898,-2.498l-0,-0.305c-0,-1.031 -0.3,-1.864 -0.898,-2.498c-0.599,-0.634 -1.382,-0.951 -2.35,-0.951c-0.968,-0 -1.751,0.308 -2.35,0.925c-0.599,0.618 -0.898,1.459 -0.898,2.524l-0,0.305c-0,1.065 0.299,1.906 0.898,2.524c0.599,0.617 1.382,0.926 2.35,0.926Z" style="fill:#e9002e;fill-rule:nonzero;"/>
        <path d="M66.159,40.873c-0.35,0 -0.652,-0.127 -0.905,-0.38c-0.253,-0.253 -0.38,-0.555 -0.38,-0.905c0,-0.156 0.02,-0.292 0.059,-0.409l13.021,-37.252c0.116,-0.428 0.389,-0.857 0.817,-1.285c0.428,-0.428 1.032,-0.642 1.81,-0.642l12.671,0c0.778,0 1.382,0.214 1.81,0.642c0.428,0.428 0.7,0.857 0.817,1.285l13.021,37.252c0.039,0.117 0.058,0.253 0.058,0.409c0,0.35 -0.126,0.652 -0.379,0.905c-0.253,0.253 -0.555,0.38 -0.905,0.38l-10.802,0c-0.74,0 -1.275,-0.166 -1.606,-0.497c-0.331,-0.331 -0.555,-0.652 -0.671,-0.963l-1.402,-3.854l-12.554,0l-1.401,3.854c-0.117,0.311 -0.331,0.632 -0.642,0.963c-0.312,0.331 -0.857,0.497 -1.635,0.497l-10.802,0Zm17.458,-16.7l6.598,0l-3.328,-10.86l-3.27,10.86Z" style="fill:#07042d;fill-rule:nonzero;"/>
        <path d="M122.68,40.873c-0.428,0 -0.798,-0.156 -1.109,-0.467c-0.312,-0.312 -0.468,-0.682 -0.468,-1.11l0,-23.589l-6.539,5.021c-0.389,0.273 -0.779,0.36 -1.168,0.263c-0.389,-0.097 -0.74,-0.341 -1.051,-0.73l-5.138,-6.656c-0.195,-0.39 -0.253,-0.808 -0.175,-1.256c0.077,-0.447 0.311,-0.788 0.7,-1.021l14.072,-10.919c0.195,-0.156 0.389,-0.263 0.584,-0.321c0.195,-0.059 0.428,-0.088 0.701,-0.088l11.035,0c0.428,0 0.798,0.156 1.11,0.467c0.311,0.312 0.467,0.681 0.467,1.11l0,37.719c0,0.428 -0.156,0.798 -0.467,1.11c-0.312,0.311 -0.682,0.467 -1.11,0.467l-11.444,0Z" style="fill:#07042d;fill-rule:nonzero;"/>
        <path d="M155.203,40.873c-0.428,0 -0.798,-0.156 -1.109,-0.467c-0.312,-0.312 -0.468,-0.682 -0.468,-1.11l0,-23.589l-6.539,5.021c-0.389,0.273 -0.779,0.36 -1.168,0.263c-0.389,-0.097 -0.74,-0.341 -1.051,-0.73l-5.138,-6.656c-0.195,-0.39 -0.253,-0.808 -0.175,-1.256c0.077,-0.447 0.311,-0.788 0.7,-1.021l14.072,-10.919c0.195,-0.156 0.389,-0.263 0.584,-0.321c0.195,-0.059 0.428,-0.088 0.701,-0.088l11.035,0c0.428,0 0.798,0.156 1.11,0.467c0.311,0.312 0.467,0.681 0.467,1.11l0,37.719c0,0.428 -0.156,0.798 -0.467,1.11c-0.312,0.311 -0.682,0.467 -1.11,0.467l-11.444,0Z" style="fill:#07042d;fill-rule:nonzero;"/>
        <path d="M186.5,40.873c-0.428,0 -0.798,-0.156 -1.11,-0.467c-0.311,-0.312 -0.467,-0.682 -0.467,-1.11l0,-11.503l-13.137,-25.983c-0.039,-0.078 -0.069,-0.165 -0.088,-0.263c-0.019,-0.097 -0.029,-0.185 -0.029,-0.262c0,-0.351 0.126,-0.652 0.379,-0.905c0.253,-0.253 0.555,-0.38 0.905,-0.38l10.978,0c0.778,0 1.362,0.195 1.751,0.584c0.39,0.389 0.623,0.681 0.701,0.876l5.839,11.736l5.839,-11.736c0.078,-0.195 0.311,-0.487 0.701,-0.876c0.389,-0.389 0.973,-0.584 1.751,-0.584l10.977,0c0.351,0 0.652,0.127 0.905,0.38c0.253,0.253 0.38,0.554 0.38,0.905c0,0.077 -0.01,0.165 -0.029,0.262c-0.02,0.098 -0.049,0.185 -0.088,0.263l-13.137,25.983l0,11.503c0,0.428 -0.156,0.798 -0.468,1.11c-0.311,0.311 -0.681,0.467 -1.109,0.467l-11.444,0Z" style="fill:#07042d;fill-rule:nonzero;"/>
        <g>
            <rect x="12.322" y="30.805" width="6.161" height="3.08" style="fill:#07042d;"/>
            <rect x="15.402" y="15.402" width="21.564" height="3.081" style="fill:#07042d;"/>
            <rect x="15.402" y="9.241" width="21.564" height="3.08" style="fill:#07042d;"/>
            <rect x="21.563" y="0" width="9.241" height="3.08" style="fill:#07042d;"/>
            <rect x="6.161" y="36.966" width="3.08" height="3.08" style="fill:#07042d;"/>
            <rect x="3.08" y="40.047" width="3.08" height="3.081" style="fill:#07042d;"/>
            <rect x="9.241" y="33.886" width="3.08" height="3.08" style="fill:#07042d;"/>
            <rect x="12.322" y="12.322" width="3.08" height="3.08" style="fill:#07042d;"/>
            <rect x="36.966" y="12.322" width="3.08" height="3.08" style="fill:#07042d;"/>
            <rect x="30.805" y="27.725" width="3.081" height="3.08" style="fill:#07042d;"/>
            <rect x="9.241" y="61.61" width="6.161" height="3.08" style="fill:#07042d;"/>
            <rect x="36.966" y="61.61" width="6.161" height="3.08" style="fill:#07042d;"/>
            <rect x="15.402" y="64.691" width="21.564" height="3.08" style="fill:#07042d;"/>
            <rect x="6.161" y="40.047" width="30.805" height="3.081" style="fill:#ff99ba;"/>
            <path d="M12.322,58.53l-0,-3.081l-3.081,0l-0,-6.16l-3.08,0l-0,-6.161l-3.081,0l-0,9.241l3.081,0l-0,6.161l3.08,0l-0,3.08l33.886,0l0,-3.08l3.08,0l0,-6.161l3.081,0l0,-9.241l-12.322,0l0,9.241l-3.08,0l0,3.08l-3.081,0l0,3.081l-18.483,0Z" style="fill:#cc0a30;fill-rule:nonzero;"/>
            <rect x="15.402" y="61.61" width="21.564" height="3.08" style="fill:#a20a28;"/>
            <path d="M12.322,40.047l30.805,-0l-0,-3.081l-3.08,-0l-0,-3.08l-12.322,-0l-0,-3.081l-3.081,-0l-0,-12.322l-3.081,-0l-0,12.322l-3.08,-0l-0,3.081l-3.081,-0l-0,3.08l15.403,-0l-18.483,-0l-0,3.081Z" style="fill:#5faa77;fill-rule:nonzero;"/>
            <rect x="24.644" y="18.483" width="3.081" height="12.322" style="fill:#e6e2ad;"/>
            <rect x="21.563" y="30.805" width="3.08" height="3.08" style="fill:#e6e2ad;"/>
            <rect x="21.563" y="6.161" width="9.241" height="3.08" style="fill:#c9704f;"/>
            <rect x="27.725" y="3.08" width="3.08" height="3.08" style="fill:#c9704f;"/>
            <rect x="21.563" y="3.08" width="6.162" height="3.08" style="fill:#eda661;"/>
            <path d="M12.322,55.449l-0,3.081l18.483,0l0,-3.081l3.081,0l0,-3.08l3.08,0l0,-9.241l-3.08,0l0,3.08l-3.081,0l0,-3.08l-24.644,0l0,6.161l3.08,0l0,6.16l3.081,0Zm30.805,-3.08l-3.08,0l-0,3.08l3.08,0l-0,-3.08Zm3.08,-6.161l-3.08,0l-0,3.081l3.08,0l-0,-3.081Zm-0,-3.08l-0,-3.081l-9.241,0l-0,3.081l9.241,0Z" style="fill:#ff1f4b;fill-rule:nonzero;"/>
            <rect x="43.127" y="58.53" width="3.08" height="3.08" style="fill:#07042d;"/>
            <rect x="0" y="43.128" width="3.08" height="9.241" style="fill:#07042d;"/>
            <rect x="3.08" y="52.369" width="3.08" height="6.161" style="fill:#07042d;"/>
            <rect x="6.161" y="58.53" width="3.08" height="3.08" style="fill:#07042d;"/>
            <rect x="46.207" y="52.369" width="3.08" height="6.161" style="fill:#07042d;"/>
            <rect x="18.483" y="18.483" width="3.08" height="12.322" style="fill:#07042d;"/>
            <rect x="30.805" y="18.483" width="3.081" height="9.241" style="fill:#07042d;"/>
            <rect x="18.483" y="3.08" width="3.08" height="6.161" style="fill:#07042d;"/>
            <rect x="30.805" y="3.08" width="3.081" height="6.161" style="fill:#07042d;"/>
            <rect x="33.886" y="30.805" width="6.161" height="3.08" style="fill:#07042d;"/>
            <rect x="43.127" y="36.966" width="3.08" height="3.08" style="fill:#07042d;"/>
            <rect x="46.207" y="40.047" width="3.08" height="3.081" style="fill:#07042d;"/>
            <rect x="40.047" y="33.886" width="3.08" height="3.08" style="fill:#07042d;"/>
            <rect x="49.288" y="43.128" width="3.08" height="9.241" style="fill:#07042d;"/>
            <rect x="30.805" y="43.128" width="3.081" height="3.08" style="fill:#ff99ba;"/>
            <rect x="24.644" y="55.449" width="3.081" height="3.08" style="fill:#ff99ba;"/>
            <rect x="18.483" y="46.208" width="3.08" height="3.08" style="fill:#ff99ba;"/>
            <rect x="6.161" y="46.208" width="3.08" height="3.08" style="fill:#ff99ba;"/>
            <path d="M18.483,52.369l-3.081,0l0,3.08l3.081,0l0,-3.08Zm-6.161,-12.322l0,12.322l3.08,0l0,-12.322l-3.08,0Zm6.161,-3.081l-3.081,0l0,3.081l3.081,0l0,-3.081Z" style="fill:#ffffeb;fill-rule:nonzero;"/>
            <path d="M30.805,36.966l3.081,0l0,3.081l6.161,0l0,-3.081l-3.081,0l0,-3.08l-3.08,0l0,-3.081l-3.081,0l0,-12.322l-3.08,0l0,15.403l3.08,0l0,3.08Zm-18.483,0l-3.081,0l0,3.081l3.081,0l0,-3.081Zm3.08,-3.08l-3.08,0l0,3.08l3.08,0l0,-3.08Zm21.564,-18.484l0,-3.08l-21.564,0l0,3.08l21.564,0Z" style="fill:#195b4e;fill-rule:nonzero;"/>
        </g>
    </g>
</svg>
