<?xml version="1.0" encoding="UTF-8" standalone="no"?>
<!DOCTYPE svg PUBLIC "-//W3C//DTD SVG 1.1//EN" "http://www.w3.org/Graphics/SVG/1.1/DTD/svg11.dtd">
<svg width="100%" height="100%" viewBox="0 0 211 68" version="1.1" xmlns="http://www.w3.org/2000/svg" xmlns:xlink="http://www.w3.org/1999/xlink" xml:space="preserve" xmlns:serif="http://www.serif.com/" style="fill-rule:evenodd;clip-rule:evenodd;stroke-linejoin:round;stroke-miterlimit:2;">
    <path d="M65.5,67.064l-3.1,-0l-0,-17.756l3.1,-0l0,7.001l0.443,-0c0.328,-0.694 0.804,-1.231 1.427,-1.611c0.623,-0.381 1.419,-0.571 2.387,-0.571c0.721,0 1.406,0.144 2.054,0.431c0.648,0.288 1.214,0.706 1.698,1.256c0.484,0.55 0.869,1.222 1.156,2.017c0.287,0.794 0.431,1.699 0.431,2.714l0,0.456c0,1.032 -0.139,1.945 -0.418,2.74c-0.279,0.795 -0.656,1.467 -1.132,2.016c-0.476,0.55 -1.038,0.964 -1.686,1.243c-0.647,0.279 -1.349,0.419 -2.103,0.419c-0.558,-0 -1.042,-0.059 -1.452,-0.178c-0.41,-0.118 -0.767,-0.279 -1.07,-0.482c-0.304,-0.203 -0.558,-0.435 -0.763,-0.697c-0.205,-0.262 -0.381,-0.537 -0.529,-0.825l-0.443,0l0,1.827Zm3.248,-2.689c0.968,0 1.751,-0.309 2.35,-0.926c0.598,-0.617 0.898,-1.458 0.898,-2.524l-0,-0.304c-0,-1.066 -0.3,-1.907 -0.898,-2.524c-0.599,-0.617 -1.382,-0.926 -2.35,-0.926c-0.968,0 -1.751,0.317 -2.35,0.951c-0.599,0.634 -0.898,1.467 -0.898,2.499l0,0.304c0,1.032 0.299,1.865 0.898,2.499c0.599,0.634 1.382,0.951 2.35,0.951Z" style="fill:#c40851;fill-rule:nonzero;"/>
    <path d="M78.196,64.02l4.134,-0l-0,-6.494l-3.838,0l-0,-3.044l6.938,0l0,9.538l3.543,-0l0,3.044l-10.777,-0l0,-3.044Zm7.997,-13.267c-0,0.339 -0.062,0.656 -0.185,0.952c-0.123,0.296 -0.291,0.549 -0.504,0.761c-0.213,0.211 -0.463,0.38 -0.751,0.507c-0.287,0.127 -0.586,0.19 -0.898,0.19c-0.328,0 -0.631,-0.063 -0.91,-0.19c-0.279,-0.127 -0.525,-0.296 -0.738,-0.507c-0.213,-0.212 -0.382,-0.465 -0.505,-0.761c-0.123,-0.296 -0.184,-0.613 -0.184,-0.952c-0,-0.338 0.061,-0.655 0.184,-0.951c0.123,-0.296 0.292,-0.549 0.505,-0.761c0.213,-0.211 0.459,-0.38 0.738,-0.507c0.279,-0.127 0.582,-0.19 0.91,-0.19c0.312,-0 0.611,0.063 0.898,0.19c0.288,0.127 0.538,0.296 0.751,0.507c0.213,0.212 0.381,0.465 0.504,0.761c0.123,0.296 0.185,0.613 0.185,0.951Z" style="fill:#c40851;fill-rule:nonzero;"/>
    <path d="M92.689,54.482l3.617,0l-0,-5.174l3.1,-0l-0,5.174l4.404,0l0,3.044l-4.404,0l-0,5.733c-0,0.507 0.221,0.761 0.664,0.761l3.297,-0l0,3.044l-5.167,-0c-0.558,-0 -1.013,-0.186 -1.365,-0.558c-0.353,-0.372 -0.529,-0.846 -0.529,-1.421l-0,-7.559l-3.617,0l-0,-3.044Z" style="fill:#c40851;fill-rule:nonzero;"/>
    <path d="M110.822,61.813c0.017,0.372 0.103,0.715 0.259,1.027c0.156,0.313 0.369,0.584 0.64,0.812c0.27,0.228 0.582,0.406 0.935,0.533c0.352,0.127 0.725,0.19 1.119,0.19c0.771,0 1.362,-0.14 1.772,-0.419c0.41,-0.279 0.705,-0.613 0.885,-1.001l2.658,1.521c-0.148,0.322 -0.353,0.656 -0.615,1.002c-0.263,0.347 -0.603,0.664 -1.021,0.952c-0.419,0.287 -0.927,0.524 -1.526,0.71c-0.599,0.186 -1.3,0.279 -2.104,0.279c-0.918,-0 -1.755,-0.152 -2.509,-0.457c-0.755,-0.304 -1.407,-0.744 -1.957,-1.319c-0.549,-0.575 -0.976,-1.276 -1.279,-2.105c-0.303,-0.829 -0.455,-1.767 -0.455,-2.816l-0,-0.152c-0,-0.964 0.16,-1.843 0.48,-2.638c0.319,-0.795 0.758,-1.471 1.316,-2.029c0.558,-0.558 1.21,-0.994 1.956,-1.307c0.746,-0.312 1.546,-0.469 2.399,-0.469c1.05,0 1.952,0.19 2.707,0.571c0.754,0.38 1.378,0.862 1.87,1.446c0.492,0.583 0.853,1.226 1.082,1.928c0.23,0.701 0.345,1.382 0.345,2.042l-0,1.699l-8.957,0Zm2.928,-4.794c-0.787,-0 -1.427,0.207 -1.919,0.621c-0.492,0.415 -0.812,0.892 -0.959,1.434l5.757,-0c-0.098,-0.592 -0.406,-1.083 -0.922,-1.472c-0.517,-0.389 -1.169,-0.583 -1.957,-0.583Z" style="fill:#c40851;fill-rule:nonzero;"/>
    <rect x="124.921" y="58.642" width="7.677" height="2.892" style="fill:#c40851;fill-rule:nonzero;"/>
    <path d="M142.095,58.034c0,0.405 0.205,0.697 0.616,0.875c0.41,0.177 1.156,0.325 2.239,0.444c1.246,0.135 2.263,0.52 3.051,1.154c0.787,0.634 1.181,1.517 1.181,2.65l-0,0.153c-0,1.251 -0.443,2.249 -1.329,2.993c-0.886,0.744 -2.132,1.116 -3.74,1.116c-0.951,-0 -1.763,-0.127 -2.436,-0.381c-0.672,-0.253 -1.23,-0.57 -1.673,-0.951c-0.443,-0.38 -0.783,-0.803 -1.021,-1.268c-0.238,-0.465 -0.398,-0.917 -0.48,-1.357l2.854,-0.964c0.132,0.541 0.406,1.015 0.825,1.42c0.418,0.406 1.062,0.609 1.931,0.609c0.771,0 1.3,-0.122 1.587,-0.368c0.287,-0.245 0.431,-0.511 0.431,-0.799c-0,-0.169 -0.037,-0.325 -0.111,-0.469c-0.074,-0.144 -0.209,-0.279 -0.406,-0.406c-0.197,-0.127 -0.463,-0.232 -0.8,-0.317c-0.336,-0.084 -0.758,-0.152 -1.267,-0.203c-1.378,-0.118 -2.473,-0.486 -3.285,-1.103c-0.812,-0.617 -1.218,-1.526 -1.218,-2.727l0,-0.152c0,-0.626 0.132,-1.176 0.394,-1.649c0.263,-0.474 0.607,-0.875 1.034,-1.205c0.426,-0.33 0.918,-0.579 1.476,-0.748c0.558,-0.169 1.132,-0.254 1.722,-0.254c0.771,0 1.44,0.097 2.005,0.292c0.566,0.194 1.046,0.448 1.44,0.761c0.394,0.313 0.713,0.659 0.959,1.04c0.247,0.38 0.435,0.748 0.566,1.103l-2.805,1.167c-0.147,-0.456 -0.401,-0.816 -0.762,-1.078c-0.361,-0.262 -0.829,-0.393 -1.403,-0.393c-0.525,-0 -0.918,0.097 -1.181,0.292c-0.262,0.194 -0.394,0.435 -0.394,0.723Z" style="fill:#c40851;fill-rule:nonzero;"/>
    <path d="M153.488,64.02l4.133,-0l0,-6.494l-3.838,0l-0,-3.044l6.938,0l0,9.538l3.544,-0l-0,3.044l-10.777,-0l-0,-3.044Zm7.996,-13.267c0,0.339 -0.061,0.656 -0.184,0.952c-0.123,0.296 -0.292,0.549 -0.505,0.761c-0.213,0.211 -0.463,0.38 -0.75,0.507c-0.287,0.127 -0.587,0.19 -0.898,0.19c-0.328,0 -0.632,-0.063 -0.911,-0.19c-0.279,-0.127 -0.525,-0.296 -0.738,-0.507c-0.213,-0.212 -0.381,-0.465 -0.504,-0.761c-0.123,-0.296 -0.185,-0.613 -0.185,-0.952c0,-0.338 0.062,-0.655 0.185,-0.951c0.123,-0.296 0.291,-0.549 0.504,-0.761c0.213,-0.211 0.459,-0.38 0.738,-0.507c0.279,-0.127 0.583,-0.19 0.911,-0.19c0.311,-0 0.611,0.063 0.898,0.19c0.287,0.127 0.537,0.296 0.75,0.507c0.213,0.212 0.382,0.465 0.505,0.761c0.123,0.296 0.184,0.613 0.184,0.951Z" style="fill:#c40851;fill-rule:nonzero;"/>
    <path d="M179.274,64.02l-0,3.044l-10.63,-0l0,-5.327l7.677,-3.856l0,-0.456l-7.529,-0l-0,-2.943l10.186,0l0,5.175l-7.676,3.906l-0,0.457l7.972,-0Z" style="fill:#c40851;fill-rule:nonzero;"/>
    <path d="M186.114,61.813c0.016,0.372 0.102,0.715 0.258,1.027c0.156,0.313 0.369,0.584 0.64,0.812c0.271,0.228 0.582,0.406 0.935,0.533c0.353,0.127 0.726,0.19 1.119,0.19c0.771,0 1.362,-0.14 1.772,-0.419c0.41,-0.279 0.705,-0.613 0.886,-1.001l2.657,1.521c-0.148,0.322 -0.353,0.656 -0.615,1.002c-0.263,0.347 -0.603,0.664 -1.021,0.952c-0.418,0.287 -0.927,0.524 -1.526,0.71c-0.598,0.186 -1.3,0.279 -2.103,0.279c-0.919,-0 -1.756,-0.152 -2.51,-0.457c-0.755,-0.304 -1.407,-0.744 -1.956,-1.319c-0.55,-0.575 -0.976,-1.276 -1.28,-2.105c-0.303,-0.829 -0.455,-1.767 -0.455,-2.816l0,-0.152c0,-0.964 0.16,-1.843 0.48,-2.638c0.32,-0.795 0.759,-1.471 1.316,-2.029c0.558,-0.558 1.21,-0.994 1.956,-1.307c0.747,-0.312 1.546,-0.469 2.399,-0.469c1.05,0 1.952,0.19 2.707,0.571c0.754,0.38 1.378,0.862 1.87,1.446c0.492,0.583 0.853,1.226 1.083,1.928c0.229,0.701 0.344,1.382 0.344,2.042l0,1.699l-8.956,0Zm2.928,-4.794c-0.788,-0 -1.427,0.207 -1.919,0.621c-0.493,0.415 -0.812,0.892 -0.96,1.434l5.758,-0c-0.099,-0.592 -0.406,-1.083 -0.923,-1.472c-0.517,-0.389 -1.169,-0.583 -1.956,-0.583Z" style="fill:#c40851;fill-rule:nonzero;"/>
    <path d="M207.2,65.237l-0.443,0c-0.131,0.288 -0.291,0.563 -0.479,0.825c-0.189,0.262 -0.435,0.494 -0.739,0.697c-0.303,0.203 -0.664,0.364 -1.082,0.482c-0.418,0.119 -0.923,0.178 -1.513,0.178c-0.755,-0 -1.456,-0.14 -2.104,-0.419c-0.648,-0.279 -1.214,-0.693 -1.698,-1.243c-0.484,-0.549 -0.861,-1.221 -1.132,-2.016c-0.27,-0.795 -0.406,-1.708 -0.406,-2.74l0,-0.456c0,-1.015 0.144,-1.92 0.431,-2.714c0.287,-0.795 0.681,-1.467 1.181,-2.017c0.5,-0.55 1.083,-0.968 1.747,-1.256c0.664,-0.287 1.365,-0.431 2.104,-0.431c0.984,0 1.763,0.19 2.337,0.571c0.574,0.38 1.025,0.917 1.353,1.611l0.443,-0l0,-7.001l3.101,-0l-0,17.756l-3.101,-0l0,-1.827Zm-3.248,-0.862c0.968,0 1.751,-0.317 2.35,-0.951c0.599,-0.634 0.898,-1.467 0.898,-2.499l0,-0.304c0,-1.032 -0.299,-1.865 -0.898,-2.499c-0.599,-0.634 -1.382,-0.951 -2.35,-0.951c-0.967,0 -1.751,0.309 -2.349,0.926c-0.599,0.617 -0.898,1.458 -0.898,2.524l-0,0.304c-0,1.066 0.299,1.907 0.898,2.524c0.598,0.617 1.382,0.926 2.349,0.926Z" style="fill:#c40851;fill-rule:nonzero;"/>
    <g>
        <path d="M48.682,58.099c-9.536,-2.55 -5.899,-9.85 -5.899,-9.85c-2.573,-1.117 -3.343,-3.419 -3.554,-5.04c-2.657,1.51 -5.924,1.915 -9.04,0.839c-5.751,-1.986 -8.803,-8.259 -6.817,-14.01c1.501,-4.345 5.45,-7.148 9.771,-7.402c-8.014,-6.762 -1.85,-12.211 -1.85,-12.211c-2.892,-3.696 -1.777,-7.299 -0.679,-9.327c-12.321,1.208 -23.417,9.399 -27.723,21.867c-5.893,17.062 3.161,35.671 20.224,41.564c9.363,3.234 19.191,1.966 27.128,-2.655c-1.88,-2.107 -1.561,-3.775 -1.561,-3.775Z" style="fill:#ffb74d;fill-rule:nonzero;"/>
        <path d="M21.372,11.768l-0.979,1.554c-1.159,1.844 -2.84,3.302 -4.828,4.191l-1.677,0.748c-5.811,2.595 -8.218,9.563 -5.247,15.191l0.858,1.624c1.016,1.926 1.439,4.111 1.213,6.277l-0.189,1.827c-0.658,6.33 4.172,11.897 10.532,12.139l1.835,0.069c2.177,0.083 4.28,0.809 6.044,2.087l1.486,1.078c4.74,3.435 11.24,2.524 14.89,-1.835c-5.175,-3.142 -2.527,-8.469 -2.527,-8.469c-2.573,-1.117 -3.343,-3.419 -3.554,-5.04c-1.156,0.657 -2.426,1.105 -3.751,1.312c-0.029,0.004 -0.057,0.008 -0.085,0.012c-0.155,0.023 -0.31,0.043 -0.467,0.06c-0.045,0.004 -0.089,0.008 -0.134,0.012c-0.14,0.013 -0.279,0.024 -0.42,0.031c-0.057,0.003 -0.113,0.005 -0.169,0.007c-0.13,0.005 -0.26,0.008 -0.39,0.009c-0.064,-0 -0.128,-0.001 -0.192,-0.002c-0.124,-0.001 -0.247,-0.006 -0.371,-0.012c-0.07,-0.003 -0.138,-0.007 -0.207,-0.011c-0.12,-0.008 -0.24,-0.019 -0.36,-0.032c-0.072,-0.007 -0.144,-0.014 -0.216,-0.022c-0.118,-0.015 -0.237,-0.033 -0.355,-0.051c-0.073,-0.011 -0.146,-0.021 -0.218,-0.034c-0.12,-0.021 -0.241,-0.046 -0.36,-0.071c-0.07,-0.015 -0.141,-0.028 -0.212,-0.045c-0.129,-0.029 -0.258,-0.064 -0.387,-0.099c-0.061,-0.016 -0.121,-0.03 -0.181,-0.047c-0.189,-0.054 -0.377,-0.113 -0.565,-0.178c-0.539,-0.186 -1.055,-0.41 -1.544,-0.668c-0.49,-0.257 -0.955,-0.549 -1.391,-0.87c-1.31,-0.963 -2.371,-2.194 -3.133,-3.586c-0.168,-0.309 -0.323,-0.626 -0.462,-0.95c-0.417,-0.972 -0.695,-2.004 -0.819,-3.067c-0.042,-0.354 -0.066,-0.711 -0.072,-1.07c-0.024,-1.258 0.17,-2.54 0.604,-3.799c0.084,-0.241 0.178,-0.477 0.276,-0.709c0.024,-0.057 0.048,-0.113 0.073,-0.169c0.102,-0.229 0.208,-0.454 0.323,-0.673l0.011,-0.02c0.113,-0.214 0.235,-0.421 0.361,-0.625c0.03,-0.05 0.061,-0.099 0.092,-0.147c0.132,-0.207 0.268,-0.41 0.413,-0.606c0.006,-0.008 0.012,-0.015 0.018,-0.023c0.141,-0.19 0.289,-0.374 0.441,-0.553c0.034,-0.04 0.068,-0.08 0.103,-0.12c0.16,-0.184 0.325,-0.364 0.497,-0.536l0.018,-0.017c0.168,-0.168 0.343,-0.328 0.521,-0.484c0.034,-0.03 0.068,-0.06 0.102,-0.089c0.188,-0.161 0.379,-0.315 0.576,-0.462l0.011,-0.008c0.195,-0.145 0.396,-0.281 0.599,-0.413c0.031,-0.02 0.062,-0.04 0.093,-0.06c0.424,-0.267 0.864,-0.505 1.319,-0.712c0.026,-0.012 0.052,-0.024 0.078,-0.036c0.464,-0.206 0.941,-0.381 1.431,-0.523c0.021,-0.006 0.042,-0.012 0.063,-0.018c0.495,-0.141 1.001,-0.246 1.514,-0.316c0.018,-0.003 0.036,-0.006 0.053,-0.008c0.26,-0.034 0.522,-0.06 0.785,-0.075c-8.014,-6.762 -1.85,-12.211 -1.85,-12.211c-1.002,-1.28 -1.522,-2.548 -1.73,-3.744c-3.24,0.335 -6.309,2.095 -8.191,5.087Z" style="fill:#b3421b;fill-rule:nonzero;"/>
        <path d="M21.372,11.768l-0.979,1.554c-1.159,1.844 -2.84,3.302 -4.828,4.191l-1.677,0.748c-5.811,2.595 -8.218,9.563 -5.247,15.191l0.858,1.624c1.016,1.926 1.439,4.111 1.213,6.277l-0.189,1.827c-0.658,6.33 4.172,11.897 10.532,12.139l1.835,0.069c2.177,0.083 4.28,0.809 6.044,2.087l1.486,1.078c4.74,3.435 11.24,2.524 14.89,-1.835c-5.175,-3.142 -2.527,-8.469 -2.527,-8.469c-2.573,-1.117 -3.343,-3.419 -3.554,-5.04c-1.156,0.657 -2.426,1.105 -3.751,1.312c-0.029,0.004 -0.057,0.008 -0.085,0.012c-0.155,0.023 -0.31,0.043 -0.467,0.06c-0.045,0.004 -0.089,0.008 -0.134,0.012c-0.14,0.013 -0.279,0.024 -0.42,0.031c-0.057,0.003 -0.113,0.005 -0.169,0.007c-0.13,0.005 -0.26,0.008 -0.39,0.009c-0.064,-0 -0.128,-0.001 -0.192,-0.002c-0.124,-0.001 -0.247,-0.006 -0.371,-0.012c-0.07,-0.003 -0.138,-0.007 -0.207,-0.011c-0.12,-0.008 -0.24,-0.019 -0.36,-0.032c-0.072,-0.007 -0.144,-0.014 -0.216,-0.022c-0.118,-0.015 -0.237,-0.033 -0.355,-0.051c-0.073,-0.011 -0.146,-0.021 -0.218,-0.034c-0.12,-0.021 -0.241,-0.046 -0.36,-0.071c-0.07,-0.015 -0.141,-0.028 -0.212,-0.045c-0.129,-0.029 -0.258,-0.064 -0.387,-0.099c-0.061,-0.016 -0.121,-0.03 -0.181,-0.047c-0.189,-0.054 -0.377,-0.113 -0.565,-0.178c-0.539,-0.186 -1.055,-0.41 -1.544,-0.668c-0.49,-0.257 -0.955,-0.549 -1.391,-0.87c-1.31,-0.963 -2.371,-2.194 -3.133,-3.586c-0.168,-0.309 -0.323,-0.626 -0.462,-0.95c-0.417,-0.972 -0.695,-2.004 -0.819,-3.067c-0.042,-0.354 -0.066,-0.711 -0.072,-1.07c-0.024,-1.258 0.17,-2.54 0.604,-3.799c0.084,-0.241 0.178,-0.477 0.276,-0.709c0.024,-0.057 0.048,-0.113 0.073,-0.169c0.102,-0.229 0.208,-0.454 0.323,-0.673l0.011,-0.02c0.113,-0.214 0.235,-0.421 0.361,-0.625c0.03,-0.05 0.061,-0.099 0.092,-0.147c0.132,-0.207 0.268,-0.41 0.413,-0.606c0.006,-0.008 0.012,-0.015 0.018,-0.023c0.141,-0.19 0.289,-0.374 0.441,-0.553c0.034,-0.04 0.068,-0.08 0.103,-0.12c0.16,-0.184 0.325,-0.364 0.497,-0.536l0.018,-0.017c0.168,-0.168 0.343,-0.328 0.521,-0.484c0.034,-0.03 0.068,-0.06 0.102,-0.089c0.188,-0.161 0.379,-0.315 0.576,-0.462l0.011,-0.008c0.195,-0.145 0.396,-0.281 0.599,-0.413c0.031,-0.02 0.062,-0.04 0.093,-0.06c0.424,-0.267 0.864,-0.505 1.319,-0.712c0.026,-0.012 0.052,-0.024 0.078,-0.036c0.464,-0.206 0.941,-0.381 1.431,-0.523c0.021,-0.006 0.042,-0.012 0.063,-0.018c0.495,-0.141 1.001,-0.246 1.514,-0.316c0.018,-0.003 0.036,-0.006 0.053,-0.008c0.26,-0.034 0.522,-0.06 0.785,-0.075c-8.014,-6.762 -1.85,-12.211 -1.85,-12.211c-1.002,-1.28 -1.522,-2.548 -1.73,-3.744c-3.24,0.335 -6.309,2.095 -8.191,5.087Z" style="fill:#ff2968;fill-rule:nonzero;"/>
        <path d="M22.948,28.708c0.085,-0.355 0.188,-0.711 0.31,-1.063c0.083,-0.242 0.177,-0.478 0.275,-0.71c0.024,-0.057 0.048,-0.113 0.073,-0.169c0.102,-0.229 0.208,-0.455 0.323,-0.673l0.011,-0.02c0.113,-0.214 0.235,-0.421 0.361,-0.625c0.03,-0.05 0.061,-0.099 0.092,-0.147c0.132,-0.207 0.269,-0.41 0.413,-0.606c0.006,-0.008 0.012,-0.015 0.018,-0.023c0.141,-0.19 0.289,-0.374 0.441,-0.553c0.034,-0.04 0.068,-0.08 0.103,-0.119c0.16,-0.185 0.326,-0.364 0.498,-0.537l0.017,-0.017c0.168,-0.167 0.343,-0.328 0.521,-0.484c0.034,-0.03 0.068,-0.06 0.102,-0.089c0.188,-0.161 0.38,-0.315 0.576,-0.462l0.011,-0.008c0.195,-0.145 0.396,-0.281 0.6,-0.413c0.03,-0.02 0.061,-0.04 0.092,-0.06c0.424,-0.267 0.865,-0.504 1.32,-0.712c0.025,-0.012 0.051,-0.024 0.077,-0.035c0.31,-0.139 0.626,-0.263 0.948,-0.372c0.312,0.406 0.661,0.808 1.046,1.207c-0.212,0.048 -0.421,0.101 -0.628,0.16l-0.068,0.02c-0.528,0.153 -1.048,0.344 -1.542,0.564l-0.088,0.04c-0.493,0.225 -0.973,0.484 -1.424,0.769l-0.101,0.066c-0.221,0.141 -0.437,0.289 -0.659,0.453c-0.213,0.16 -0.421,0.327 -0.622,0.499l-0.112,0.098c-0.192,0.168 -0.381,0.342 -0.581,0.541c-0.187,0.187 -0.365,0.381 -0.541,0.582l-0.109,0.128c-0.165,0.193 -0.325,0.392 -0.497,0.622c-0.156,0.212 -0.304,0.431 -0.447,0.656l-0.099,0.159c-0.127,0.207 -0.251,0.417 -0.38,0.657c-0.006,0.011 -0.017,0.029 -0.021,0.04c-0.11,0.208 -0.211,0.42 -0.309,0.636Z" style="fill:#d04779;fill-rule:nonzero;"/>
        <path d="M10.043,34.2l-0.614,-1.163c-0.142,-0.27 -0.272,-0.544 -0.389,-0.821c-0.024,-0.104 -0.046,-0.209 -0.068,-0.314l0.412,0.78c0.259,0.491 0.479,0.999 0.659,1.518Z" style="fill:#d04779;fill-rule:nonzero;"/>
        <path d="M18.145,53.882c-1.65,-0.57 -3.131,-1.568 -4.315,-2.933c-0.71,-0.818 -1.274,-1.722 -1.684,-2.685c-0.035,-0.153 -0.069,-0.308 -0.099,-0.464c1.317,2.082 3.318,3.705 5.709,4.531c1.001,0.345 2.069,0.551 3.184,0.594l1.835,0.069c1.089,0.042 2.158,0.244 3.177,0.596c1.018,0.351 1.985,0.852 2.867,1.491l1.486,1.078c0.903,0.655 1.87,1.151 2.869,1.496c3.384,1.169 7.135,0.597 10.014,-1.471c0.232,0.235 0.489,0.464 0.772,0.684c-2.762,2.711 -6.831,3.56 -10.4,2.328c-0.915,-0.316 -1.798,-0.77 -2.617,-1.363l-1.486,-1.078c-0.957,-0.693 -2,-1.235 -3.099,-1.614c-1.099,-0.38 -2.253,-0.597 -3.435,-0.642l-1.834,-0.07c-1.021,-0.039 -2.01,-0.225 -2.944,-0.547Z" style="fill:#d04779;fill-rule:nonzero;"/>
        <path d="M29.014,12.017c0.148,-0.851 0.454,-1.591 0.79,-2.195c0.104,0.177 0.215,0.353 0.333,0.527c-0.329,0.386 -0.752,0.951 -1.123,1.668Z" style="fill:#d04779;fill-rule:nonzero;"/>
        <path d="M31.581,45.47c-0.285,-0.098 -0.563,-0.207 -0.833,-0.325c0.124,0.033 0.248,0.065 0.373,0.094c0.056,0.013 0.111,0.025 0.166,0.036l0.064,0.013c0.13,0.027 0.259,0.054 0.389,0.076l0.235,0.038c0.128,0.02 0.256,0.038 0.386,0.054l0.233,0.025c0.129,0.013 0.258,0.025 0.389,0.034l0.222,0.012c0.134,0.007 0.268,0.011 0.402,0.013l0.208,0.002c0.141,-0 0.282,-0.004 0.446,-0.01l0.159,-0.007c0.151,-0.008 0.302,-0.02 0.458,-0.034l0.141,-0.013c0.169,-0.018 0.337,-0.04 0.531,-0.068l0.065,-0.01c1.029,-0.16 2.024,-0.453 2.972,-0.872c0.085,0.311 0.187,0.611 0.304,0.898c-0.654,0.235 -1.33,0.409 -2.021,0.517c-0.029,0.005 -0.057,0.008 -0.085,0.012c-0.155,0.023 -0.31,0.044 -0.466,0.06c-0.045,0.005 -0.09,0.008 -0.135,0.012c-0.14,0.013 -0.279,0.024 -0.42,0.032c-0.057,0.003 -0.113,0.005 -0.169,0.007c-0.13,0.005 -0.26,0.008 -0.39,0.008c-0.064,0 -0.128,-0 -0.192,-0.001c-0.124,-0.002 -0.247,-0.006 -0.371,-0.012c-0.07,-0.004 -0.138,-0.007 -0.207,-0.012c-0.12,-0.008 -0.24,-0.019 -0.36,-0.031c-0.072,-0.007 -0.144,-0.014 -0.217,-0.023c-0.117,-0.014 -0.235,-0.032 -0.354,-0.05c-0.073,-0.012 -0.146,-0.022 -0.218,-0.035c-0.12,-0.021 -0.24,-0.046 -0.36,-0.071c-0.071,-0.015 -0.141,-0.028 -0.212,-0.044c-0.13,-0.03 -0.258,-0.064 -0.387,-0.099c-0.061,-0.016 -0.121,-0.03 -0.182,-0.048c-0.188,-0.054 -0.376,-0.113 -0.564,-0.178Z" style="fill:#fdbed6;fill-rule:nonzero;"/>
        <path d="M12.047,47.8c-0.067,-0.107 -0.133,-0.215 -0.197,-0.325c-0.438,-1.333 -0.592,-2.757 -0.441,-4.203l0.189,-1.827c0.141,-1.345 0.051,-2.69 -0.257,-3.985c0.687,1.676 0.953,3.503 0.764,5.316l-0.19,1.826c-0.114,1.097 -0.063,2.171 0.132,3.198Z" style="fill:#fdbed6;fill-rule:nonzero;"/>
        <path d="M12.146,48.264c-0.11,-0.259 -0.208,-0.522 -0.296,-0.789c0.064,0.11 0.13,0.218 0.197,0.325c0.03,0.156 0.064,0.311 0.099,0.464Z" style="fill:#ecb5c9;fill-rule:nonzero;"/>
        <path d="M8.972,31.902l-0.185,-0.351c-0.721,-2.111 -0.719,-4.383 0.026,-6.541c0.924,-2.674 2.855,-4.782 5.438,-5.936l1.677,-0.748c2.157,-0.964 3.962,-2.53 5.219,-4.53l0.978,-1.554c1.526,-2.426 3.958,-4.06 6.753,-4.565c0.074,0.26 0.16,0.518 0.259,0.774c-2.543,0.704 -4.848,2.315 -6.373,4.74l-0.978,1.554c-1.16,1.844 -2.841,3.302 -4.829,4.19l-1.677,0.749c-4.819,2.152 -7.296,7.31 -6.308,12.218Z" style="fill:#fdbed6;fill-rule:nonzero;"/>
        <path d="M9.04,32.216c-0.092,-0.219 -0.177,-0.441 -0.253,-0.665l0.185,0.351c0.022,0.105 0.044,0.21 0.068,0.314Z" style="fill:#ecb5c9;fill-rule:nonzero;"/>
        <path d="M21.372,11.768l0.003,0.001l-0.003,-0.001Zm7.506,-4.091c-2.795,0.505 -5.227,2.139 -6.753,4.565l-0.978,1.554c-1.257,2 -3.062,3.566 -5.219,4.53l-1.677,0.748c-2.583,1.154 -4.514,3.262 -5.438,5.936c-0.924,2.674 -0.705,5.525 0.616,8.027l0.857,1.623c1.103,2.09 1.556,4.436 1.312,6.785l-0.189,1.827c-0.293,2.814 0.567,5.54 2.421,7.677c1.854,2.137 4.433,3.372 7.259,3.48l1.834,0.07c2.361,0.09 4.619,0.869 6.534,2.256l1.486,1.078c4.013,2.909 9.546,2.44 13.017,-0.965c-3.206,-2.499 -3.053,-6.05 -2.312,-8.201c-1.509,-0.897 -2.564,-2.325 -3.061,-4.139c-0.948,0.419 -1.943,0.712 -2.972,0.872l-0.065,0.01c-0.194,0.028 -0.362,0.05 -0.531,0.068l-0.141,0.013c-0.156,0.014 -0.307,0.026 -0.458,0.034l-0.159,0.007c-0.164,0.006 -0.305,0.01 -0.446,0.01l-0.208,-0.002c-0.134,-0.002 -0.268,-0.006 -0.402,-0.013l-0.222,-0.012c-0.131,-0.009 -0.26,-0.021 -0.389,-0.034l-0.233,-0.025c-0.13,-0.016 -0.258,-0.034 -0.386,-0.054l-0.235,-0.038c-0.13,-0.022 -0.259,-0.049 -0.389,-0.076l-0.064,-0.013c-0.055,-0.011 -0.11,-0.023 -0.166,-0.036c-0.139,-0.032 -0.278,-0.068 -0.417,-0.106l-0.06,-0.015c-0.046,-0.012 -0.091,-0.024 -0.136,-0.037c-0.778,-0.223 -1.557,-0.534 -2.278,-0.913c-0.524,-0.276 -1.029,-0.592 -1.503,-0.941c-1.386,-1.019 -2.557,-2.359 -3.386,-3.875c-0.183,-0.335 -0.351,-0.681 -0.5,-1.028c-0.454,-1.057 -0.752,-2.173 -0.885,-3.313c-0.046,-0.382 -0.071,-0.772 -0.078,-1.158c-0.026,-1.394 0.194,-2.775 0.653,-4.105c0.09,-0.262 0.191,-0.516 0.298,-0.767l0.078,-0.183c0.11,-0.247 0.225,-0.49 0.35,-0.726c0.004,-0.011 0.015,-0.029 0.021,-0.04c0.129,-0.24 0.253,-0.45 0.38,-0.657l0.099,-0.159c0.143,-0.225 0.291,-0.444 0.447,-0.656c0.172,-0.23 0.332,-0.429 0.497,-0.622l0.109,-0.128c0.176,-0.201 0.354,-0.395 0.541,-0.582c0.2,-0.199 0.389,-0.373 0.581,-0.541l0.112,-0.098c0.201,-0.172 0.409,-0.339 0.622,-0.499c0.222,-0.164 0.438,-0.312 0.659,-0.453l0.101,-0.066c0.451,-0.285 0.931,-0.544 1.424,-0.769l0.088,-0.04c0.494,-0.22 1.014,-0.411 1.542,-0.564l0.068,-0.02c0.207,-0.059 0.416,-0.112 0.628,-0.16c-1.991,-2.065 -3.012,-4.221 -3.037,-6.427c-0.029,-2.489 1.233,-4.347 1.998,-5.242c-0.578,-0.855 -0.998,-1.749 -1.259,-2.672Zm-11.318,47.887c-1.942,-0.67 -3.682,-1.843 -5.075,-3.448c-2.18,-2.513 -3.191,-5.719 -2.848,-9.028l0.19,-1.827c0.208,-1.998 -0.178,-3.993 -1.116,-5.77l-0.856,-1.623c-1.553,-2.942 -1.811,-6.295 -0.725,-9.439c1.086,-3.145 3.358,-5.623 6.395,-6.98l1.676,-0.749c1.835,-0.819 3.37,-2.151 4.439,-3.852l0.978,-1.554c1.959,-3.114 5.187,-5.118 8.854,-5.498c0.466,-0.049 0.889,0.272 0.969,0.733c0.201,1.161 0.723,2.287 1.552,3.347c0.29,0.371 0.241,0.903 -0.111,1.215c-0.018,0.016 -2.004,1.83 -1.962,4.5c0.032,2.124 1.31,4.266 3.797,6.364c0.278,0.235 0.386,0.616 0.27,0.962c-0.114,0.345 -0.428,0.586 -0.792,0.607c-0.242,0.015 -0.482,0.038 -0.72,0.07l-0.084,-0.429c-0.009,-0.009 -0.019,-0.017 -0.029,-0.025l0.063,0.46c-0.469,0.064 -0.937,0.162 -1.391,0.291l-0.064,0.019c-0.444,0.128 -0.886,0.29 -1.31,0.479l-0.051,0.024c-0.441,0.201 -0.849,0.421 -1.234,0.664l-0.081,0.053c-0.191,0.123 -0.376,0.248 -0.555,0.381c-0.192,0.142 -0.367,0.285 -0.539,0.432l-0.065,0.056c-0.193,0.17 -0.354,0.318 -0.509,0.472c-0.173,0.173 -0.326,0.338 -0.472,0.507l-0.096,0.112c-0.139,0.163 -0.275,0.332 -0.404,0.506l-0.029,0.037c-0.121,0.164 -0.245,0.351 -0.367,0.541l-0.085,0.135c-0.115,0.187 -0.227,0.378 -0.332,0.575c-0.006,0.01 -0.018,0.033 -0.023,0.043c-0.093,0.175 -0.189,0.383 -0.283,0.594l-0.066,0.151c-0.092,0.218 -0.178,0.435 -0.255,0.657c-0.391,1.132 -0.578,2.306 -0.556,3.492c0.005,0.327 0.027,0.658 0.066,0.983c0.113,0.97 0.367,1.918 0.753,2.819c0.126,0.295 0.27,0.589 0.425,0.874c0.706,1.29 1.702,2.43 2.879,3.296c0.404,0.297 0.833,0.565 1.278,0.8c0.613,0.322 1.274,0.586 1.94,0.777l0.167,0.044c0.119,0.032 0.237,0.064 0.357,0.091l0.193,0.04c0.111,0.024 0.221,0.047 0.33,0.066l0.203,0.032c0.108,0.016 0.216,0.033 0.325,0.046l0.164,0.017c0.145,0.015 0.256,0.025 0.366,0.033l0.19,0.01c0.114,0.006 0.227,0.01 0.341,0.011l0.174,0.001c0.121,0 0.24,-0.003 0.358,-0.007l0.156,-0.007c0.13,-0.007 0.26,-0.017 0.388,-0.029l0.122,-0.011c0.145,-0.015 0.287,-0.034 0.429,-0.055l0.046,-0.006c1.247,-0.194 2.407,-0.6 3.482,-1.211c0.257,-0.147 0.569,-0.156 0.837,-0.023c0.265,0.133 0.447,0.388 0.485,0.682c0.191,1.463 0.87,3.403 3.026,4.338c0.223,0.097 0.398,0.282 0.481,0.511c0.084,0.23 0.07,0.483 -0.038,0.702c-0.091,0.186 -2.204,4.644 2.19,7.312c0.222,0.135 0.374,0.36 0.417,0.616c0.042,0.256 -0.03,0.518 -0.196,0.716c-3.988,4.763 -11.057,5.637 -16.094,1.985l-1.487,-1.078c-1.626,-1.179 -3.548,-1.842 -5.555,-1.918l-1.835,-0.07c-1.201,-0.046 -2.363,-0.264 -3.461,-0.644Z" style="fill:#07042d;fill-rule:nonzero;"/>
        <path d="M48.251,57.978c0.003,-0.002 0.005,-0.003 0.008,-0.004c0.141,0.042 0.276,0.085 0.423,0.125c-0.146,-0.039 -0.289,-0.08 -0.431,-0.121Z" style="fill:#7faab5;fill-rule:nonzero;"/>
        <path d="M23.115,64.529c-0.012,-0.004 -0.025,-0.008 -0.037,-0.013c0.012,0.005 0.025,0.009 0.037,0.013Zm27.021,-2.594c0.002,-0 0.004,-0.002 0.006,-0.002c-0.002,0 -0.003,0.002 -0.006,0.002Zm0.038,-0.021c-0,-0 0.001,-0.001 0.001,-0.001c0,0 -0.001,0.001 -0.001,0.001Zm0.031,-0.018c0.002,-0.002 0.005,-0.003 0.008,-0.005c-0.003,0.002 -0.006,0.004 -0.008,0.005Z" style="fill:#7a7e8d;fill-rule:nonzero;"/>
        <path d="M23.115,64.529c-0.012,-0.004 -0.025,-0.008 -0.037,-0.013c-0.279,-0.096 -0.554,-0.197 -0.828,-0.3c-0.092,-0.035 -0.182,-0.071 -0.274,-0.106c-0.193,-0.075 -0.387,-0.151 -0.578,-0.229c-0.107,-0.044 -0.213,-0.088 -0.319,-0.133c-0.176,-0.075 -0.352,-0.15 -0.526,-0.227c-0.107,-0.047 -0.214,-0.095 -0.32,-0.143c-0.175,-0.079 -0.348,-0.16 -0.52,-0.242c-0.102,-0.048 -0.203,-0.096 -0.303,-0.145c-0.187,-0.091 -0.371,-0.184 -0.555,-0.279c-0.083,-0.042 -0.165,-0.083 -0.248,-0.126c-0.532,-0.278 -1.054,-0.57 -1.566,-0.874c-0.069,-0.041 -0.137,-0.084 -0.205,-0.125c-0.186,-0.113 -0.372,-0.227 -0.555,-0.343c-0.085,-0.053 -0.167,-0.107 -0.25,-0.16c-0.168,-0.109 -0.335,-0.218 -0.5,-0.329c-0.085,-0.057 -0.17,-0.115 -0.253,-0.173c-0.166,-0.113 -0.33,-0.228 -0.493,-0.345c-0.078,-0.055 -0.156,-0.11 -0.233,-0.166c-0.18,-0.131 -0.357,-0.264 -0.534,-0.398c-0.056,-0.042 -0.114,-0.085 -0.17,-0.128c-0.474,-0.364 -0.936,-0.741 -1.387,-1.129c-0.033,-0.029 -0.065,-0.058 -0.099,-0.087c-0.188,-0.163 -0.375,-0.329 -0.56,-0.497c-0.053,-0.048 -0.106,-0.098 -0.16,-0.147c-0.164,-0.152 -0.327,-0.305 -0.488,-0.46c-0.056,-0.053 -0.111,-0.107 -0.166,-0.16c-0.161,-0.158 -0.321,-0.317 -0.479,-0.477c-0.048,-0.049 -0.097,-0.097 -0.144,-0.146c-0.176,-0.182 -0.35,-0.365 -0.522,-0.55c-0.025,-0.028 -0.052,-0.055 -0.077,-0.082c-0.609,-0.661 -1.189,-1.346 -1.739,-2.052c-0.026,-0.032 -0.05,-0.064 -0.075,-0.096c-0.156,-0.202 -0.31,-0.406 -0.46,-0.611c-0.03,-0.04 -0.06,-0.08 -0.088,-0.119c-0.15,-0.206 -0.298,-0.413 -0.443,-0.622c-0.023,-0.033 -0.047,-0.066 -0.07,-0.1c-0.162,-0.235 -0.321,-0.471 -0.477,-0.71l-0.008,-0.013c-0.496,-0.763 -0.96,-1.545 -1.391,-2.345c-0.006,-0.011 -0.011,-0.021 -0.017,-0.031c-0.134,-0.25 -0.265,-0.502 -0.393,-0.755c-0.012,-0.025 -0.025,-0.05 -0.037,-0.075c-0.124,-0.247 -0.245,-0.496 -0.363,-0.747c-0.009,-0.019 -0.018,-0.038 -0.027,-0.057c-0.512,-1.096 -0.964,-2.22 -1.353,-3.367c-0.001,0.001 0,0.001 0,0.001c0.221,0.651 0.462,1.294 0.722,1.929c0.005,0.01 0.01,0.021 0.014,0.032c0.111,0.27 0.227,0.54 0.345,0.807c0.005,0.012 0.011,0.025 0.017,0.038c0.622,1.397 1.34,2.749 2.151,4.047l0.002,0.003c0.162,0.26 0.327,0.518 0.497,0.773l0.001,0.001l0,-0c-0.001,-0.001 -0.001,-0.001 -0.001,-0.001c-0.824,-1.511 -1.529,-3.086 -2.108,-4.71c3.825,6.06 9.659,10.911 16.959,13.432c9.245,3.193 18.943,1.996 26.827,-2.484c0.142,0.041 0.285,0.082 0.431,0.121c0,-0 -0.319,1.668 1.561,3.775c-0.01,0.005 -0.02,0.012 -0.03,0.017c-0.003,0.002 -0.006,0.003 -0.008,0.005c-0.01,0.006 -0.019,0.012 -0.03,0.017c0,0 -0.001,0.001 -0.001,0.001c-0.011,0.006 -0.021,0.012 -0.032,0.019c-0.002,0 -0.004,0.002 -0.006,0.002c-0.704,0.407 -1.424,0.788 -2.156,1.141c-0.028,0.013 -0.055,0.025 -0.082,0.038c-0.223,0.107 -0.446,0.211 -0.672,0.313c-0.05,0.023 -0.101,0.045 -0.151,0.067c-0.203,0.09 -0.406,0.179 -0.611,0.265c-0.063,0.026 -0.125,0.052 -0.188,0.078c-0.195,0.081 -0.39,0.16 -0.587,0.237c-0.067,0.026 -0.135,0.052 -0.204,0.078c-0.192,0.075 -0.387,0.147 -0.581,0.217c-0.07,0.026 -0.14,0.051 -0.21,0.076c-0.196,0.07 -0.393,0.137 -0.591,0.203c-0.068,0.023 -0.135,0.045 -0.203,0.068c-0.206,0.067 -0.414,0.132 -0.622,0.195c-0.058,0.018 -0.117,0.036 -0.175,0.054c-0.231,0.069 -0.464,0.135 -0.698,0.199c-0.035,0.01 -0.069,0.02 -0.104,0.029c-0.818,0.222 -1.647,0.412 -2.483,0.57c-0.05,0.01 -0.101,0.018 -0.151,0.027c-0.223,0.041 -0.445,0.08 -0.668,0.117c-0.077,0.012 -0.155,0.023 -0.232,0.035c-0.197,0.031 -0.396,0.06 -0.594,0.088c-0.09,0.012 -0.179,0.023 -0.269,0.034c-0.187,0.024 -0.375,0.047 -0.562,0.068c-0.096,0.01 -0.192,0.02 -0.289,0.03c-0.182,0.018 -0.365,0.035 -0.549,0.051c-0.099,0.008 -0.198,0.016 -0.298,0.024c-0.182,0.013 -0.364,0.025 -0.547,0.035c-0.099,0.006 -0.199,0.012 -0.299,0.017c-0.185,0.009 -0.371,0.016 -0.557,0.022c-0.096,0.003 -0.192,0.006 -0.288,0.009c-0.196,0.004 -0.392,0.005 -0.589,0.006c-0.085,0.001 -0.172,0.002 -0.257,0.002c-0.229,-0.001 -0.456,-0.005 -0.685,-0.011c-0.054,-0.001 -0.108,-0.001 -0.163,-0.003c-0.287,-0.009 -0.574,-0.02 -0.862,-0.037c-0.012,-0.001 -0.024,-0.002 -0.037,-0.002c-0.269,-0.016 -0.539,-0.035 -0.809,-0.057c-0.086,-0.007 -0.171,-0.016 -0.257,-0.024c-0.197,-0.018 -0.394,-0.037 -0.591,-0.058c-0.105,-0.011 -0.212,-0.025 -0.318,-0.038c-0.176,-0.021 -0.353,-0.042 -0.53,-0.066c-0.115,-0.016 -0.229,-0.033 -0.344,-0.05c-0.169,-0.025 -0.338,-0.05 -0.508,-0.078c-0.118,-0.019 -0.236,-0.04 -0.355,-0.06c-0.165,-0.029 -0.331,-0.059 -0.496,-0.091c-0.12,-0.022 -0.241,-0.046 -0.361,-0.07c-0.164,-0.034 -0.329,-0.069 -0.494,-0.104c-0.119,-0.026 -0.239,-0.053 -0.358,-0.08c-0.167,-0.038 -0.333,-0.079 -0.5,-0.12c-0.117,-0.029 -0.234,-0.057 -0.351,-0.087c-0.172,-0.045 -0.344,-0.092 -0.516,-0.139c-0.111,-0.031 -0.221,-0.06 -0.332,-0.092c-0.189,-0.054 -0.378,-0.112 -0.567,-0.17c-0.092,-0.028 -0.185,-0.055 -0.277,-0.084c-0.281,-0.089 -0.562,-0.181 -0.843,-0.278Z" style="fill:#d48744;fill-rule:nonzero;"/>
        <path d="M2.878,23.001c0.004,-0.012 0.009,-0.024 0.013,-0.036c-0.005,0.012 -0.009,0.023 -0.013,0.036Zm26.72,-19.115c0.21,-1.091 0.613,-2.044 1.015,-2.787c-0.402,0.742 -0.804,1.696 -1.014,2.787c0,0 0,0 -0.001,0Z" style="fill:#cff6f9;fill-rule:nonzero;"/>
        <path d="M4.465,47.03c-0.596,-0.945 -1.143,-1.919 -1.64,-2.919c-0.17,-0.501 -0.328,-1.007 -0.474,-1.517c-0.007,-0.025 -0.014,-0.05 -0.021,-0.075c-0.073,-0.26 -0.144,-0.521 -0.211,-0.782c-0.011,-0.041 -0.021,-0.082 -0.031,-0.123c-0.065,-0.256 -0.126,-0.513 -0.185,-0.77c-0.008,-0.035 -0.017,-0.07 -0.024,-0.105c-0.198,-0.884 -0.36,-1.777 -0.483,-2.678c-0.005,-0.033 -0.009,-0.067 -0.014,-0.101c-0.034,-0.256 -0.065,-0.513 -0.094,-0.771c-0.007,-0.065 -0.013,-0.131 -0.021,-0.196c-0.023,-0.23 -0.044,-0.459 -0.064,-0.69c-0.005,-0.074 -0.012,-0.148 -0.017,-0.221c-0.018,-0.232 -0.032,-0.464 -0.045,-0.697c-0.004,-0.065 -0.008,-0.131 -0.011,-0.196c-0.013,-0.277 -0.023,-0.553 -0.029,-0.83c-0,-0.019 -0.002,-0.037 -0.002,-0.055c-0.007,-0.308 -0.008,-0.617 -0.006,-0.925c-0,-0.017 0.001,-0.034 0,-0.052c0.003,-0.276 0.01,-0.552 0.019,-0.829c0.004,-0.081 0.008,-0.161 0.011,-0.242c0.009,-0.215 0.02,-0.431 0.033,-0.646c0.006,-0.097 0.014,-0.194 0.021,-0.29c0.014,-0.203 0.031,-0.407 0.049,-0.61c0.009,-0.099 0.018,-0.198 0.027,-0.297c0.022,-0.209 0.045,-0.42 0.07,-0.63c0.011,-0.089 0.021,-0.177 0.032,-0.266c0.034,-0.263 0.071,-0.526 0.111,-0.79c0.005,-0.033 0.009,-0.066 0.015,-0.099c0.046,-0.299 0.097,-0.598 0.153,-0.896c0.014,-0.076 0.03,-0.152 0.044,-0.228c0.043,-0.219 0.086,-0.438 0.133,-0.658c0.022,-0.104 0.046,-0.209 0.069,-0.313c0.043,-0.192 0.088,-0.385 0.135,-0.577c0.027,-0.112 0.054,-0.223 0.083,-0.334c0.048,-0.189 0.098,-0.378 0.15,-0.567c0.029,-0.109 0.059,-0.218 0.09,-0.327c0.058,-0.202 0.118,-0.403 0.179,-0.605c0.028,-0.093 0.056,-0.186 0.085,-0.279c0.088,-0.282 0.18,-0.562 0.276,-0.843c0.004,-0.013 0.008,-0.024 0.013,-0.036c0.143,-0.414 0.294,-0.822 0.451,-1.226c0.052,-0.131 0.107,-0.26 0.16,-0.39c0.11,-0.271 0.22,-0.542 0.336,-0.808c0.067,-0.153 0.137,-0.302 0.206,-0.454c0.109,-0.24 0.219,-0.48 0.333,-0.717c0.076,-0.157 0.155,-0.311 0.233,-0.467c0.114,-0.227 0.23,-0.453 0.349,-0.676c0.083,-0.155 0.167,-0.308 0.251,-0.462c0.122,-0.22 0.247,-0.438 0.373,-0.655c0.088,-0.15 0.176,-0.299 0.266,-0.446c0.131,-0.218 0.265,-0.432 0.402,-0.646c0.09,-0.141 0.18,-0.282 0.272,-0.422c0.146,-0.22 0.295,-0.437 0.446,-0.653c0.088,-0.127 0.175,-0.255 0.264,-0.38c0.174,-0.242 0.353,-0.479 0.533,-0.716c0.074,-0.097 0.145,-0.196 0.219,-0.292c0.041,-0.053 0.083,-0.104 0.125,-0.157c0.178,-0.225 0.358,-0.448 0.542,-0.668c0.067,-0.082 0.136,-0.163 0.205,-0.244c0.177,-0.208 0.356,-0.414 0.537,-0.617c0.054,-0.061 0.108,-0.122 0.162,-0.182c0.231,-0.255 0.466,-0.506 0.704,-0.752c0.06,-0.063 0.121,-0.123 0.182,-0.185c0.184,-0.188 0.371,-0.373 0.559,-0.557c0.082,-0.078 0.164,-0.157 0.246,-0.235c0.195,-0.185 0.392,-0.368 0.592,-0.548c0.059,-0.053 0.116,-0.108 0.175,-0.16c0.25,-0.222 0.502,-0.44 0.758,-0.654c0.084,-0.071 0.17,-0.14 0.256,-0.209c0.182,-0.151 0.367,-0.299 0.553,-0.445c0.098,-0.077 0.196,-0.154 0.294,-0.23c0.209,-0.16 0.421,-0.316 0.632,-0.471c0.067,-0.049 0.132,-0.099 0.2,-0.146c0.261,-0.188 0.526,-0.371 0.792,-0.55c0.107,-0.072 0.215,-0.142 0.322,-0.213c0.183,-0.119 0.366,-0.238 0.551,-0.354c0.111,-0.07 0.223,-0.14 0.335,-0.209c0.24,-0.147 0.483,-0.291 0.728,-0.433c0.098,-0.057 0.199,-0.113 0.298,-0.169c0.232,-0.13 0.464,-0.258 0.698,-0.383c0.111,-0.059 0.222,-0.116 0.332,-0.173c0.206,-0.107 0.412,-0.211 0.62,-0.312c0.1,-0.05 0.201,-0.1 0.302,-0.148c0.292,-0.14 0.586,-0.276 0.883,-0.407c0.085,-0.038 0.173,-0.074 0.259,-0.111c0.231,-0.1 0.462,-0.197 0.694,-0.292c0.106,-0.042 0.212,-0.085 0.318,-0.127c0.262,-0.103 0.525,-0.202 0.79,-0.299c0.055,-0.02 0.109,-0.041 0.164,-0.061c0.317,-0.113 0.636,-0.22 0.956,-0.324c0.09,-0.029 0.182,-0.057 0.273,-0.086c0.253,-0.079 0.507,-0.156 0.762,-0.229c0.085,-0.025 0.17,-0.05 0.255,-0.074c0.332,-0.092 0.665,-0.18 1,-0.262c0.037,-0.009 0.074,-0.017 0.11,-0.026c0.304,-0.073 0.609,-0.142 0.915,-0.206c0.083,-0.018 0.166,-0.035 0.25,-0.052c0.306,-0.062 0.612,-0.12 0.921,-0.174c0.037,-0.006 0.073,-0.013 0.11,-0.02c0.353,-0.059 0.707,-0.113 1.062,-0.161c0.057,-0.008 0.114,-0.015 0.171,-0.022c0.305,-0.04 0.611,-0.076 0.919,-0.107c0.039,-0.004 0.077,-0.008 0.116,-0.012c-0.402,0.743 -0.805,1.696 -1.015,2.787c-3.998,0.708 -7.822,2.152 -11.272,4.24c-0.517,1.294 -1.537,2.672 -2.953,3.841c-1.423,1.175 -2.977,1.918 -4.351,2.177c-2.873,3.173 -5.168,6.964 -6.654,11.266c-2.519,7.296 -2.306,14.874 0.097,21.62Z" style="fill:#ffe2b8;fill-rule:nonzero;"/>
        <path d="M6.574,51.741c-0.001,-0.001 -0.001,-0.001 0,-0l-0,-0Zm-0.001,-0.001c-0.17,-0.255 -0.335,-0.513 -0.497,-0.773l-0.002,-0.003c-0.811,-1.298 -1.529,-2.65 -2.151,-4.047c-0.006,-0.013 -0.012,-0.026 -0.017,-0.038c-0.118,-0.267 -0.234,-0.537 -0.345,-0.807c-0.004,-0.011 -0.009,-0.022 -0.014,-0.032c-0.26,-0.635 -0.501,-1.278 -0.722,-1.929c0.497,1 1.044,1.974 1.64,2.919c0.579,1.624 1.284,3.199 2.109,4.711" style="fill:#eecfb4;fill-rule:nonzero;"/>
        <path d="M48.682,58.099l0.005,0.001l-0.005,-0.001Zm-19.835,-55.669c-11.447,1.823 -21.107,9.855 -24.919,20.893c-5.686,16.463 3.083,34.483 19.546,40.169c8.305,2.868 17.391,2.146 25.125,-1.96c-0.676,-1.039 -0.923,-1.952 -1.002,-2.607c-3.017,-0.964 -5.027,-2.515 -5.985,-4.639c-0.968,-2.147 -0.578,-4.3 -0.198,-5.519c-1.426,-0.889 -2.442,-2.248 -2.962,-3.957c-2.729,1.14 -5.798,1.25 -8.621,0.275c-6.314,-2.18 -9.677,-9.091 -7.496,-15.405c1.35,-3.91 4.54,-6.79 8.442,-7.783c-1.865,-2.025 -2.82,-4.138 -2.845,-6.304c-0.029,-2.444 1.156,-4.296 1.947,-5.257c-1.942,-2.961 -1.716,-5.821 -1.032,-7.906Zm-6.09,63.137c-17.607,-6.081 -26.985,-25.353 -20.904,-42.961c4.298,-12.443 15.545,-21.315 28.653,-22.601c0.403,-0.04 0.797,0.146 1.021,0.485c0.226,0.338 0.245,0.773 0.052,1.13c-1.078,1.993 -1.854,5.021 0.577,8.128c0.358,0.457 0.298,1.114 -0.137,1.499c-0.015,0.014 -1.934,1.773 -1.893,4.345c0.035,2.061 1.287,4.149 3.724,6.205c0.344,0.29 0.476,0.759 0.334,1.185c-0.141,0.426 -0.528,0.723 -0.976,0.749c-4.029,0.237 -7.482,2.854 -8.798,6.666c-1.786,5.17 0.968,10.828 6.138,12.614c2.691,0.929 5.658,0.654 8.139,-0.756c0.317,-0.181 0.705,-0.191 1.032,-0.028c0.327,0.163 0.552,0.478 0.599,0.84c0.184,1.41 0.836,3.279 2.902,4.175c0.276,0.12 0.491,0.348 0.594,0.631c0.104,0.283 0.086,0.595 -0.048,0.865c-0.01,0.02 -1.162,2.432 -0.144,4.663c0.76,1.67 2.562,2.894 5.344,3.638c0.549,0.145 0.892,0.685 0.799,1.242c-0.011,0.088 -0.124,1.27 1.297,2.862c0.22,0.246 0.316,0.577 0.265,0.903c-0.052,0.325 -0.247,0.61 -0.532,0.776c-8.515,4.957 -18.734,5.958 -28.038,2.745Z" style="fill:#07042d;fill-rule:nonzero;"/>
        <path d="M24.072,16.583l0.83,4.295c0.062,0.317 -0.145,0.624 -0.462,0.685l-0.167,0.032c-0.317,0.061 -0.623,-0.146 -0.684,-0.463l-0.831,-4.295c-0.061,-0.317 0.147,-0.623 0.463,-0.684l0.166,-0.033c0.317,-0.061 0.624,0.146 0.685,0.463Z" style="fill:#73c7f3;fill-rule:nonzero;"/>
        <path d="M17.519,23.187l-3.483,0.344c-0.293,0.029 -0.554,-0.185 -0.583,-0.478l-0.027,-0.27c-0.029,-0.293 0.185,-0.554 0.478,-0.583l3.483,-0.345c0.293,-0.029 0.554,0.185 0.583,0.478l0.027,0.271c0.029,0.293 -0.185,0.554 -0.478,0.583Z" style="fill:#aed581;fill-rule:nonzero;"/>
        <path d="M18.57,26.711l0.638,3.296c0.055,0.284 -0.131,0.559 -0.415,0.614l-0.285,0.055c-0.284,0.055 -0.559,-0.131 -0.614,-0.415l-0.638,-3.296c-0.054,-0.284 0.131,-0.559 0.416,-0.614l0.285,-0.055c0.284,-0.055 0.559,0.131 0.613,0.415Z" style="fill:#ffd54f;fill-rule:nonzero;"/>
        <path d="M15.701,35.576l-3.203,-1.708c-0.262,-0.14 -0.362,-0.466 -0.223,-0.729l0.123,-0.229c0.14,-0.263 0.467,-0.362 0.73,-0.222l3.203,1.707c0.262,0.14 0.362,0.467 0.222,0.73l-0.122,0.228c-0.14,0.263 -0.467,0.363 -0.73,0.223Z" style="fill:#73c7f3;fill-rule:nonzero;"/>
        <path d="M17.658,41.521l0.968,-2.802c0.089,-0.258 0.371,-0.395 0.628,-0.306l0.331,0.114c0.258,0.089 0.394,0.37 0.305,0.628l-0.968,2.803c-0.089,0.258 -0.37,0.395 -0.628,0.306l-0.331,-0.114c-0.257,-0.089 -0.394,-0.37 -0.305,-0.629Z" style="fill:#aed581;fill-rule:nonzero;"/>
        <path d="M15.216,45.407l2.737,2.02c0.234,0.172 0.283,0.501 0.11,0.734l-0.17,0.232c-0.172,0.233 -0.501,0.283 -0.735,0.11l-2.737,-2.02c-0.233,-0.172 -0.283,-0.501 -0.11,-0.734l0.17,-0.232c0.173,-0.233 0.502,-0.283 0.735,-0.11Z" style="fill:#73c7f3;fill-rule:nonzero;"/>
        <path d="M24.164,48.081l-1.323,-2.72c-0.122,-0.251 -0.018,-0.554 0.233,-0.676l0.294,-0.143c0.252,-0.122 0.554,-0.018 0.676,0.233l1.324,2.72c0.122,0.251 0.017,0.554 -0.234,0.676l-0.294,0.143c-0.251,0.122 -0.553,0.018 -0.676,-0.233Z" style="fill:#ffd54f;fill-rule:nonzero;"/>
        <path d="M30.707,52.194l-3.143,0.988c-0.274,0.086 -0.567,-0.067 -0.653,-0.341l-0.089,-0.283c-0.086,-0.275 0.067,-0.567 0.341,-0.653l3.143,-0.988c0.274,-0.086 0.566,0.066 0.652,0.341l0.089,0.283c0.086,0.274 -0.066,0.566 -0.34,0.653Z" style="fill:#aed581;fill-rule:nonzero;"/>
        <path d="M35.901,50.482l-2.355,-2.038c-0.212,-0.183 -0.234,-0.504 -0.051,-0.716l0.211,-0.244c0.184,-0.212 0.504,-0.235 0.716,-0.051l2.355,2.037c0.212,0.183 0.235,0.504 0.051,0.716l-0.21,0.244c-0.184,0.212 -0.504,0.236 -0.717,0.052Z" style="fill:#73c7f3;fill-rule:nonzero;"/>
        <path d="M38.793,56.37l-3.071,0.594c-0.276,0.053 -0.544,-0.128 -0.598,-0.404l-0.06,-0.312c-0.054,-0.277 0.127,-0.545 0.404,-0.598l3.071,-0.594c0.277,-0.053 0.544,0.127 0.597,0.404l0.061,0.312c0.053,0.277 -0.128,0.544 -0.404,0.598Z" style="fill:#ffd54f;fill-rule:nonzero;"/>
    </g>
    <path d="M63.684,41.245c-0.35,0 -0.652,-0.126 -0.905,-0.379c-0.253,-0.253 -0.379,-0.555 -0.379,-0.905c-0,-0.156 0.019,-0.292 0.058,-0.409l13.021,-37.253c0.117,-0.428 0.389,-0.856 0.818,-1.284c0.428,-0.428 1.031,-0.643 1.81,-0.643l12.67,0c0.779,0 1.382,0.215 1.81,0.643c0.428,0.428 0.701,0.856 0.818,1.284l13.021,37.253c0.038,0.117 0.058,0.253 0.058,0.409c-0,0.35 -0.127,0.652 -0.38,0.905c-0.253,0.253 -0.554,0.379 -0.905,0.379l-10.802,0c-0.739,0 -1.275,-0.165 -1.605,-0.496c-0.331,-0.331 -0.555,-0.652 -0.672,-0.964l-1.401,-3.853l-12.554,-0l-1.401,3.853c-0.117,0.312 -0.331,0.633 -0.643,0.964c-0.311,0.331 -0.856,0.496 -1.635,0.496l-10.802,0Zm17.459,-16.699l6.598,-0l-3.328,-10.861l-3.27,10.861Z" style="fill:#07042d;fill-rule:nonzero;"/>
    <path d="M120.205,41.245c-0.428,0 -0.798,-0.156 -1.109,-0.467c-0.311,-0.311 -0.467,-0.681 -0.467,-1.109l-0,-23.59l-6.54,5.022c-0.389,0.272 -0.778,0.36 -1.167,0.263c-0.39,-0.098 -0.74,-0.341 -1.051,-0.73l-5.139,-6.657c-0.194,-0.389 -0.253,-0.807 -0.175,-1.255c0.078,-0.448 0.311,-0.788 0.701,-1.022l14.072,-10.919c0.194,-0.155 0.389,-0.263 0.584,-0.321c0.194,-0.058 0.428,-0.088 0.7,-0.088l11.036,0c0.428,0 0.798,0.156 1.109,0.468c0.312,0.311 0.467,0.681 0.467,1.109l0,37.72c0,0.428 -0.155,0.798 -0.467,1.109c-0.311,0.311 -0.681,0.467 -1.109,0.467l-11.445,0Z" style="fill:#07042d;fill-rule:nonzero;"/>
    <path d="M152.728,41.245c-0.428,0 -0.798,-0.156 -1.109,-0.467c-0.311,-0.311 -0.467,-0.681 -0.467,-1.109l-0,-23.59l-6.54,5.022c-0.389,0.272 -0.778,0.36 -1.168,0.263c-0.389,-0.098 -0.739,-0.341 -1.051,-0.73l-5.138,-6.657c-0.194,-0.389 -0.253,-0.807 -0.175,-1.255c0.078,-0.448 0.311,-0.788 0.701,-1.022l14.072,-10.919c0.194,-0.155 0.389,-0.263 0.583,-0.321c0.195,-0.058 0.429,-0.088 0.701,-0.088l11.036,0c0.428,0 0.798,0.156 1.109,0.468c0.312,0.311 0.467,0.681 0.467,1.109l0,37.72c0,0.428 -0.155,0.798 -0.467,1.109c-0.311,0.311 -0.681,0.467 -1.109,0.467l-11.445,0Z" style="fill:#07042d;fill-rule:nonzero;"/>
    <path d="M184.025,41.245c-0.428,0 -0.798,-0.156 -1.109,-0.467c-0.312,-0.311 -0.467,-0.681 -0.467,-1.109l-0,-11.503l-13.138,-25.983c-0.039,-0.078 -0.068,-0.166 -0.088,-0.263c-0.019,-0.098 -0.029,-0.185 -0.029,-0.263c0,-0.35 0.127,-0.652 0.38,-0.905c0.253,-0.253 0.555,-0.38 0.905,-0.38l10.977,0c0.779,0 1.363,0.195 1.752,0.584c0.389,0.39 0.623,0.682 0.7,0.876l5.839,11.737l5.839,-11.737c0.078,-0.194 0.312,-0.486 0.701,-0.876c0.389,-0.389 0.973,-0.584 1.752,-0.584l10.977,0c0.35,0 0.652,0.127 0.905,0.38c0.253,0.253 0.38,0.555 0.38,0.905c-0,0.078 -0.01,0.165 -0.03,0.263c-0.019,0.097 -0.048,0.185 -0.087,0.263l-13.138,25.983l0,11.503c0,0.428 -0.156,0.798 -0.467,1.109c-0.311,0.311 -0.681,0.467 -1.109,0.467l-11.445,0Z" style="fill:#07042d;fill-rule:nonzero;"/>
</svg>
