<?xml version="1.0" encoding="UTF-8" standalone="no"?>
<!DOCTYPE svg PUBLIC "-//W3C//DTD SVG 1.1//EN" "http://www.w3.org/Graphics/SVG/1.1/DTD/svg11.dtd">
<svg width="100%" height="100%" viewBox="0 0 231 68" version="1.1" xmlns="http://www.w3.org/2000/svg" xmlns:xlink="http://www.w3.org/1999/xlink" xml:space="preserve" xmlns:serif="http://www.serif.com/" style="fill-rule:evenodd;clip-rule:evenodd;stroke-linejoin:round;stroke-miterlimit:2;">
    <g>
        <path d="M36.966,64.691l-21.564,0l0,3.08l21.564,0l0,-3.08Zm-21.564,-3.081l-6.161,0l0,3.08l6.161,0l0,-3.08Zm27.725,0l-6.161,0l0,3.08l6.161,0l0,-3.08Zm3.08,-3.08l-3.08,0l0,3.08l3.08,0l0,-3.08Zm-36.966,0l-3.08,0l0,3.08l3.08,0l0,-3.08Zm40.046,-6.161l-3.08,0l0,6.161l3.08,0l0,-6.161Zm-43.127,0l-3.08,0l0,6.161l3.08,0l0,-6.161Zm46.208,-9.241l-3.08,0l0,9.241l3.08,0l0,-9.241Zm-49.288,0l-3.08,0l0,9.241l3.08,0l0,-9.241Zm46.207,-3.081l-3.08,0l0,3.081l3.08,0l0,-3.081Zm-43.127,0l-3.08,0l0,3.081l3.08,0l0,-3.081Zm40.047,-3.081l-3.08,0l0,3.08l3.08,0l0,-3.08Zm-36.966,0l-3.08,0l0,3.08l3.08,0l0,-3.08Zm33.886,-3.08l-3.08,0l0,3.08l3.08,0l0,-3.08Zm-30.806,0l-3.08,0l0,3.08l3.08,0l0,-3.08Zm6.162,-3.081l-6.161,0l0,3.08l6.161,0l0,-3.08Zm21.564,-0l-6.161,-0l0,3.08l6.161,0l0,-3.08Zm-6.161,-3.08l-3.081,-0l0,3.08l3.081,-0l0,-3.08Zm-18.484,-9.242l3.081,-0l0,12.322l3.08,-0l0,-12.322l9.242,-0l0,9.241l3.081,-0l0,-9.241l3.08,-0l0,-3.081l-21.564,-0l0,3.081Zm24.644,-6.161l-3.08,-0l0,3.08l3.08,-0l0,-3.08Zm-24.644,-0l-3.08,-0l0,3.08l3.08,-0l0,-3.08Zm6.161,-9.242l-3.08,-0l0,6.161l-3.081,-0l0,3.08l21.564,-0l0,-3.08l-3.08,-0l0,-6.161l-3.081,-0l0,6.161l-9.242,-0l0,-6.161l9.241,-0l0,-3.08l-9.241,-0l0,3.08Z"/>
        <path d="M12.322,58.53l-0,-3.081l-3.081,0l-0,-6.16l-3.08,0l-0,-6.161l-3.081,0l-0,9.241l3.081,0l-0,6.161l3.08,0l-0,3.08l33.886,0l0,-3.08l3.08,0l0,-6.161l3.081,0l0,-9.241l-12.322,0l0,9.241l-3.08,0l0,3.08l-3.081,0l0,3.081l-18.483,0Z" style="fill:#ce1f56;fill-rule:nonzero;"/>
        <rect x="15.402" y="61.61" width="21.564" height="3.08" style="fill:#ba1c4e;"/>
        <path d="M12.322,40.047l30.805,-0l-0,-3.081l-3.08,-0l-0,-3.08l-12.322,-0l-0,-3.081l-3.081,-0l-0,-12.322l-3.081,-0l-0,12.322l-3.08,-0l-0,3.081l-3.081,-0l-0,3.08l15.403,-0l-18.483,-0l-0,3.081Z" style="fill:#5faa77;fill-rule:nonzero;"/>
        <rect x="24.644" y="18.483" width="3.081" height="12.322" style="fill:#e6e2ad;"/>
        <rect x="21.563" y="30.805" width="3.08" height="3.08" style="fill:#e6e2ad;"/>
        <rect x="21.563" y="6.161" width="9.241" height="3.08" style="fill:#c9704f;"/>
        <rect x="27.725" y="3.08" width="3.08" height="3.08" style="fill:#c9704f;"/>
        <rect x="21.563" y="3.08" width="6.162" height="3.08" style="fill:#eda661;"/>
        <path d="M12.322,55.449l-0,3.081l18.483,0l0,-3.081l3.081,0l0,-3.08l3.08,0l0,-9.241l-3.08,0l0,3.08l-3.081,0l0,-3.08l-24.644,0l0,6.161l3.08,0l0,6.16l3.081,0Zm30.805,-3.08l-3.08,0l-0,3.08l3.08,0l-0,-3.08Zm3.08,-6.161l-3.08,0l-0,3.081l3.08,0l-0,-3.081Zm-0,-3.08l-0,-3.081l-9.241,0l-0,3.081l9.241,0Z" style="fill:#e55381;fill-rule:nonzero;"/>
        <path d="M27.725,55.449l-3.081,0l-0,3.08l3.081,0l0,-3.08Zm-6.162,-9.241l-3.08,0l0,3.08l3.08,0l0,-3.08Zm-12.322,0l-3.08,0l0,3.08l3.08,0l0,-3.08Zm-3.08,-3.08l24.644,0l-0,3.08l3.081,0l0,-3.08l3.08,0l0,-3.081l-30.805,0l0,3.081Z" style="fill:#e58faa;"/>
        <path d="M18.483,52.369l-3.081,0l0,3.08l3.081,0l0,-3.08Zm-6.161,-12.322l0,12.322l3.08,0l0,-12.322l-3.08,0Zm6.161,-3.081l-3.081,0l0,3.081l3.081,0l0,-3.081Z" style="fill:#ffffeb;fill-rule:nonzero;"/>
        <path d="M30.805,36.966l3.081,0l0,3.081l6.161,0l0,-3.081l-3.081,0l0,-3.08l-3.08,0l0,-3.081l-3.081,0l0,-12.322l-3.08,0l0,15.403l3.08,0l0,3.08Zm-18.483,0l-3.081,0l0,3.081l3.081,0l0,-3.081Zm3.08,-3.08l-3.08,0l0,3.08l3.08,0l0,-3.08Zm21.564,-18.484l0,-3.08l-21.564,0l0,3.08l21.564,0Z" style="fill:#195b4e;fill-rule:nonzero;"/>
    </g>
    <g transform="matrix(1.00868,0,0,1.00868,9.2232,17.0787)">
        <g transform="matrix(24.239,0,0,24.239,58.6975,11.5589)">
            <path d="M0.545,-0.379c0.076,0.031 0.114,0.086 0.114,0.166c0,0.067 -0.025,0.119 -0.075,0.157c-0.05,0.037 -0.119,0.056 -0.206,0.056l-0.306,-0l-0,-0.732l0.281,0c0.079,0 0.143,0.018 0.194,0.053c0.051,0.035 0.076,0.087 0.076,0.154c-0,0.065 -0.026,0.114 -0.078,0.146Zm-0.306,-0.206l-0,0.144l0.1,-0c0.033,-0 0.059,-0.007 0.078,-0.021c0.019,-0.014 0.029,-0.033 0.029,-0.056c-0,-0.022 -0.009,-0.039 -0.028,-0.05c-0.019,-0.011 -0.045,-0.017 -0.079,-0.017l-0.1,0Zm0.129,0.437c0.036,0 0.064,-0.006 0.084,-0.019c0.02,-0.013 0.03,-0.032 0.03,-0.056c-0,-0.024 -0.01,-0.043 -0.031,-0.056c-0.02,-0.014 -0.048,-0.021 -0.084,-0.021l-0.128,0l-0,0.152l0.129,0Z" style="fill:#062442;fill-rule:nonzero;"/>
        </g>
        <g transform="matrix(24.239,0,0,24.239,75.4952,11.5589)">
            <rect x="0.072" y="-0.732" width="0.171" height="0.732" style="fill:#062442;fill-rule:nonzero;"/>
        </g>
        <g transform="matrix(24.239,0,0,24.239,83.1305,11.5589)">
            <path d="M0.007,-0.732l0.61,0l0,0.151l-0.22,0l0,0.581l-0.17,-0l0,-0.581l-0.22,0l-0,-0.151Z" style="fill:#062442;fill-rule:nonzero;"/>
        </g>
        <g transform="matrix(24.239,0,0,24.239,98.2556,11.5589)">
            <path d="M0.529,-0.295l-0.286,0l0,0.147l0.331,0l-0,0.148l-0.502,-0l-0,-0.732l0.49,0l0,0.147l-0.319,0l-0,0.144l0.286,-0l-0,0.146Z" style="fill:#062442;fill-rule:nonzero;"/>
        </g>
        <g transform="matrix(24.239,0,0,24.239,113.138,11.5589)">
            <rect x="0.056" y="-0.37" width="0.381" height="0.136" style="fill:#062442;fill-rule:nonzero;"/>
        </g>
        <g transform="matrix(24.239,0,0,24.239,125.064,11.5589)">
            <path d="M0.582,-0.215c0,0.054 -0.014,0.098 -0.042,0.132c-0.029,0.034 -0.064,0.058 -0.107,0.074c-0.043,0.014 -0.086,0.022 -0.131,0.022c-0.067,-0 -0.129,-0.016 -0.185,-0.047c-0.056,-0.031 -0.093,-0.075 -0.112,-0.134l0.138,-0.079c0.015,0.034 0.036,0.06 0.065,0.079c0.028,0.019 0.061,0.028 0.1,0.028c0.029,-0 0.052,-0.006 0.07,-0.017c0.017,-0.011 0.026,-0.027 0.026,-0.048c0,-0.017 -0.006,-0.032 -0.018,-0.043c-0.012,-0.011 -0.027,-0.021 -0.045,-0.028c-0.018,-0.007 -0.043,-0.016 -0.076,-0.025c-0.048,-0.014 -0.087,-0.028 -0.117,-0.042c-0.031,-0.014 -0.057,-0.035 -0.079,-0.064c-0.022,-0.028 -0.033,-0.065 -0.033,-0.111c0,-0.051 0.013,-0.093 0.04,-0.127c0.026,-0.034 0.06,-0.059 0.103,-0.076c0.042,-0.017 0.087,-0.025 0.136,-0.025c0.064,0 0.12,0.015 0.168,0.044c0.048,0.029 0.079,0.071 0.093,0.125l-0.14,0.079c-0.011,-0.03 -0.027,-0.053 -0.049,-0.07c-0.023,-0.017 -0.05,-0.025 -0.082,-0.025c-0.027,0 -0.049,0.006 -0.066,0.019c-0.017,0.013 -0.026,0.029 -0.026,0.049c0,0.015 0.006,0.028 0.018,0.039c0.011,0.011 0.026,0.019 0.043,0.026c0.017,0.007 0.042,0.015 0.074,0.025c0.049,0.015 0.089,0.029 0.12,0.043c0.031,0.015 0.057,0.036 0.08,0.065c0.023,0.029 0.034,0.066 0.034,0.112Z" style="fill:#062442;fill-rule:nonzero;"/>
        </g>
        <g transform="matrix(24.239,0,0,24.239,139.632,11.5589)">
            <rect x="0.072" y="-0.732" width="0.171" height="0.732" style="fill:#062442;fill-rule:nonzero;"/>
        </g>
        <g transform="matrix(24.239,0,0,24.239,147.267,11.5589)">
            <path d="M0.568,-0.732l-0,0.097l-0.317,0.483l0.331,0l-0,0.152l-0.569,0l-0,-0.097l0.319,-0.484l-0.288,0l0,-0.151l0.524,0Z" style="fill:#062442;fill-rule:nonzero;"/>
        </g>
        <g transform="matrix(24.239,0,0,24.239,161.762,11.5589)">
            <path d="M0.529,-0.295l-0.286,0l0,0.147l0.331,0l-0,0.148l-0.502,-0l-0,-0.732l0.49,0l0,0.147l-0.319,0l-0,0.144l0.286,-0l-0,0.146Z" style="fill:#062442;fill-rule:nonzero;"/>
        </g>
        <g transform="matrix(24.239,0,0,24.239,176.645,11.5589)">
            <path d="M0.336,-0.732c0.071,0 0.136,0.014 0.194,0.043c0.058,0.029 0.104,0.07 0.137,0.125c0.034,0.055 0.051,0.121 0.051,0.197c-0,0.076 -0.017,0.142 -0.051,0.197c-0.033,0.055 -0.079,0.097 -0.137,0.126c-0.057,0.029 -0.122,0.044 -0.194,0.044l-0.264,-0l-0,-0.732l0.264,-0Zm-0.019,0.588c0.073,-0 0.128,-0.019 0.165,-0.058c0.037,-0.039 0.056,-0.094 0.056,-0.165c0,-0.071 -0.019,-0.125 -0.057,-0.164c-0.037,-0.038 -0.092,-0.057 -0.164,-0.057l-0.074,0l-0,0.444l0.074,-0Z" style="fill:#062442;fill-rule:nonzero;"/>
        </g>
        <g transform="matrix(24.239,0,0,24.239,58.6975,40.2866)">
            <path d="M0.345,-0.732l0.291,0.732l-0.067,-0l-0.089,-0.23l-0.32,0l-0.086,0.23l-0.061,-0l0.282,-0.732l0.05,0Zm0.115,0.448l-0.142,-0.367l-0.138,0.367l0.28,0Z" style="fill:#062442;fill-rule:nonzero;"/>
        </g>
        <g transform="matrix(24.239,0,0,24.239,73.7984,40.2866)">
            <path d="M0.377,-0.045c0.045,0 0.084,-0.011 0.114,-0.033c0.031,-0.021 0.055,-0.05 0.072,-0.087l0.048,0.028c-0.018,0.045 -0.047,0.08 -0.089,0.107c-0.041,0.027 -0.089,0.04 -0.144,0.04c-0.061,-0 -0.115,-0.016 -0.165,-0.047c-0.048,-0.032 -0.087,-0.077 -0.115,-0.134c-0.028,-0.057 -0.042,-0.123 -0.042,-0.196c0,-0.073 0.014,-0.138 0.042,-0.196c0.028,-0.057 0.067,-0.101 0.116,-0.133c0.049,-0.031 0.103,-0.047 0.164,-0.047c0.055,0 0.103,0.013 0.144,0.04c0.041,0.027 0.071,0.062 0.089,0.107l-0.048,0.028c-0.017,-0.037 -0.04,-0.066 -0.071,-0.088c-0.031,-0.021 -0.07,-0.032 -0.115,-0.032c-0.051,0 -0.095,0.013 -0.134,0.04c-0.039,0.027 -0.07,0.065 -0.091,0.114c-0.022,0.049 -0.033,0.104 -0.033,0.167c0,0.063 0.011,0.118 0.033,0.167c0.021,0.049 0.052,0.087 0.091,0.114c0.039,0.027 0.083,0.041 0.134,0.041Z" style="fill:#062442;fill-rule:nonzero;"/>
        </g>
        <g transform="matrix(24.239,0,0,24.239,88.9478,40.2866)">
            <path d="M0.377,-0.045c0.045,0 0.084,-0.011 0.114,-0.033c0.031,-0.021 0.055,-0.05 0.072,-0.087l0.048,0.028c-0.018,0.045 -0.047,0.08 -0.089,0.107c-0.041,0.027 -0.089,0.04 -0.144,0.04c-0.061,-0 -0.115,-0.016 -0.165,-0.047c-0.048,-0.032 -0.087,-0.077 -0.115,-0.134c-0.028,-0.057 -0.042,-0.123 -0.042,-0.196c0,-0.073 0.014,-0.138 0.042,-0.196c0.028,-0.057 0.067,-0.101 0.116,-0.133c0.049,-0.031 0.103,-0.047 0.164,-0.047c0.055,0 0.103,0.013 0.144,0.04c0.041,0.027 0.071,0.062 0.089,0.107l-0.048,0.028c-0.017,-0.037 -0.04,-0.066 -0.071,-0.088c-0.031,-0.021 -0.07,-0.032 -0.115,-0.032c-0.051,0 -0.095,0.013 -0.134,0.04c-0.039,0.027 -0.07,0.065 -0.091,0.114c-0.022,0.049 -0.033,0.104 -0.033,0.167c0,0.063 0.011,0.118 0.033,0.167c0.021,0.049 0.052,0.087 0.091,0.114c0.039,0.027 0.083,0.041 0.134,0.041Z" style="fill:#062442;fill-rule:nonzero;"/>
        </g>
        <g transform="matrix(24.239,0,0,24.239,104.461,40.2866)">
            <path d="M0.479,-0.353l-0.326,0l-0,0.3l0.373,-0l0,0.053l-0.433,-0l-0,-0.733l0.422,0l0,0.053l-0.362,-0l-0,0.274l0.326,-0l-0,0.053Z" style="fill:#062442;fill-rule:nonzero;"/>
        </g>
        <g transform="matrix(24.239,0,0,24.239,118.495,40.2866)">
            <path d="M0.518,-0.195c0,0.063 -0.021,0.113 -0.062,0.15c-0.041,0.037 -0.096,0.055 -0.167,0.055c-0.065,-0 -0.122,-0.015 -0.17,-0.046c-0.048,-0.031 -0.08,-0.073 -0.095,-0.126l0.048,-0.028c0.016,0.045 0.043,0.081 0.081,0.107c0.039,0.025 0.084,0.038 0.136,0.038c0.052,0 0.093,-0.013 0.122,-0.039c0.03,-0.025 0.045,-0.06 0.045,-0.105c0,-0.034 -0.009,-0.062 -0.026,-0.083c-0.017,-0.021 -0.039,-0.038 -0.065,-0.05c-0.025,-0.012 -0.06,-0.025 -0.103,-0.038c-0.046,-0.015 -0.083,-0.029 -0.11,-0.042c-0.027,-0.013 -0.051,-0.031 -0.07,-0.056c-0.019,-0.024 -0.028,-0.055 -0.028,-0.094c-0,-0.041 0.01,-0.075 0.03,-0.104c0.021,-0.029 0.048,-0.05 0.083,-0.065c0.035,-0.015 0.074,-0.022 0.116,-0.022c0.06,-0 0.109,0.014 0.148,0.041c0.039,0.028 0.064,0.063 0.074,0.104l-0.048,0.028c-0.011,-0.036 -0.032,-0.065 -0.062,-0.087c-0.029,-0.021 -0.067,-0.032 -0.114,-0.032c-0.048,-0 -0.087,0.012 -0.118,0.035c-0.031,0.023 -0.046,0.056 -0.046,0.097c-0,0.029 0.008,0.052 0.023,0.07c0.016,0.018 0.036,0.032 0.059,0.042c0.023,0.011 0.055,0.022 0.095,0.035c0.048,0.015 0.087,0.029 0.117,0.043c0.03,0.015 0.055,0.036 0.076,0.063c0.021,0.027 0.031,0.064 0.031,0.109Z" style="fill:#062442;fill-rule:nonzero;"/>
        </g>
        <g transform="matrix(24.239,0,0,24.239,132.287,40.2866)">
            <path d="M0.518,-0.195c0,0.063 -0.021,0.113 -0.062,0.15c-0.041,0.037 -0.096,0.055 -0.167,0.055c-0.065,-0 -0.122,-0.015 -0.17,-0.046c-0.048,-0.031 -0.08,-0.073 -0.095,-0.126l0.048,-0.028c0.016,0.045 0.043,0.081 0.081,0.107c0.039,0.025 0.084,0.038 0.136,0.038c0.052,0 0.093,-0.013 0.122,-0.039c0.03,-0.025 0.045,-0.06 0.045,-0.105c0,-0.034 -0.009,-0.062 -0.026,-0.083c-0.017,-0.021 -0.039,-0.038 -0.065,-0.05c-0.025,-0.012 -0.06,-0.025 -0.103,-0.038c-0.046,-0.015 -0.083,-0.029 -0.11,-0.042c-0.027,-0.013 -0.051,-0.031 -0.07,-0.056c-0.019,-0.024 -0.028,-0.055 -0.028,-0.094c-0,-0.041 0.01,-0.075 0.03,-0.104c0.021,-0.029 0.048,-0.05 0.083,-0.065c0.035,-0.015 0.074,-0.022 0.116,-0.022c0.06,-0 0.109,0.014 0.148,0.041c0.039,0.028 0.064,0.063 0.074,0.104l-0.048,0.028c-0.011,-0.036 -0.032,-0.065 -0.062,-0.087c-0.029,-0.021 -0.067,-0.032 -0.114,-0.032c-0.048,-0 -0.087,0.012 -0.118,0.035c-0.031,0.023 -0.046,0.056 -0.046,0.097c-0,0.029 0.008,0.052 0.023,0.07c0.016,0.018 0.036,0.032 0.059,0.042c0.023,0.011 0.055,0.022 0.095,0.035c0.048,0.015 0.087,0.029 0.117,0.043c0.03,0.015 0.055,0.036 0.076,0.063c0.021,0.027 0.031,0.064 0.031,0.109Z" style="fill:#062442;fill-rule:nonzero;"/>
        </g>
        <g transform="matrix(24.239,0,0,24.239,145.619,40.2866)">
            <rect x="0.093" y="-0.732" width="0.06" height="0.732" style="fill:#062442;fill-rule:nonzero;"/>
        </g>
        <g transform="matrix(24.239,0,0,24.239,151.582,40.2866)">
            <path d="M0.433,-0.383c0.049,0.011 0.087,0.032 0.114,0.063c0.027,0.031 0.04,0.07 0.04,0.119c-0,0.063 -0.022,0.112 -0.065,0.148c-0.043,0.035 -0.108,0.053 -0.193,0.053l-0.236,0l0,-0.732l0.211,0c0.049,0 0.092,0.008 0.129,0.024c0.037,0.017 0.065,0.039 0.084,0.069c0.019,0.028 0.029,0.062 0.029,0.1c0,0.037 -0.01,0.069 -0.029,0.096c-0.019,0.027 -0.047,0.047 -0.084,0.06Zm-0.28,-0.296l0,0.277l0.142,0c0.06,0 0.106,-0.012 0.139,-0.037c0.033,-0.026 0.049,-0.059 0.049,-0.1c0,-0.042 -0.017,-0.076 -0.05,-0.101c-0.033,-0.026 -0.08,-0.039 -0.14,-0.039l-0.14,0Zm0.164,0.627c0.07,0 0.122,-0.013 0.157,-0.04c0.034,-0.027 0.051,-0.064 0.051,-0.109c0,-0.047 -0.018,-0.083 -0.053,-0.11c-0.035,-0.027 -0.085,-0.041 -0.15,-0.041l-0.169,0l-0,0.3l0.164,0Z" style="fill:#062442;fill-rule:nonzero;"/>
        </g>
        <g transform="matrix(24.239,0,0,24.239,166.828,40.2866)">
            <rect x="0.093" y="-0.732" width="0.06" height="0.732" style="fill:#062442;fill-rule:nonzero;"/>
        </g>
        <g transform="matrix(24.239,0,0,24.239,172.791,40.2866)">
            <path d="M0.093,-0.732l0.06,0l0,0.678l0.363,-0l0,0.054l-0.423,-0l-0,-0.732Z" style="fill:#062442;fill-rule:nonzero;"/>
        </g>
        <g transform="matrix(24.239,0,0,24.239,186.146,40.2866)">
            <rect x="0.093" y="-0.732" width="0.06" height="0.732" style="fill:#062442;fill-rule:nonzero;"/>
        </g>
        <g transform="matrix(24.239,0,0,24.239,192.109,40.2866)">
            <path d="M0.015,-0.732l0.518,0l0,0.053l-0.23,-0l-0,0.679l-0.059,-0l-0,-0.679l-0.229,-0l-0,-0.053Z" style="fill:#062442;fill-rule:nonzero;"/>
        </g>
        <g transform="matrix(24.239,0,0,24.239,205.392,40.2866)">
            <path d="M0.308,-0.376l0.21,-0.357l0.065,0l-0.248,0.417l0,0.316l-0.06,-0l0,-0.318l-0.262,-0.415l0.071,0l0.224,0.357Z" style="fill:#062442;fill-rule:nonzero;"/>
        </g>
    </g>
</svg>
