<?xml version="1.0" encoding="UTF-8" standalone="no"?>
<!DOCTYPE svg PUBLIC "-//W3C//DTD SVG 1.1//EN" "http://www.w3.org/Graphics/SVG/1.1/DTD/svg11.dtd">
<svg width="100%" height="100%" viewBox="0 0 213 68" version="1.1" xmlns="http://www.w3.org/2000/svg" xmlns:xlink="http://www.w3.org/1999/xlink" xml:space="preserve" xmlns:serif="http://www.serif.com/" style="fill-rule:evenodd;clip-rule:evenodd;stroke-linejoin:round;stroke-miterlimit:2;">
    <g id="Logo">
        <path d="M66.159,40.873c-0.35,0 -0.652,-0.127 -0.905,-0.38c-0.253,-0.253 -0.38,-0.555 -0.38,-0.905c0,-0.156 0.02,-0.292 0.059,-0.409l13.021,-37.252c0.116,-0.428 0.389,-0.857 0.817,-1.285c0.428,-0.428 1.032,-0.642 1.81,-0.642l12.671,0c0.778,0 1.382,0.214 1.81,0.642c0.428,0.428 0.7,0.857 0.817,1.285l13.021,37.252c0.039,0.117 0.058,0.253 0.058,0.409c0,0.35 -0.126,0.652 -0.379,0.905c-0.253,0.253 -0.555,0.38 -0.905,0.38l-10.802,0c-0.74,0 -1.275,-0.166 -1.606,-0.497c-0.331,-0.331 -0.555,-0.652 -0.671,-0.963l-1.402,-3.854l-12.554,0l-1.401,3.854c-0.117,0.311 -0.331,0.632 -0.642,0.963c-0.312,0.331 -0.857,0.497 -1.635,0.497l-10.802,0Zm17.458,-16.7l6.598,0l-3.328,-10.86l-3.27,10.86Z" style="fill:#0b2a49;fill-rule:nonzero;"/>
        <path d="M122.68,40.873c-0.428,0 -0.798,-0.156 -1.109,-0.467c-0.312,-0.312 -0.468,-0.682 -0.468,-1.11l0,-23.589l-6.539,5.021c-0.389,0.273 -0.779,0.36 -1.168,0.263c-0.389,-0.097 -0.74,-0.341 -1.051,-0.73l-5.138,-6.656c-0.195,-0.39 -0.253,-0.808 -0.175,-1.256c0.077,-0.447 0.311,-0.788 0.7,-1.021l14.072,-10.919c0.195,-0.156 0.389,-0.263 0.584,-0.321c0.195,-0.059 0.428,-0.088 0.701,-0.088l11.035,0c0.428,0 0.798,0.156 1.11,0.467c0.311,0.312 0.467,0.681 0.467,1.11l0,37.719c0,0.428 -0.156,0.798 -0.467,1.11c-0.312,0.311 -0.682,0.467 -1.11,0.467l-11.444,0Z" style="fill:#0b2a49;fill-rule:nonzero;"/>
        <path d="M155.203,40.873c-0.428,0 -0.798,-0.156 -1.109,-0.467c-0.312,-0.312 -0.468,-0.682 -0.468,-1.11l0,-23.589l-6.539,5.021c-0.389,0.273 -0.779,0.36 -1.168,0.263c-0.389,-0.097 -0.74,-0.341 -1.051,-0.73l-5.138,-6.656c-0.195,-0.39 -0.253,-0.808 -0.175,-1.256c0.077,-0.447 0.311,-0.788 0.7,-1.021l14.072,-10.919c0.195,-0.156 0.389,-0.263 0.584,-0.321c0.195,-0.059 0.428,-0.088 0.701,-0.088l11.035,0c0.428,0 0.798,0.156 1.11,0.467c0.311,0.312 0.467,0.681 0.467,1.11l0,37.719c0,0.428 -0.156,0.798 -0.467,1.11c-0.312,0.311 -0.682,0.467 -1.11,0.467l-11.444,0Z" style="fill:#0b2a49;fill-rule:nonzero;"/>
        <path d="M186.5,40.873c-0.428,0 -0.798,-0.156 -1.11,-0.467c-0.311,-0.312 -0.467,-0.682 -0.467,-1.11l0,-11.503l-13.137,-25.983c-0.039,-0.078 -0.069,-0.165 -0.088,-0.263c-0.019,-0.097 -0.029,-0.185 -0.029,-0.262c0,-0.351 0.126,-0.652 0.379,-0.905c0.253,-0.253 0.555,-0.38 0.905,-0.38l10.978,0c0.778,0 1.362,0.195 1.751,0.584c0.39,0.389 0.623,0.681 0.701,0.876l5.839,11.736l5.839,-11.736c0.078,-0.195 0.311,-0.487 0.701,-0.876c0.389,-0.389 0.973,-0.584 1.751,-0.584l10.977,0c0.351,0 0.652,0.127 0.905,0.38c0.253,0.253 0.38,0.554 0.38,0.905c0,0.077 -0.01,0.165 -0.029,0.262c-0.02,0.098 -0.049,0.185 -0.088,0.263l-13.137,25.983l0,11.503c0,0.428 -0.156,0.798 -0.468,1.11c-0.311,0.311 -0.681,0.467 -1.109,0.467l-11.444,0Z" style="fill:#0b2a49;fill-rule:nonzero;"/>
        <path d="M74.661,57.985c2.214,0.63 3.32,2.06 3.32,4.29c0,1.584 -0.541,2.816 -1.624,3.697c-1.082,0.881 -2.682,1.321 -4.799,1.321l-6.351,-0l0,-17.743l5.6,-0c1.244,-0 2.327,0.194 3.248,0.582c0.921,0.387 1.632,0.945 2.133,1.672c0.501,0.727 0.751,1.576 0.751,2.545c0,1.697 -0.759,2.909 -2.278,3.636Zm-7.296,-6.52l-0,5.817l3.078,0c1.341,0 2.38,-0.258 3.115,-0.776c0.735,-0.517 1.103,-1.236 1.103,-2.157c-0,-0.889 -0.372,-1.591 -1.115,-2.109c-0.744,-0.517 -1.778,-0.775 -3.103,-0.775l-3.078,-0Zm3.805,13.937c1.519,0 2.654,-0.274 3.406,-0.824c0.751,-0.549 1.127,-1.317 1.127,-2.303c-0,-1.001 -0.376,-1.785 -1.127,-2.351c-0.752,-0.565 -1.887,-0.848 -3.406,-0.848l-3.805,-0l-0,6.326l3.805,0Z" style="fill:#2569ad;fill-rule:nonzero;"/>
        <rect x="83.411" y="49.55" width="2.157" height="17.743" style="fill:#2569ad;fill-rule:nonzero;"/>
        <path d="M90.392,49.55l13.186,-0l-0,1.915l-5.527,-0l0,15.828l-2.157,-0l0,-15.828l-5.502,-0l-0,-1.915Z" style="fill:#2569ad;fill-rule:nonzero;"/>
        <path d="M118.364,59.076l-7.805,-0l-0,6.302l8.992,-0l0,1.915l-11.15,-0l0,-17.767l10.884,-0l-0,1.915l-8.726,-0l-0,5.72l7.805,-0l-0,1.915Z" style="fill:#2569ad;fill-rule:nonzero;"/>
        <rect x="124.666" y="59.1" width="8.823" height="1.745" style="fill:#2569ad;fill-rule:nonzero;"/>
        <path d="M150.674,62.372c0,1.018 -0.234,1.919 -0.703,2.703c-0.468,0.784 -1.155,1.394 -2.06,1.83c-0.905,0.436 -1.979,0.655 -3.224,0.655c-1.729,-0 -3.207,-0.404 -4.435,-1.212c-1.229,-0.808 -2.037,-1.883 -2.424,-3.224l1.745,-1.018c0.436,1.115 1.083,1.971 1.939,2.569c0.856,0.598 1.923,0.897 3.2,0.897c1.163,-0 2.068,-0.259 2.714,-0.776c0.647,-0.517 0.97,-1.236 0.97,-2.157c-0,-0.743 -0.202,-1.345 -0.606,-1.806c-0.404,-0.46 -0.901,-0.82 -1.491,-1.078c-0.59,-0.259 -1.402,-0.542 -2.436,-0.849c-1.147,-0.339 -2.072,-0.662 -2.775,-0.969c-0.703,-0.307 -1.297,-0.768 -1.782,-1.382c-0.485,-0.614 -0.727,-1.422 -0.727,-2.424c0,-1.018 0.259,-1.895 0.776,-2.63c0.517,-0.735 1.232,-1.293 2.145,-1.672c0.913,-0.38 1.935,-0.57 3.066,-0.57c1.584,0 2.864,0.347 3.842,1.042c0.978,0.695 1.636,1.576 1.975,2.642l-1.745,1.018c-0.371,-0.856 -0.884,-1.527 -1.539,-2.011c-0.654,-0.485 -1.523,-0.728 -2.606,-0.728c-1.098,0 -1.979,0.247 -2.642,0.74c-0.662,0.493 -0.993,1.151 -0.993,1.975c-0,0.614 0.181,1.115 0.545,1.503c0.363,0.388 0.82,0.695 1.369,0.921c0.55,0.226 1.301,0.477 2.255,0.751c1.212,0.356 2.189,0.703 2.933,1.043c0.743,0.339 1.381,0.848 1.914,1.527c0.534,0.679 0.8,1.575 0.8,2.69Z" style="fill:#2569ad;fill-rule:nonzero;"/>
        <rect x="155.837" y="49.55" width="2.157" height="17.743" style="fill:#2569ad;fill-rule:nonzero;"/>
        <path d="M175.616,49.55l0,1.042l-9.501,14.762l9.841,-0l-0,1.939l-12.823,-0l0,-1.067l9.502,-14.761l-8.775,-0l0,-1.915l11.756,-0Z" style="fill:#2569ad;fill-rule:nonzero;"/>
        <path d="M190.984,59.076l-7.805,-0l-0,6.302l8.993,-0l-0,1.915l-11.15,-0l-0,-17.767l10.883,-0l-0,1.915l-8.726,-0l-0,5.72l7.805,-0l-0,1.915Z" style="fill:#2569ad;fill-rule:nonzero;"/>
        <path d="M202.74,49.55c1.729,-0 3.284,0.347 4.666,1.042c1.381,0.695 2.468,1.709 3.26,3.042c0.792,1.333 1.188,2.921 1.188,4.763c-0,1.858 -0.392,3.454 -1.176,4.787c-0.784,1.334 -1.866,2.352 -3.248,3.054c-1.382,0.703 -2.945,1.055 -4.69,1.055l-4.848,-0l0,-17.743l4.848,-0Zm-0.291,15.828c2.23,-0 3.975,-0.606 5.236,-1.818c1.26,-1.212 1.89,-2.933 1.89,-5.163c0,-2.198 -0.634,-3.906 -1.903,-5.126c-1.268,-1.22 -3.009,-1.83 -5.223,-1.83l-2.4,-0l0,13.937l2.4,-0Z" style="fill:#2569ad;fill-rule:nonzero;"/>
        <g>
            <path d="M36.966,64.691l-21.564,0l0,3.08l21.564,0l0,-3.08Zm-21.564,-3.081l-6.161,0l0,3.08l6.161,0l0,-3.08Zm27.725,0l-6.161,0l0,3.08l6.161,0l0,-3.08Zm3.08,-3.08l-3.08,0l0,3.08l3.08,0l0,-3.08Zm-36.966,0l-3.08,0l0,3.08l3.08,0l0,-3.08Zm40.046,-6.161l-3.08,0l0,6.161l3.08,0l0,-6.161Zm-43.127,0l-3.08,0l0,6.161l3.08,0l0,-6.161Zm46.208,-9.241l-3.08,0l0,9.241l3.08,0l0,-9.241Zm-49.288,0l-3.08,0l0,9.241l3.08,0l0,-9.241Zm46.207,-3.081l-3.08,0l0,3.081l3.08,0l0,-3.081Zm-43.127,0l-3.08,0l0,3.081l3.08,0l0,-3.081Zm40.047,-3.081l-3.08,0l0,3.08l3.08,0l0,-3.08Zm-36.966,0l-3.08,0l0,3.08l3.08,0l0,-3.08Zm33.886,-3.08l-3.08,0l0,3.08l3.08,0l0,-3.08Zm-30.806,0l-3.08,0l0,3.08l3.08,0l0,-3.08Zm6.162,-3.081l-6.161,0l0,3.08l6.161,0l0,-3.08Zm21.564,-0l-6.161,-0l0,3.08l6.161,0l0,-3.08Zm-6.161,-3.08l-3.081,-0l0,3.08l3.081,-0l0,-3.08Zm-18.484,-9.242l3.081,-0l0,12.322l3.08,-0l0,-12.322l9.242,-0l0,9.241l3.081,-0l0,-9.241l3.08,-0l0,-3.081l-21.564,-0l0,3.081Zm24.644,-6.161l-3.08,-0l0,3.08l3.08,-0l0,-3.08Zm-24.644,-0l-3.08,-0l0,3.08l3.08,-0l0,-3.08Zm6.161,-9.242l-3.08,-0l0,6.161l-3.081,-0l0,3.08l21.564,-0l0,-3.08l-3.08,-0l0,-6.161l-3.081,-0l0,6.161l-9.242,-0l0,-6.161l9.241,-0l0,-3.08l-9.241,-0l0,3.08Z"/>
            <path d="M12.322,58.53l-0,-3.081l-3.081,0l-0,-6.16l-3.08,0l-0,-6.161l-3.081,0l-0,9.241l3.081,0l-0,6.161l3.08,0l-0,3.08l33.886,0l0,-3.08l3.08,0l0,-6.161l3.081,0l0,-9.241l-12.322,0l0,9.241l-3.08,0l0,3.08l-3.081,0l0,3.081l-18.483,0Z" style="fill:#d92860;fill-rule:nonzero;"/>
            <rect x="15.402" y="61.61" width="21.564" height="3.08" style="fill:#bb1d4f;"/>
            <path d="M12.322,40.047l30.805,-0l-0,-3.081l-3.08,-0l-0,-3.08l-12.322,-0l-0,-3.081l-3.081,-0l-0,-12.322l-3.081,-0l-0,12.322l-3.08,-0l-0,3.081l-3.081,-0l-0,3.08l15.403,-0l-18.483,-0l-0,3.081Z" style="fill:#5faa77;fill-rule:nonzero;"/>
            <rect x="24.644" y="18.483" width="3.081" height="12.322" style="fill:#e6e2ad;"/>
            <rect x="21.563" y="30.805" width="3.08" height="3.08" style="fill:#e6e2ad;"/>
            <rect x="21.563" y="6.161" width="9.241" height="3.08" style="fill:#c9704f;"/>
            <rect x="27.725" y="3.08" width="3.08" height="3.08" style="fill:#c9704f;"/>
            <rect x="21.563" y="3.08" width="6.162" height="3.08" style="fill:#eda661;"/>
            <path d="M12.322,55.449l-0,3.081l18.483,0l0,-3.081l3.081,0l0,-3.08l3.08,0l0,-9.241l-3.08,0l0,3.08l-3.081,0l0,-3.08l-24.644,0l0,6.161l3.08,0l0,6.16l3.081,0Zm30.805,-3.08l-3.08,0l-0,3.08l3.08,0l-0,-3.08Zm3.08,-6.161l-3.08,0l-0,3.081l3.08,0l-0,-3.081Zm-0,-3.08l-0,-3.081l-9.241,0l-0,3.081l9.241,0Z" style="fill:#e55381;fill-rule:nonzero;"/>
            <path d="M27.725,55.449l-3.081,0l-0,3.08l3.081,0l-0,-3.08Zm-18.484,-9.241l-3.08,0l0,3.08l3.08,0l0,-3.08Zm12.322,0l-3.08,0l-0,3.08l3.08,0l0,-3.08Zm-15.402,-3.08l24.644,0l-0,3.08l3.081,0l0,-3.08l3.08,0l0,-3.081l-30.805,0l-0,3.081Z" style="fill:#ea8fac;"/>
            <path d="M18.483,52.369l-3.081,0l0,3.08l3.081,0l0,-3.08Zm-6.161,-12.322l0,12.322l3.08,0l0,-12.322l-3.08,0Zm6.161,-3.081l-3.081,0l0,3.081l3.081,0l0,-3.081Z" style="fill:#ffffeb;fill-rule:nonzero;"/>
            <path d="M30.805,36.966l3.081,0l0,3.081l6.161,0l0,-3.081l-3.081,0l0,-3.08l-3.08,0l0,-3.081l-3.081,0l0,-12.322l-3.08,0l0,15.403l3.08,0l0,3.08Zm-18.483,0l-3.081,0l0,3.081l3.081,0l0,-3.081Zm3.08,-3.08l-3.08,0l0,3.08l3.08,0l0,-3.08Zm21.564,-18.484l0,-3.08l-21.564,0l0,3.08l21.564,0Z" style="fill:#195b4e;fill-rule:nonzero;"/>
        </g>
    </g>
</svg>
