<?xml version="1.0" encoding="UTF-8" standalone="no"?>
<!DOCTYPE svg PUBLIC "-//W3C//DTD SVG 1.1//EN" "http://www.w3.org/Graphics/SVG/1.1/DTD/svg11.dtd">
<svg width="100%" height="100%" viewBox="0 0 512 512" version="1.1" xmlns="http://www.w3.org/2000/svg" xmlns:xlink="http://www.w3.org/1999/xlink" xml:space="preserve" xmlns:serif="http://www.serif.com/" style="fill-rule:evenodd;clip-rule:evenodd;stroke-linejoin:round;stroke-miterlimit:2;">
    <g>
        <path d="M337.456,488.731l-162.912,0l-0,23.269l162.912,-0l0,-23.269Zm-162.912,-23.276l-46.546,-0l0,23.268l46.546,0l-0,-23.268Zm209.458,-0l-46.546,-0l0,23.268l46.546,0l-0,-23.268Zm23.269,-23.269l-23.269,-0l-0,23.269l23.269,-0l-0,-23.269Zm-279.273,-0l-23.269,-0l0,23.269l23.269,-0l0,-23.269Zm302.542,-46.546l-23.269,0l-0,46.546l23.269,-0l-0,-46.546Zm-325.818,0l-23.269,0l-0,46.546l23.269,-0l-0,-46.546Zm349.094,-69.814l-23.269,-0l0,69.814l23.269,0l0,-69.814Zm-372.363,-0l-23.269,-0l-0,69.814l23.269,0l-0,-69.814Zm349.087,-23.277l-23.269,0l-0,23.277l23.269,-0l-0,-23.277Zm-325.818,0l-23.269,0l-0,23.277l23.269,-0l-0,-23.277Zm302.549,-23.276l-23.269,-0l-0,23.269l23.269,-0l-0,-23.269Zm-279.273,-0l-23.269,-0l0,23.269l23.269,-0l0,-23.269Zm256.004,-23.269l-23.269,-0l-0,23.269l23.269,-0l-0,-23.269Zm-232.735,-0l-23.269,-0l0,23.269l23.269,-0l0,-23.269Zm46.553,-23.277l-46.545,0l-0,23.269l46.545,0l0,-23.269Zm162.913,0l-46.546,0l0,23.269l46.546,0l-0,-23.269Zm-46.546,-23.269l-23.276,0l-0,23.269l23.276,0l0,-23.269Zm-139.643,-69.822l23.276,0l0,93.091l23.269,0l0,-93.091l69.822,0l-0,69.815l23.276,-0l0,-69.815l23.269,0l0,-23.276l-162.912,-0l-0,23.276Zm186.181,-46.545l-23.269,-0l0,23.269l23.269,-0l0,-23.269Zm-186.181,-0l-23.269,-0l-0,23.269l23.269,-0l-0,-23.269Zm46.545,-69.822l-23.269,-0l0,46.545l-23.276,0l-0,23.269l162.912,0l0,-23.269l-23.269,0l0,-46.545l-23.276,-0l-0,46.545l-69.822,0l0,-46.545l69.814,-0l0,-23.269l-69.814,0l0,23.269Z"/>
        <path d="M151.275,442.186l-0,-23.277l-23.277,0l0,-46.538l-23.269,0l0,-46.545l-23.276,-0l-0,69.814l23.276,0l0,46.546l23.269,-0l0,23.269l256.004,-0l-0,-23.269l23.269,-0l-0,-46.546l23.276,0l0,-69.814l-93.091,-0l0,69.814l-23.269,0l0,23.269l-23.276,0l-0,23.277l-139.636,-0Z" style="fill:#ce1f56;fill-rule:nonzero;"/>
        <rect x="174.544" y="465.455" width="162.913" height="23.269" style="fill:#ba1c4e;"/>
        <path d="M151.275,302.549l232.727,0l-0,-23.276l-23.269,-0l-0,-23.269l-93.091,-0l0,-23.277l-23.276,0l-0,-93.091l-23.277,0l0,93.091l-23.269,0l0,23.277l-23.276,-0l-0,23.269l116.367,-0l-139.636,-0l-0,23.276Z" style="fill:#5faa77;fill-rule:nonzero;"/>
        <rect x="244.366" y="139.636" width="23.277" height="93.091" style="fill:#e6e2ad;"/>
        <rect x="221.089" y="232.727" width="23.269" height="23.269" style="fill:#e6e2ad;"/>
        <rect x="221.089" y="46.545" width="69.814" height="23.269" style="fill:#c9704f;"/>
        <rect x="267.642" y="23.269" width="23.269" height="23.269" style="fill:#c9704f;"/>
        <rect x="221.089" y="23.269" width="46.553" height="23.269" style="fill:#eda661;"/>
        <path d="M151.275,418.909l-0,23.277l139.636,-0l-0,-23.277l23.276,0l0,-23.269l23.269,0l0,-69.814l-23.269,-0l0,23.269l-23.276,-0l-0,-23.269l-186.182,-0l0,46.545l23.269,0l0,46.538l23.277,0Zm232.727,-23.269l-23.269,0l-0,23.269l23.269,0l-0,-23.269Zm23.269,-46.545l-23.269,-0l-0,23.276l23.269,0l-0,-23.276Zm-0,-23.269l-0,-23.277l-69.815,0l0,23.277l69.815,-0Z" style="fill:#e55381;fill-rule:nonzero;"/>
        <path d="M267.642,418.909l-23.276,0l-0,23.269l23.276,0l0,-23.269Zm-46.553,-69.814l-23.269,-0l0,23.269l23.269,-0l0,-23.269Zm-93.091,-0l-23.269,-0l0,23.269l23.269,-0l0,-23.269Zm-23.269,-23.269l186.182,-0l-0,23.269l23.276,-0l0,-23.269l23.269,-0l0,-23.277l-232.727,0l0,23.277Z" style="fill:#e58faa;"/>
        <path d="M197.82,395.64l-23.276,0l-0,23.269l23.276,0l0,-23.269Zm-46.545,-93.091l-0,93.091l23.269,0l-0,-93.091l-23.269,0Zm46.545,-23.276l-23.276,-0l-0,23.276l23.276,0l0,-23.276Z" style="fill:#ffffeb;fill-rule:nonzero;"/>
        <path d="M290.911,279.273l23.276,-0l0,23.276l46.546,0l-0,-23.276l-23.277,-0l0,-23.269l-23.269,-0l0,-23.277l-23.276,0l-0,-93.091l-23.269,0l0,116.368l23.269,-0l-0,23.269Zm-139.636,-0l-23.277,-0l0,23.276l23.277,0l-0,-23.276Zm23.269,-23.269l-23.269,-0l-0,23.269l23.269,-0l-0,-23.269Zm162.912,-139.644l0,-23.269l-162.912,-0l-0,23.269l162.912,-0Z" style="fill:#195b4e;fill-rule:nonzero;"/>
    </g>
</svg>
